{
.appVersion = "3087";
copyright = "Copyright © 2017 by Evgeniy Agasyants, SIL Open Font License (OFL) version 1.1";
customParameters = (
{
name = license;

glyphs = (
{
glyphname = A;
lastChange = "2018-01-05 19:41:49 +0000";
layers = (
{
anchors = (
{
name = top;
position = "{399, 742}";
}
);
layerId = "CF9497EE-3EC0-42B6-AB9D-60F0E4A560B4";
name = "Bold Italic";
paths = (
{
closed = 1;
nodes = (
"551 -18 OFFCURVE",
"678 8 OFFCURVE",
"730 34 CURVE",
"685 258 OFFCURVE",
"590 551 OFFCURVE",
"509 724 CURVE",
"429 712 OFFCURVE",
"326 684 OFFCURVE",
"255 649 CURVE",
"337 477 OFFCURVE",
"440 157 OFFCURVE",
"487 -15 CURVE"
);
},
{
closed = 1;
nodes = (
"292 104 OFFCURVE",
"403 117 OFFCURVE",
"536 111 CURVE",
"541 146 OFFCURVE",
"543 196 OFFCURVE",
"534 242 CURVE",
"409 255 OFFCURVE",
"255 256 OFFCURVE",
"143 246 CURVE",
"137 211 OFFCURVE",
"144 119 OFFCURVE",
"165 97 CURVE"
);
},
{
closed = 1;
nodes = (
"300 174 OFFCURVE",
"351 321 OFFCURVE",
"376 510 CURVE",
"334 522 OFFCURVE",
"288 532 OFFCURVE",
"238 527 CURVE",
"171 350 OFFCURVE",
"111 258 OFFCURVE",
"-4 114 CURVE",
"51 52 OFFCURVE",
"150 -1 OFFCURVE",
"206 -18 CURVE"
);
}
);
width = 763;
}
);
leftKerningGroup = A;
leftMetricsKey = x;
rightKerningGroup = A;
rightMetricsKey = x;
unicode = 0041;
},
{
glyphname = AE;
lastChange = "2018-01-05 19:17:27 +0000";
layers = (
{
layerId = "CF9497EE-3EC0-42B6-AB9D-60F0E4A560B4";
name = "Bold Italic";
paths = (
{
closed = 1;
nodes = (
"299 169 OFFCURVE",
"397 355 OFFCURVE",
"422 544 CURVE",
"380 556 OFFCURVE",
"386 677 OFFCURVE",
"336 672 CURVE",
"269 495 OFFCURVE",
"110 253 OFFCURVE",
"-5 109 CURVE",
"50 47 OFFCURVE",
"149 -6 OFFCURVE",
"205 -23 CURVE"
);
},
{
closed = 1;
nodes = (
"311 104 OFFCURVE",
"422 117 OFFCURVE",
"555 111 CURVE",
"560 146 OFFCURVE",
"562 196 OFFCURVE",
"553 242 CURVE",
"428 255 OFFCURVE",
"274 256 OFFCURVE",
"162 246 CURVE",
"156 211 OFFCURVE",
"163 119 OFFCURVE",
"184 97 CURVE"
);
},
{
closed = 1;
nodes = (
"650 3 OFFCURVE",
"807 4 OFFCURVE",
"983 -2 CURVE",
"989 49 OFFCURVE",
"1000 126 OFFCURVE",
"980 184 CURVE",
"816 208 OFFCURVE",
"621 187 OFFCURVE",
"478 168 CURVE",
"471 119 OFFCURVE",
"483 18 OFFCURVE",
"489 -14 CURVE"
);
},
{
closed = 1;
nodes = (
"545 22 OFFCURVE",
"666 40 OFFCURVE",
"721 60 CURVE",
"701 288 OFFCURVE",
"644 524 OFFCURVE",
"587 706 CURVE",
"507 714 OFFCURVE",
"401 716 OFFCURVE",
"326 690 CURVE",
"386 509 OFFCURVE",
"456 210 OFFCURVE",
"482 33 CURVE"
);
},
{
closed = 1;
nodes = (
"728 264 OFFCURVE",
"794 266 OFFCURVE",
"858 259 CURVE",
"857 302 OFFCURVE",
"856 364 OFFCURVE",
"845 427 CURVE",
"791 435 OFFCURVE",
"701 433 OFFCURVE",
"647 421 CURVE",
"644 379 OFFCURVE",
"658 277 OFFCURVE",
"667 250 CURVE"
);
},
{
closed = 1;
nodes = (
"687 497 OFFCURVE",
"810 505 OFFCURVE",
"986 500 CURVE",
"992 551 OFFCURVE",
"1003 628 OFFCURVE",
"983 686 CURVE",
"820 710 OFFCURVE",
"598 708 OFFCURVE",
"451 691 CURVE",
"443 642 OFFCURVE",
"505 520 OFFCURVE",
"527 481 CURVE"
);
}
);
width = 1077;
}
);
leftKerningGroup = A;
rightKerningGroup = E;
unicode = 00C6;
},
{
glyphname = B;
lastChange = "2018-01-02 13:38:07 +0000";
layers = (
{
layerId = "CF9497EE-3EC0-42B6-AB9D-60F0E4A560B4";
name = "Bold Italic";
paths = (
{
closed = 1;
nodes = (
"121 17 OFFCURVE",
"243 -17 OFFCURVE",
"354 -17 CURVE SMOOTH",
"691 -17 OFFCURVE",
"730 381 OFFCURVE",
"406 381 CURVE SMOOTH",
"251 381 OFFCURVE",
"228 293 OFFCURVE",
"294 293 CURVE SMOOTH",
"409 293 OFFCURVE",
"429 111 OFFCURVE",
"282 111 CURVE SMOOTH",
"202 111 OFFCURVE",
"82 89 OFFCURVE",
"42 73 CURVE"
);
},
{
closed = 1;
nodes = (
"287 238 OFFCURVE",
"302 423 OFFCURVE",
"346 647 CURVE",
"313 680 OFFCURVE",
"163 694 OFFCURVE",
"104 693 CURVE",
"63 514 OFFCURVE",
"38 273 OFFCURVE",
"42 73 CURVE",
"75 41 OFFCURVE",
"240 -2 OFFCURVE",
"278 9 CURVE"
);
},
{
closed = 1;
nodes = (
"730 328 OFFCURVE",
"698 724 OFFCURVE",
"358 724 CURVE SMOOTH",
"268 724 OFFCURVE",
"176 711 OFFCURVE",
"87 693 CURVE",
"81 643 OFFCURVE",
"99 571 OFFCURVE",
"119 531 CURVE",
"182 548 OFFCURVE",
"310 565 OFFCURVE",
"347 561 CURVE SMOOTH",
"429 552 OFFCURVE",
"417 424 OFFCURVE",
"313 424 CURVE SMOOTH",
"242 424 OFFCURVE",
"270 328 OFFCURVE",
"305 328 CURVE SMOOTH"
);
}
);
width = 655;
}
);
leftMetricsKey = n;
rightMetricsKey = o;
unicode = 0042;
},
{
glyphname = C;
lastChange = "2018-01-05 19:17:16 +0000";
layers = (
{
anchors = (
{
name = bottom;
position = "{328, 0}";
}
);
layerId = "CF9497EE-3EC0-42B6-AB9D-60F0E4A560B4";
name = "Bold Italic";
paths = (
{
closed = 1;
nodes = (
"367 -132 OFFCURVE",
"625 115 CURVE",
"602 160 OFFCURVE",
"576 219 OFFCURVE",
"565 236 CURVE",
"439 153 OFFCURVE",
"284 196 OFFCURVE",
"284 340 CURVE SMOOTH",
"284 554 OFFCURVE",
"450 528 OFFCURVE",
"450 438 CURVE SMOOTH",
"450 362 OFFCURVE",
"606 362 OFFCURVE",
"606 517 CURVE SMOOTH",
"606 833 OFFCURVE",
"31 814 OFFCURVE",
"31 319 CURVE SMOOTH",
"31 -23 OFFCURVE"
);
}
);
width = 659;
}
);
leftKerningGroup = C;
leftMetricsKey = o;
rightKerningGroup = C;
rightMetricsKey = o;
unicode = 0043;
},
{
glyphname = D;
lastChange = "2018-01-05 19:43:31 +0000";
layers = (
{
layerId = "CF9497EE-3EC0-42B6-AB9D-60F0E4A560B4";
name = "Bold Italic";
paths = (
{
closed = 1;
nodes = (
"476 -135 OFFCURVE",
"665 104 OFFCURVE",
"676 343 CURVE SMOOTH",
"692 678 OFFCURVE",
"424 797 OFFCURVE",
"85 681 CURVE",
"85 612 OFFCURVE",
"118 523 OFFCURVE",
"137 483 CURVE",
"324 588 OFFCURVE",
"480 569 OFFCURVE",
"451 361 CURVE SMOOTH",
"437 260 OFFCURVE",
"378 157 OFFCURVE",
"298 157 CURVE SMOOTH",
"227 157 OFFCURVE",
"43 66 OFFCURVE",
"75 51 CURVE SMOOTH"
);
},
{
closed = 1;
nodes = (
"298 178 OFFCURVE",
"313 318 OFFCURVE",
"339 490 CURVE",
"293 515 OFFCURVE",
"159 550 OFFCURVE",
"101 549 CURVE",
"70 385 OFFCURVE",
"55 257 OFFCURVE",
"54 64 CURVE",
"88 32 OFFCURVE",
"253 -10 OFFCURVE",
"291 0 CURVE"
);
}
);
width = 707;
}
);
leftKerningGroup = D;
rightKerningGroup = D;
unicode = 0044;
},
{
glyphname = Eth;
lastChange = "2017-11-27 15:32:02 +0000";
layers = (
{
components = (
{
name = D;
transform = "{1, 0, 0, 1, 51, 0}";
}
);
layerId = "CF9497EE-3EC0-42B6-AB9D-60F0E4A560B4";
name = "Bold Italic";
paths = (
{
closed = 1;
nodes = (
"183 288 OFFCURVE",
"303 297 OFFCURVE",
"428 294 CURVE",
"436 334 OFFCURVE",
"439 375 OFFCURVE",
"433 415 CURVE",
"310 429 OFFCURVE",
"183 429 OFFCURVE",
"58 418 CURVE",
"50 368 OFFCURVE",
"50 323 OFFCURVE",
"59 267 CURVE"
);
}
);
width = 758;
}
);
leftKerningGroup = D;
rightKerningGroup = D;
unicode = 00D0;
},
{
glyphname = E;
lastChange = "2018-01-02 13:38:07 +0000";
layers = (
{
anchors = (
{
name = top;
position = "{346, 723}";
}
);
layerId = "CF9497EE-3EC0-42B6-AB9D-60F0E4A560B4";
name = "Bold Italic";
paths = (
{
closed = 1;
nodes = (
"300 198 OFFCURVE",
"308 425 OFFCURVE",
"331 588 CURVE",
"298 621 OFFCURVE",
"151 648 OFFCURVE",
"93 647 CURVE",
"54 481 OFFCURVE",
"45 244 OFFCURVE",
"48 44 CURVE",
"81 12 OFFCURVE",
"266 -15 OFFCURVE",
"304 -5 CURVE"
);
},
{
closed = 1;
nodes = (
"248 -9 OFFCURVE",
"397 -1 OFFCURVE",
"573 -7 CURVE",
"579 44 OFFCURVE",
"590 121 OFFCURVE",
"570 179 CURVE",
"392 179 OFFCURVE",
"201 158 OFFCURVE",
"58 139 CURVE",
"51 90 OFFCURVE",
"60 5 OFFCURVE",
"87 -26 CURVE"
);
},
{
closed = 1;
nodes = (
"373 268 OFFCURVE",
"438 270 OFFCURVE",
"503 263 CURVE",
"505 306 OFFCURVE",
"502 368 OFFCURVE",
"490 431 CURVE",
"436 439 OFFCURVE",
"346 437 OFFCURVE",
"292 425 CURVE",
"289 383 OFFCURVE",
"303 281 OFFCURVE",
"312 254 CURVE"
);
},
{
closed = 1;
nodes = (
"277 540 OFFCURVE",
"426 529 OFFCURVE",
"602 524 CURVE",
"608 575 OFFCURVE",
"619 643 OFFCURVE",
"599 701 CURVE",
"436 725 OFFCURVE",
"230 725 OFFCURVE",
"88 706 CURVE",
"80 657 OFFCURVE",
"95 563 OFFCURVE",
"117 524 CURVE"
);
}
);
width = 640;
}
);
leftKerningGroup = E;
leftMetricsKey = n;
rightKerningGroup = E;
rightMetricsKey = n;
unicode = 0045;
},
{
glyphname = F;
lastChange = "2017-11-27 15:32:02 +0000";
layers = (
{
layerId = "CF9497EE-3EC0-42B6-AB9D-60F0E4A560B4";
name = "Bold Italic";
paths = (
{
closed = 1;
nodes = (
"315 163 OFFCURVE",
"327 337 OFFCURVE",
"347 463 CURVE",
"315 496 OFFCURVE",
"192 529 OFFCURVE",
"109 532 CURVE",
"86 380 OFFCURVE",
"82 246 OFFCURVE",
"85 46 CURVE",
"118 14 OFFCURVE",
"284 -29 OFFCURVE",
"322 -18 CURVE"
);
},
{
closed = 1;
nodes = (
"281 222 OFFCURVE",
"388 241 OFFCURVE",
"514 231 CURVE",
"519 274 OFFCURVE",
"521 334 OFFCURVE",
"512 390 CURVE",
"387 405 OFFCURVE",
"244 406 OFFCURVE",
"131 394 CURVE",
"125 351 OFFCURVE",
"133 241 OFFCURVE",
"153 214 CURVE"
);
},
{
closed = 1;
nodes = (
"277 515 OFFCURVE",
"426 522 OFFCURVE",
"602 517 CURVE",
"609 567 OFFCURVE",
"619 645 OFFCURVE",
"599 703 CURVE",
"436 726 OFFCURVE",
"230 726 OFFCURVE",
"88 708 CURVE",
"80 658 OFFCURVE",
"90 529 OFFCURVE",
"117 498 CURVE"
);
}
);
width = 615;
}
);
unicode = 0046;
},
{
glyphname = G;
lastChange = "2018-01-02 13:38:06 +0000";
layers = (
{
layerId = "CF9497EE-3EC0-42B6-AB9D-60F0E4A560B4";
name = "Bold Italic";
paths = (
{
closed = 1;
nodes = (
"580 285 OFFCURVE",
"496 246 OFFCURVE",
"487 264 CURVE",
"457 121 OFFCURVE",
"278 181 OFFCURVE",
"278 307 CURVE SMOOTH",
"278 536 OFFCURVE",
"445 569 OFFCURVE",
"445 443 CURVE SMOOTH",
"445 348 OFFCURVE",
"603 393 OFFCURVE",
"603 520 CURVE SMOOTH",
"603 800 OFFCURVE",
"25 793 OFFCURVE",
"25 264 CURVE SMOOTH",
"25 -108 OFFCURVE",
"579 -108 OFFCURVE",
"602 240 CURVE"
);
},
{
closed = 1;
nodes = (
"647 246 OFFCURVE",
"652 292 OFFCURVE",
"652 339 CURVE",
"549 362 OFFCURVE",
"478 373 OFFCURVE",
"376 377 CURVE",
"365 339 OFFCURVE",
"366 267 OFFCURVE",
"378 230 CURVE",
"476 231 OFFCURVE",
"550 225 OFFCURVE",
"638 212 CURVE"
);
}
);
width = 666;
}
);
leftMetricsKey = o;
rightMetricsKey = o;
unicode = 0047;
},
{
glyphname = H;
lastChange = "2018-01-05 19:42:26 +0000";
layers = (
{
layerId = "CF9497EE-3EC0-42B6-AB9D-60F0E4A560B4";
name = "Bold Italic";
paths = (
{
closed = 1;
nodes = (
"284 211 OFFCURVE",
"298 442 OFFCURVE",
"344 663 CURVE",
"311 696 OFFCURVE",
"163 723 OFFCURVE",
"105 722 CURVE",
"63 540 OFFCURVE",
"36 246 OFFCURVE",
"39 46 CURVE",
"98 14 OFFCURVE",
"202 -12 OFFCURVE",
"276 -18 CURVE"
);
},
{
closed = 1;
nodes = (
"368 248 OFFCURVE",
"450 255 OFFCURVE",
"483 251 CURVE",
"483 309 OFFCURVE",
"493 381 OFFCURVE",
"471 440 CURVE",
"436 445 OFFCURVE",
"328 455 OFFCURVE",
"276 451 CURVE",
"284 386 OFFCURVE",
"297 280 OFFCURVE",
"321 238 CURVE"
);
},
{
closed = 1;
nodes = (
"681 212 OFFCURVE",
"696 445 OFFCURVE",
"740 669 CURVE",
"707 702 OFFCURVE",
"560 729 OFFCURVE",
"502 727 CURVE",
"460 548 OFFCURVE",
"433 248 OFFCURVE",
"436 48 CURVE",
"486 16 OFFCURVE",
"609 -19 OFFCURVE",
"673 -17 CURVE"
);
}
);
width = 741;
}
);
leftMetricsKey = n;
rightMetricsKey = n;
unicode = 0048;
},
{
glyphname = I;
lastChange = "2018-01-02 13:38:07 +0000";
layers = (
{
anchors = (
{
name = top;
position = "{229, 736}";
}
);
layerId = "CF9497EE-3EC0-42B6-AB9D-60F0E4A560B4";
name = "Bold Italic";
paths = (
{
closed = 1;
nodes = (
"284 210 OFFCURVE",
"299 439 OFFCURVE",
"344 663 CURVE",
"311 696 OFFCURVE",
"163 723 OFFCURVE",
"105 722 CURVE",
"64 543 OFFCURVE",
"36 246 OFFCURVE",
"39 46 CURVE",
"73 14 OFFCURVE",
"238 -29 OFFCURVE",
"276 -18 CURVE"
);
}
);
width = 344;
}
);
leftKerningGroup = I;
leftMetricsKey = n;
rightKerningGroup = I;
rightMetricsKey = n;
unicode = 0049;
},
{
glyphname = J;
lastChange = "2018-01-05 19:43:23 +0000";
layers = (
{
layerId = "CF9497EE-3EC0-42B6-AB9D-60F0E4A560B4";
name = "Bold Italic";
paths = (
{
closed = 1;
nodes = (
"365 510 OFFCURVE",
"349 305 OFFCURVE",
"320 129 CURVE SMOOTH",
"310 70 OFFCURVE",
"245 78 OFFCURVE",
"246 133 CURVE SMOOTH",
"247 194 OFFCURVE",
"211 252 OFFCURVE",
"156 252 CURVE SMOOTH",
"96 252 OFFCURVE",
"30 214 OFFCURVE",
"30 149 CURVE SMOOTH",
"30 -80 OFFCURVE",
"521 -89 OFFCURVE",
"563 209 CURVE SMOOTH",
"581 337 OFFCURVE",
"598 492 OFFCURVE",
"614 666 CURVE",
"582 698 OFFCURVE",
"434 730 OFFCURVE",
"376 728 CURVE"
);
}
);
width = 612;
}
);
unicode = 004A;
},
{
glyphname = K;
lastChange = "2017-11-27 15:32:02 +0000";
layers = (
{
layerId = "CF9497EE-3EC0-42B6-AB9D-60F0E4A560B4";
name = "Bold Italic";
paths = (
{
closed = 1;
nodes = (
"561 -4 OFFCURVE",
"653 71 OFFCURVE",
"690 111 CURVE",
"649 170 OFFCURVE",
"577 279 OFFCURVE",
"515 326 CURVE",
"581 387 OFFCURVE",
"657 519 OFFCURVE",
"702 606 CURVE",
"664 649 OFFCURVE",
"573 701 OFFCURVE",
"513 719 CURVE",
"456 617 OFFCURVE",
"357 446 OFFCURVE",
"267 343 CURVE",
"350 264 OFFCURVE",
"449 88 OFFCURVE",
"496 -22 CURVE"
);
},
{
closed = 1;
nodes = (
"292 186 OFFCURVE",
"328 472 OFFCURVE",
"360 657 CURVE",
"326 692 OFFCURVE",
"168 721 OFFCURVE",
"107 719 CURVE",
"66 560 OFFCURVE",
"34 242 OFFCURVE",
"41 54 CURVE",
"100 1 OFFCURVE",
"231 -15 OFFCURVE",
"293 -15 CURVE"
);
}
);
width = 745;
}
);
unicode = 004B;
},
{
glyphname = L;
lastChange = "2017-12-10 17:19:53 +0000";
layers = (
{
layerId = "CF9497EE-3EC0-42B6-AB9D-60F0E4A560B4";
name = "Bold Italic";
paths = (
{
closed = 1;
nodes = (
"289 298 OFFCURVE",
"323 529 OFFCURVE",
"355 663 CURVE",
"306 696 OFFCURVE",
"175 723 OFFCURVE",
"117 722 CURVE",
"78 552 OFFCURVE",
"49 371 OFFCURVE",
"49 237 CURVE",
"83 205 OFFCURVE",
"248 162 OFFCURVE",
"286 173 CURVE"
);
},
{
closed = 1;
nodes = (
"223 -4 OFFCURVE",
"373 3 OFFCURVE",
"549 -2 CURVE",
"555 48 OFFCURVE",
"565 126 OFFCURVE",
"545 184 CURVE",
"382 207 OFFCURVE",
"177 207 OFFCURVE",
"34 189 CURVE",
"27 139 OFFCURVE",
"36 10 OFFCURVE",
"63 -21 CURVE"
);
}
);
width = 616;
}
);
leftKerningGroup = L;
rightKerningGroup = L;
unicode = 004C;
},
{
glyphname = Lslash;
lastChange = "2017-11-27 15:32:02 +0000";
layers = (
{
components = (
{
name = L;
transform = "{1, 0, 0, 1, 69, 0}";
}
);
layerId = "CF9497EE-3EC0-42B6-AB9D-60F0E4A560B4";
name = "Bold Italic";
paths = (
{
closed = 1;
nodes = (
"224 300 OFFCURVE",
"354 337 OFFCURVE",
"489 387 CURVE",
"494 430 OFFCURVE",
"491 475 OFFCURVE",
"477 515 CURVE",
"331 500 OFFCURVE",
"196 472 OFFCURVE",
"59 428 CURVE",
"55 375 OFFCURVE",
"67 321 OFFCURVE",
"84 270 CURVE"
);
}
);
width = 685;
}
);
leftKerningGroup = L;
rightKerningGroup = L;
unicode = 0141;
},
{
glyphname = M;
lastChange = "2018-01-02 13:38:07 +0000";
layers = (
{
layerId = "CF9497EE-3EC0-42B6-AB9D-60F0E4A560B4";
name = "Bold Italic";
paths = (
{
closed = 1;
nodes = (
"572 304 OFFCURVE",
"627 430 OFFCURVE",
"672 523 CURVE SMOOTH",
"743 669 OFFCURVE",
"660 710 OFFCURVE",
"643 722 CURVE",
"566 584 OFFCURVE",
"501 490 OFFCURVE",
"455 330 CURVE",
"407 429 OFFCURVE",
"377 530 OFFCURVE",
"343 663 CURVE",
"310 622 OFFCURVE",
"269 525 OFFCURVE",
"277 463 CURVE SMOOTH",
"291 358 OFFCURVE",
"312 293 OFFCURVE",
"363 188 CURVE",
"382 168 OFFCURVE",
"469 151 OFFCURVE",
"524 148 CURVE"
);
},
{
closed = 1;
nodes = (
"284 212 OFFCURVE",
"299 439 OFFCURVE",
"343 663 CURVE",
"310 696 OFFCURVE",
"163 723 OFFCURVE",
"105 722 CURVE",
"63 540 OFFCURVE",
"36 248 OFFCURVE",
"39 48 CURVE",
"72 16 OFFCURVE",
"238 -27 OFFCURVE",
"276 -16 CURVE"
);
},
{
closed = 1;
nodes = (
"822 213 OFFCURVE",
"837 440 OFFCURVE",
"882 664 CURVE",
"849 697 OFFCURVE",
"701 724 OFFCURVE",
"643 722 CURVE",
"602 543 OFFCURVE",
"574 249 OFFCURVE",
"577 49 CURVE",
"611 17 OFFCURVE",
"776 -26 OFFCURVE",
"814 -16 CURVE"
);
}
);
width = 882;
}
);
leftMetricsKey = n;
rightMetricsKey = n;
unicode = 004D;
},
{
glyphname = N;
lastChange = "2018-01-02 13:38:07 +0000";
layers = (
{
anchors = (
{
name = top;
position = "{402, 723}";
}
);
layerId = "CF9497EE-3EC0-42B6-AB9D-60F0E4A560B4";
name = "Bold Italic";
paths = (
{
closed = 1;
nodes = (
"284 209 OFFCURVE",
"299 440 OFFCURVE",
"344 664 CURVE",
"311 697 OFFCURVE",
"163 724 OFFCURVE",
"105 723 CURVE",
"63 541 OFFCURVE",
"36 245 OFFCURVE",
"39 45 CURVE",
"73 13 OFFCURVE",
"238 -30 OFFCURVE",
"276 -19 CURVE"
);
},
{
closed = 1;
nodes = (
"466 93 OFFCURVE",
"486 193 OFFCURVE",
"463 268 CURVE SMOOTH",
"430 377 OFFCURVE",
"378 532 OFFCURVE",
"344 664 CURVE",
"310 623 OFFCURVE",
"284 563 OFFCURVE",
"296 481 CURVE SMOOTH",
"319 326 OFFCURVE",
"363 216 OFFCURVE",
"437 46 CURVE"
);
},
{
closed = 1;
nodes = (
"682 210 OFFCURVE",
"697 441 OFFCURVE",
"741 665 CURVE",
"708 698 OFFCURVE",
"561 725 OFFCURVE",
"503 723 CURVE",
"461 544 OFFCURVE",
"434 246 OFFCURVE",
"437 46 CURVE",
"470 14 OFFCURVE",
"636 -29 OFFCURVE",
"674 -19 CURVE"
);
}
);
width = 742;
}
);
leftKerningGroup = N;
leftMetricsKey = n;
rightKerningGroup = N;
rightMetricsKey = n;
unicode = 004E;
},
{
glyphname = O;
lastChange = "2018-01-05 19:43:28 +0000";
layers = (
{
anchors = (
{
name = top;
position = "{404, 750}";
}
);
layerId = "CF9497EE-3EC0-42B6-AB9D-60F0E4A560B4";
name = "Bold Italic";
paths = (
{
closed = 1;
nodes = (
"529 -18 OFFCURVE",
"689 172 OFFCURVE",
"689 393 CURVE SMOOTH",
"689 611 OFFCURVE",
"592 723 OFFCURVE",
"404 723 CURVE SMOOTH",
"149 723 OFFCURVE",
"28 530 OFFCURVE",
"28 287 CURVE SMOOTH",
"28 120 OFFCURVE",
"136 -18 OFFCURVE",
"339 -18 CURVE SMOOTH"
);
},
{
closed = 1;
nodes = (
"323 215 OFFCURVE",
"297 253 OFFCURVE",
"297 315 CURVE SMOOTH",
"297 421 OFFCURVE",
"333 508 OFFCURVE",
"394 508 CURVE SMOOTH",
"440 508 OFFCURVE",
"466 453 OFFCURVE",
"467 397 CURVE SMOOTH",
"468 306 OFFCURVE",
"428 215 OFFCURVE",
"368 215 CURVE SMOOTH"
);
}
);
width = 696;
}
);
leftKerningGroup = O;
leftMetricsKey = o;
rightKerningGroup = O;
rightMetricsKey = o;
unicode = 004F;
},
{
glyphname = Oslash;
lastChange = "2017-12-23 12:46:57 +0000";
layers = (
{
anchors = (
{
name = top;
position = "{424, 750}";
}
);
components = (
{
name = slash;
transform = "{1, 0, 0, 1, 133, 54}";
}
);
layerId = "CF9497EE-3EC0-42B6-AB9D-60F0E4A560B4";
name = "Bold Italic";
paths = (
{
closed = 1;
nodes = (
"169 723 OFFCURVE",
"48 530 OFFCURVE",
"48 287 CURVE SMOOTH",
"48 120 OFFCURVE",
"156 -18 OFFCURVE",
"359 -18 CURVE SMOOTH",
"549 -18 OFFCURVE",
"709 172 OFFCURVE",
"709 393 CURVE SMOOTH",
"709 611 OFFCURVE",
"612 723 OFFCURVE",
"424 723 CURVE SMOOTH"
);
},
{
closed = 1;
nodes = (
"283 113 OFFCURVE",
"239 175 OFFCURVE",
"239 278 CURVE SMOOTH",
"239 455 OFFCURVE",
"298 598 OFFCURVE",
"399 598 CURVE SMOOTH",
"475 598 OFFCURVE",
"519 506 OFFCURVE",
"520 413 CURVE SMOOTH",
"522 233 OFFCURVE",
"471 113 OFFCURVE",
"357 113 CURVE SMOOTH"
);
}
);
width = 736;
}
);
leftKerningGroup = O;
rightKerningGroup = O;
unicode = 00D8;
},
{
glyphname = P;
lastChange = "2018-01-02 13:38:07 +0000";
layers = (
{
layerId = "CF9497EE-3EC0-42B6-AB9D-60F0E4A560B4";
name = "Bold Italic";
paths = (
{
closed = 1;
nodes = (
"699 213 OFFCURVE",
"709 725 OFFCURVE",
"381 725 CURVE SMOOTH",
"262 725 OFFCURVE",
"152 710 OFFCURVE",
"86 690 CURVE",
"86 640 OFFCURVE",
"105 545 OFFCURVE",
"125 494 CURVE",
"182 528 OFFCURVE",
"242 546 OFFCURVE",
"303 546 CURVE SMOOTH",
"431 546 OFFCURVE",
"419 361 OFFCURVE",
"297 361 CURVE SMOOTH",
"225 361 OFFCURVE",
"235 233 OFFCURVE",
"270 231 CURVE SMOOTH"
);
},
{
closed = 1;
nodes = (
"279 114 OFFCURVE",
"293 371 OFFCURVE",
"316 498 CURVE",
"283 531 OFFCURVE",
"138 558 OFFCURVE",
"80 557 CURVE",
"52 386 OFFCURVE",
"45 201 OFFCURVE",
"45 44 CURVE",
"79 12 OFFCURVE",
"217 -31 OFFCURVE",
"282 -20 CURVE"
);
}
);
width = 606;
}
);
leftMetricsKey = n;
rightMetricsKey = o;
unicode = 0050;
},
{
glyphname = Thorn;
lastChange = "2017-11-27 15:32:02 +0000";
layers = (
{
layerId = "CF9497EE-3EC0-42B6-AB9D-60F0E4A560B4";
name = "Bold Italic";
paths = (
{
closed = 1;
nodes = (
"689 90 OFFCURVE",
"699 602 OFFCURVE",
"371 602 CURVE SMOOTH",
"252 602 OFFCURVE",
"142 587 OFFCURVE",
"76 567 CURVE",
"76 517 OFFCURVE",
"77 453 OFFCURVE",
"97 402 CURVE",
"159 419 OFFCURVE",
"303 409 OFFCURVE",
"340 406 CURVE SMOOTH",
"423 397 OFFCURVE",
"409 238 OFFCURVE",
"287 238 CURVE SMOOTH",
"215 238 OFFCURVE",
"225 110 OFFCURVE",
"260 108 CURVE SMOOTH"
);
},
{
closed = 1;
nodes = (
"280 116 OFFCURVE",
"306 537 OFFCURVE",
"329 664 CURVE",
"296 697 OFFCURVE",
"151 724 OFFCURVE",
"93 723 CURVE",
"65 552 OFFCURVE",
"46 203 OFFCURVE",
"46 46 CURVE",
"80 14 OFFCURVE",
"225 -18 OFFCURVE",
"283 -18 CURVE"
);
}
);
width = 629;
}
);
unicode = 00DE;
},
{
glyphname = Q;
lastChange = "2018-01-05 19:17:19 +0000";
layers = (
{
components = (
{
name = O;
}
);
layerId = "CF9497EE-3EC0-42B6-AB9D-60F0E4A560B4";
name = "Bold Italic";
paths = (
{
closed = 1;
nodes = (
"597 -31 OFFCURVE",
"679 41 OFFCURVE",
"704 80 CURVE",
"597 167 OFFCURVE",
"519 239 OFFCURVE",
"448 336 CURVE",
"412 315 OFFCURVE",
"399 304 OFFCURVE",
"369 278 CURVE",
"417 165 OFFCURVE",
"486 46 OFFCURVE",
"561 -47 CURVE"
);
}
);
width = 762;
}
);
unicode = 0051;
},
{
glyphname = R;
lastChange = "2018-01-05 19:43:37 +0000";
layers = (
{
layerId = "CF9497EE-3EC0-42B6-AB9D-60F0E4A560B4";
name = "Bold Italic";
paths = (
{
closed = 1;
nodes = (
"499 222 OFFCURVE",
"624 353 OFFCURVE",
"624 483 CURVE SMOOTH",
"624 689 OFFCURVE",
"407 790 OFFCURVE",
"85 681 CURVE",
"85 622 OFFCURVE",
"104 534 OFFCURVE",
"129 483 CURVE",
"268 559 OFFCURVE",
"400 543 OFFCURVE",
"400 445 CURVE SMOOTH",
"400 383 OFFCURVE",
"358 355 OFFCURVE",
"283 355 CURVE SMOOTH",
"212 355 OFFCURVE",
"234 233 OFFCURVE",
"268 232 CURVE SMOOTH"
);
},
{
closed = 1;
nodes = (
"281 174 OFFCURVE",
"293 339 OFFCURVE",
"324 500 CURVE",
"291 533 OFFCURVE",
"144 560 OFFCURVE",
"86 559 CURVE",
"57 398 OFFCURVE",
"41 212 OFFCURVE",
"44 43 CURVE",
"77 11 OFFCURVE",
"206 -21 OFFCURVE",
"281 -21 CURVE"
);
},
{
closed = 1;
nodes = (
"561 -9 OFFCURVE",
"640 49 OFFCURVE",
"682 92 CURVE",
"622 138 OFFCURVE",
"541 239 OFFCURVE",
"492 324 CURVE",
"308 272 LINE",
"364 159 OFFCURVE",
"425 55 OFFCURVE",
"492 -35 CURVE"
);
}
);
width = 739;
}
);
unicode = 0052;
},
{
glyphname = S;
lastChange = "2018-01-05 19:17:42 +0000";
layers = (
{
anchors = (
{
name = top;
position = "{374, 750}";
}
);
layerId = "CF9497EE-3EC0-42B6-AB9D-60F0E4A560B4";
name = "Bold Italic";
paths = (
{
closed = 1;
nodes = (
"88 282 OFFCURVE",
"346 286 OFFCURVE",
"346 200 CURVE SMOOTH",
"346 132 OFFCURVE",
"211 175 OFFCURVE",
"84 250 CURVE",
"49 206 OFFCURVE",
"20 171 OFFCURVE",
"7 128 CURVE",
"144 -72 OFFCURVE",
"617 -85 OFFCURVE",
"617 197 CURVE SMOOTH",
"617 356 OFFCURVE",
"350 360 OFFCURVE",
"350 497 CURVE SMOOTH",
"350 578 OFFCURVE",
"454 567 OFFCURVE",
"469 478 CURVE SMOOTH",
"486 373 OFFCURVE",
"668 387 OFFCURVE",
"668 501 CURVE SMOOTH",
"668 834 OFFCURVE",
"88 763 OFFCURVE",
"88 490 CURVE SMOOTH"
);
}
);
width = 662;
}
);
leftKerningGroup = S;
leftMetricsKey = o;
rightKerningGroup = S;
rightMetricsKey = o;
unicode = 0053;
},
{
glyphname = T;
lastChange = "2018-01-05 19:41:56 +0000";
layers = (
{
layerId = "CF9497EE-3EC0-42B6-AB9D-60F0E4A560B4";
name = "Bold Italic";
paths = (
{
closed = 1;
nodes = (
"457 128 OFFCURVE",
"470 348 OFFCURVE",
"492 491 CURVE",
"454 521 OFFCURVE",
"314 551 OFFCURVE",
"256 550 CURVE SMOOTH",
"232 407 OFFCURVE",
"214 205 OFFCURVE",
"217 48 CURVE",
"251 16 OFFCURVE",
"416 -27 OFFCURVE",
"454 -16 CURVE"
);
},
{
closed = 1;
nodes = (
"290 533 OFFCURVE",
"463 543 OFFCURVE",
"681 523 CURVE",
"688 573 OFFCURVE",
"691 645 OFFCURVE",
"676 709 CURVE",
"472 733 OFFCURVE",
"238 742 OFFCURVE",
"60 724 CURVE",
"51 675 OFFCURVE",
"70 561 OFFCURVE",
"97 514 CURVE"
);
}
);
width = 663;
}
);
leftMetricsKey = x;
rightMetricsKey = x;
unicode = 0054;
},
{
glyphname = U;
lastChange = "2018-01-05 19:34:03 +0000";
layers = (
{
anchors = (
{
name = top;
position = "{428, 750}";
}
);
layerId = "CF9497EE-3EC0-42B6-AB9D-60F0E4A560B4";
name = "Bold Italic";
paths = (
{
closed = 1;
nodes = (
"427 73 OFFCURVE",
"305 68 OFFCURVE",
"310 171 CURVE SMOOTH",
"319 328 OFFCURVE",
"331 476 OFFCURVE",
"368 665 CURVE",
"307 697 OFFCURVE",
"180 721 OFFCURVE",
"108 723 CURVE",
"67 542 OFFCURVE",
"47 367 OFFCURVE",
"47 202 CURVE SMOOTH",
"47 -73 OFFCURVE",
"628 -104 OFFCURVE",
"683 178 CURVE SMOOTH",
"715 341 OFFCURVE",
"724 438 OFFCURVE",
"744 655 CURVE",
"710 680 OFFCURVE",
"564 725 OFFCURVE",
"506 724 CURVE",
"487 522 OFFCURVE",
"475 367 OFFCURVE",
"444 178 CURVE SMOOTH"
);
}
);
width = 743;
}
);
leftKerningGroup = U;
rightKerningGroup = U;
unicode = 0055;
},
{
glyphname = V;
lastChange = "2018-01-05 19:43:41 +0000";
layers = (
{
layerId = "CF9497EE-3EC0-42B6-AB9D-60F0E4A560B4";
name = "Bold Italic";
paths = (
{
closed = 1;
nodes = (
"377 -22 OFFCURVE",
"505 -19 OFFCURVE",
"575 9 CURVE",
"493 181 OFFCURVE",
"375 553 OFFCURVE",
"328 725 CURVE",
"265 728 OFFCURVE",
"138 703 OFFCURVE",
"85 676 CURVE",
"131 453 OFFCURVE",
"215 157 OFFCURVE",
"296 -17 CURVE"
);
},
{
closed = 1;
nodes = (
"630 215 OFFCURVE",
"711 424 OFFCURVE",
"819 614 CURVE",
"771 656 OFFCURVE",
"678 704 OFFCURVE",
"609 726 CURVE",
"515 533 OFFCURVE",
"450 294 OFFCURVE",
"411 89 CURVE",
"450 42 OFFCURVE",
"519 28 OFFCURVE",
"575 9 CURVE"
);
}
);
width = 821;
}
);
leftKerningGroup = V;
rightKerningGroup = V;
unicode = 0056;
},
{
glyphname = W;
lastChange = "2018-01-05 19:41:32 +0000";
layers = (
{
layerId = "CF9497EE-3EC0-42B6-AB9D-60F0E4A560B4";
name = "Bold Italic";
paths = (
{
closed = 1;
nodes = (
"402 -21 OFFCURVE",
"505 0 OFFCURVE",
"575 28 CURVE",
"472 241 OFFCURVE",
"379 511 OFFCURVE",
"328 724 CURVE",
"265 727 OFFCURVE",
"138 705 OFFCURVE",
"85 678 CURVE",
"131 455 OFFCURVE",
"229 152 OFFCURVE",
"310 -22 CURVE"
);
},
{
closed = 1;
nodes = (
"585 173 OFFCURVE",
"620 320 OFFCURVE",
"692 428 CURVE",
"632 468 OFFCURVE",
"575 494 OFFCURVE",
"520 514 CURVE",
"481 354 OFFCURVE",
"462 229 OFFCURVE",
"462 76 CURVE",
"504 36 OFFCURVE",
"520 48 OFFCURVE",
"575 28 CURVE"
);
},
{
closed = 1;
nodes = (
"801 -18 OFFCURVE",
"898 0 OFFCURVE",
"969 28 CURVE",
"887 200 OFFCURVE",
"802 402 OFFCURVE",
"755 574 CURVE",
"691 578 OFFCURVE",
"572 541 OFFCURVE",
"520 514 CURVE",
"565 291 OFFCURVE",
"623 152 OFFCURVE",
"704 -22 CURVE"
);
},
{
closed = 1;
nodes = (
"1015 224 OFFCURVE",
"1097 424 OFFCURVE",
"1213 614 CURVE",
"1167 665 OFFCURVE",
"1059 708 OFFCURVE",
"1003 726 CURVE",
"917 515 OFFCURVE",
"854 327 OFFCURVE",
"819 100 CURVE",
"867 62 OFFCURVE",
"913 47 OFFCURVE",
"969 28 CURVE"
);
}
);
width = 1215;
}
);
leftKerningGroup = V;
rightKerningGroup = V;
unicode = 0057;
},
{
glyphname = X;
lastChange = "2018-01-05 19:35:27 +0000";
layers = (
{
layerId = "CF9497EE-3EC0-42B6-AB9D-60F0E4A560B4";
name = "Bold Italic";
paths = (
{
closed = 1;
nodes = (
"588 -15 OFFCURVE",
"691 28 OFFCURVE",
"738 66 CURVE",
"609 221 OFFCURVE",
"384 563 OFFCURVE",
"291 735 CURVE",
"210 723 OFFCURVE",
"107 688 OFFCURVE",
"51 642 CURVE",
"172 417 OFFCURVE",
"403 121 OFFCURVE",
"523 -25 CURVE"
);
},
{
closed = 1;
nodes = (
"299 106 OFFCURVE",
"623 417 OFFCURVE",
"777 603 CURVE",
"738 631 OFFCURVE",
"645 697 OFFCURVE",
"575 731 CURVE",
"420 535 OFFCURVE",
"154 236 OFFCURVE",
"4 88 CURVE",
"55 41 OFFCURVE",
"107 -1 OFFCURVE",
"164 -28 CURVE"
);
}
);
width = 767;
}
);
leftMetricsKey = x;
rightMetricsKey = x;
unicode = 0058;
},
{
glyphname = Y;
lastChange = "2018-01-05 19:43:35 +0000";
layers = (
{
anchors = (
{
name = top;
position = "{424, 750}";
}
);
layerId = "CF9497EE-3EC0-42B6-AB9D-60F0E4A560B4";
name = "Bold Italic";
paths = (
{
closed = 1;
nodes = (
"356 315 OFFCURVE",
"424 337 OFFCURVE",
"491 373 CURVE",
"427 456 OFFCURVE",
"341 635 OFFCURVE",
"308 728 CURVE",
"250 713 OFFCURVE",
"130 664 OFFCURVE",
"80 635 CURVE",
"117 495 OFFCURVE",
"190 388 OFFCURVE",
"282 297 CURVE"
);
},
{
closed = 1;
nodes = (
"489 119 OFFCURVE",
"496 232 OFFCURVE",
"531 367 CURVE",
"497 388 OFFCURVE",
"349 411 OFFCURVE",
"291 412 CURVE",
"257 303 OFFCURVE",
"240 151 OFFCURVE",
"252 29 CURVE",
"286 8 OFFCURVE",
"453 -25 OFFCURVE",
"490 -20 CURVE"
);
},
{
closed = 1;
nodes = (
"564 398 OFFCURVE",
"643 484 OFFCURVE",
"757 562 CURVE",
"709 625 OFFCURVE",
"623 696 OFFCURVE",
"574 728 CURVE",
"488 625 OFFCURVE",
"427 479 OFFCURVE",
"390 354 CURVE",
"423 308 OFFCURVE",
"460 297 OFFCURVE",
"509 264 CURVE"
);
}
);
width = 764;
}
);
leftKerningGroup = Y;
rightKerningGroup = Y;
unicode = 0059;
},
{
glyphname = Z;
lastChange = "2018-01-05 19:35:38 +0000";
layers = (
{
anchors = (
{
name = top;
position = "{425, 750}";
}
);
layerId = "CF9497EE-3EC0-42B6-AB9D-60F0E4A560B4";
name = "Bold Italic";
paths = (
{
closed = 1;
nodes = (
"407 291 OFFCURVE",
"533 388 OFFCURVE",
"733 530 CURVE",
"683 548 OFFCURVE",
"569 563 OFFCURVE",
"512 540 CURVE SMOOTH",
"360 478 OFFCURVE",
"178 315 OFFCURVE",
"41 180 CURVE",
"96 169 OFFCURVE",
"259 137 OFFCURVE",
"302 177 CURVE"
);
},
{
closed = 1;
nodes = (
"284 -21 OFFCURVE",
"466 8 OFFCURVE",
"684 -12 CURVE",
"691 38 OFFCURVE",
"704 116 OFFCURVE",
"679 174 CURVE",
"475 198 OFFCURVE",
"219 198 OFFCURVE",
"41 180 CURVE",
"32 131 OFFCURVE",
"44 1 OFFCURVE",
"78 -30 CURVE"
);
},
{
closed = 1;
nodes = (
"333 520 OFFCURVE",
"515 550 OFFCURVE",
"733 530 CURVE",
"741 580 OFFCURVE",
"754 657 OFFCURVE",
"729 716 CURVE",
"525 740 OFFCURVE",
"269 740 OFFCURVE",
"90 722 CURVE",
"81 672 OFFCURVE",
"93 543 OFFCURVE",
"127 512 CURVE"
);
}
);
width = 753;
}
);
leftKerningGroup = Z;
rightKerningGroup = Z;
unicode = 005A;
},
{
glyphname = a;
lastChange = "2018-01-05 19:30:34 +0000";
layers = (
{
anchors = (
{
name = top;
position = "{348, 526}";
}
);
layerId = "CF9497EE-3EC0-42B6-AB9D-60F0E4A560B4";
name = "Bold Italic";
paths = (
{
closed = 1;
nodes = (
"371 195 OFFCURVE",
"357 215 OFFCURVE",
"348 227 CURVE",
"345 104 OFFCURVE",
"230 111 OFFCURVE",
"233 232 CURVE SMOOTH",
"236 369 OFFCURVE",
"354 358 OFFCURVE",
"348 227 CURVE SMOOTH",
"338 -28 OFFCURVE",
"405 212 OFFCURVE",
"405 386 CURVE SMOOTH",
"405 588 OFFCURVE",
"19 599 OFFCURVE",
"19 215 CURVE SMOOTH",
"19 -65 OFFCURVE",
"388 -97 OFFCURVE",
"388 164 CURVE"
);
},
{
closed = 1;
nodes = (
"559 156 OFFCURVE",
"582 312 OFFCURVE",
"615 469 CURVE",
"565 497 OFFCURVE",
"461 522 OFFCURVE",
"396 522 CURVE",
"361 385 OFFCURVE",
"336 176 OFFCURVE",
"343 14 CURVE",
"401 -24 OFFCURVE",
"506 -18 OFFCURVE",
"560 -18 CURVE"
);
}
);
width = 632;
}
);
leftKerningGroup = a;
leftMetricsKey = o;
rightMetricsKey = n;
unicode = 0061;
},
{
glyphname = b;
lastChange = "2018-01-02 13:38:07 +0000";
layers = (
{
layerId = "CF9497EE-3EC0-42B6-AB9D-60F0E4A560B4";
name = "Bold Italic";
paths = (
{
closed = 1;
nodes = (
"301 545 OFFCURVE",
"316 627 OFFCURVE",
"333 718 CURVE",
"290 750 OFFCURVE",
"168 773 OFFCURVE",
"114 771 CURVE",
"73 570 OFFCURVE",
"48 424 OFFCURVE",
"48 186 CURVE SMOOTH",
"48 -120 OFFCURVE",
"602 -103 OFFCURVE",
"602 313 CURVE SMOOTH",
"602 471 OFFCURVE",
"428 594 OFFCURVE",
"290 463 CURVE"
);
},
{
closed = 1;
nodes = (
"275 106 OFFCURVE",
"275 242 CURVE SMOOTH",
"275 392 OFFCURVE",
"415 408 OFFCURVE",
"415 267 CURVE SMOOTH",
"415 119 OFFCURVE"
);
}
);
width = 618;
}
);
leftMetricsKey = n;
rightMetricsKey = o;
unicode = 0062;
},
{
glyphname = c;
lastChange = "2018-01-05 19:20:28 +0000";
layers = (
{
anchors = (
{
name = bottom;
position = "{257, 0}";
}
);
layerId = "CF9497EE-3EC0-42B6-AB9D-60F0E4A560B4";
name = "Bold Italic";
paths = (
{
closed = 1;
nodes = (
"334 -104 OFFCURVE",
"488 92 CURVE",
"476 124 OFFCURVE",
"461 153 OFFCURVE",
"439 185 CURVE",
"347 129 OFFCURVE",
"257 153 OFFCURVE",
"257 252 CURVE SMOOTH",
"257 368 OFFCURVE",
"341 370 OFFCURVE",
"351 329 CURVE SMOOTH",
"370 250 OFFCURVE",
"499 284 OFFCURVE",
"499 376 CURVE SMOOTH",
"499 594 OFFCURVE",
"18 579 OFFCURVE",
"18 213 CURVE SMOOTH",
"18 -38 OFFCURVE"
);
}
);
width = 525;
}
);
leftKerningGroup = c;
leftMetricsKey = o;
rightKerningGroup = c;
rightMetricsKey = o;
unicode = 0063;
},
{
glyphname = d;
lastChange = "2018-01-05 19:24:01 +0000";
layers = (
{
layerId = "CF9497EE-3EC0-42B6-AB9D-60F0E4A560B4";
name = "Bold Italic";
paths = (
{
closed = 1;
nodes = (
"344 555 OFFCURVE",
"328 266 OFFCURVE",
"324 36 CURVE",
"384 0 OFFCURVE",
"484 -18 OFFCURVE",
"538 -18 CURVE",
"537 226 OFFCURVE",
"580 494 OFFCURVE",
"615 720 CURVE",
"576 750 OFFCURVE",
"450 775 OFFCURVE",
"396 773 CURVE"
);
},
{
closed = 1;
nodes = (
"370 -106 OFFCURVE",
"370 166 CURVE",
"353 197 OFFCURVE",
"339 221 OFFCURVE",
"330 233 CURVE",
"324 150 OFFCURVE",
"217 144 OFFCURVE",
"219 231 CURVE SMOOTH",
"222 350 OFFCURVE",
"335 335 OFFCURVE",
"330 233 CURVE SMOOTH",
"329 208 OFFCURVE",
"357 285 OFFCURVE",
"388 281 CURVE SMOOTH",
"420 278 OFFCURVE",
"387 341 OFFCURVE",
"387 388 CURVE SMOOTH",
"387 595 OFFCURVE",
"17 561 OFFCURVE",
"17 198 CURVE SMOOTH",
"17 -74 OFFCURVE"
);
}
);
width = 606;
}
);
leftMetricsKey = o;
rightMetricsKey = n;
unicode = 0064;
},
{
glyphname = eth;
lastChange = "2017-11-27 15:32:02 +0000";
layers = (
{
layerId = "CF9497EE-3EC0-42B6-AB9D-60F0E4A560B4";
name = "Bold Italic";
paths = (
{
closed = 1;
nodes = (
"608 -18 OFFCURVE",
"784 639 OFFCURVE",
"241 773 CURVE",
"207 771 OFFCURVE",
"144 764 OFFCURVE",
"118 750 CURVE",
"506 585 OFFCURVE",
"404 152 OFFCURVE",
"286 152 CURVE SMOOTH",
"193 152 OFFCURVE",
"230 358 OFFCURVE",
"316 358 CURVE SMOOTH",
"360 358 OFFCURVE",
"393 331 OFFCURVE",
"406 286 CURVE",
"426 315 OFFCURVE",
"409 371 OFFCURVE",
"417 406 CURVE",
"399 458 OFFCURVE",
"346 500 OFFCURVE",
"285 500 CURVE SMOOTH",
"-9 500 OFFCURVE",
"-67 -18 OFFCURVE",
"257 -18 CURVE SMOOTH"
);
},
{
closed = 1;
nodes = (
"336 570 OFFCURVE",
"478 644 OFFCURVE",
"574 710 CURVE",
"558 735 OFFCURVE",
"536 754 OFFCURVE",
"504 770 CURVE",
"380 729 OFFCURVE",
"222 661 OFFCURVE",
"110 592 CURVE",
"139 563 OFFCURVE",
"176 539 OFFCURVE",
"220 525 CURVE"
);
}
);
width = 616;
}
);
unicode = 00F0;
},
{
glyphname = e;
lastChange = "2018-01-05 19:25:55 +0000";
layers = (
{
anchors = (
{
name = top;
position = "{308, 523}";
}
);
layerId = "CF9497EE-3EC0-42B6-AB9D-60F0E4A560B4";
name = "Bold Italic";
paths = (
{
closed = 1;
nodes = (
"339 -98 OFFCURVE",
"503 79 CURVE",
"487 108 OFFCURVE",
"460 145 OFFCURVE",
"445 166 CURVE",
"342 87 OFFCURVE",
"245 100 OFFCURVE",
"245 219 CURVE",
"245 337 OFFCURVE",
"348 400 OFFCURVE",
"348 334 CURVE SMOOTH",
"348 305 OFFCURVE",
"313 262 OFFCURVE",
"233 262 CURVE",
"232 245 OFFCURVE",
"228 224 OFFCURVE",
"228 204 CURVE SMOOTH",
"228 192 OFFCURVE",
"230 180 OFFCURVE",
"236 171 CURVE SMOOTH",
"385 171 OFFCURVE",
"486 246 OFFCURVE",
"486 356 CURVE SMOOTH",
"486 607 OFFCURVE",
"19 580 OFFCURVE",
"19 215 CURVE SMOOTH",
"19 -33 OFFCURVE"
);
}
);
width = 541;
}
);
leftKerningGroup = e;
leftMetricsKey = o;
rightKerningGroup = e;
rightMetricsKey = o;
unicode = 0065;
},
{
glyphname = f;
lastChange = "2018-01-05 19:38:30 +0000";
layers = (
{
layerId = "CF9497EE-3EC0-42B6-AB9D-60F0E4A560B4";
name = "Bold Italic";
paths = (
{
closed = 1;
nodes = (
"206 358 OFFCURVE",
"276 359 OFFCURVE",
"457 346 CURVE",
"463 389 OFFCURVE",
"461 445 OFFCURVE",
"438 521 CURVE",
"272 537 OFFCURVE",
"190 537 OFFCURVE",
"39 521 CURVE",
"31 478 OFFCURVE",
"39 377 OFFCURVE",
"64 341 CURVE"
);
},
{
closed = 1;
nodes = (
"558 731 OFFCURVE",
"492 773 OFFCURVE",
"385 773 CURVE SMOOTH",
"236 773 OFFCURVE",
"158 706 OFFCURVE",
"133 525 CURVE SMOOTH",
"108 344 OFFCURVE",
"101 184 OFFCURVE",
"95 41 CURVE",
"145 -4 OFFCURVE",
"259 -18 OFFCURVE",
"312 -18 CURVE",
"315 223 OFFCURVE",
"336 469 OFFCURVE",
"346 566 CURVE SMOOTH",
"351 614 OFFCURVE",
"384 614 OFFCURVE",
"392 591 CURVE SMOOTH",
"405 553 OFFCURVE",
"422 533 OFFCURVE",
"460 533 CURVE SMOOTH",
"539 533 OFFCURVE",
"558 582 OFFCURVE",
"558 635 CURVE SMOOTH"
);
}
);
width = 529;
}
);
leftMetricsKey = x;
rightMetricsKey = x;
unicode = 0066;
},
{
glyphname = g;
lastChange = "2018-01-05 19:27:52 +0000";
layers = (
{
layerId = "CF9497EE-3EC0-42B6-AB9D-60F0E4A560B4";
name = "Bold Italic";
paths = (
{
closed = 1;
nodes = (
"332 -114 OFFCURVE",
"368 165 CURVE",
"351 196 OFFCURVE",
"332 224 OFFCURVE",
"323 236 CURVE",
"313 104 OFFCURVE",
"211 117 OFFCURVE",
"213 224 CURVE SMOOTH",
"216 362 OFFCURVE",
"325 335 OFFCURVE",
"323 236 CURVE SMOOTH",
"322 211 OFFCURVE",
"341 228 OFFCURVE",
"372 224 CURVE SMOOTH",
"404 221 OFFCURVE",
"381 207 OFFCURVE",
"384 254 CURVE SMOOTH",
"412 633 OFFCURVE",
"19 609 OFFCURVE",
"19 215 CURVE SMOOTH",
"19 -71 OFFCURVE"
);
},
{
closed = 1;
nodes = (
"332 265 OFFCURVE",
"326 -139 OFFCURVE",
"217 -139 CURVE SMOOTH",
"149 -139 OFFCURVE",
"194 -43 OFFCURVE",
"108 -43 CURVE SMOOTH",
"51 -43 OFFCURVE",
"14 -85 OFFCURVE",
"14 -133 CURVE SMOOTH",
"14 -344 OFFCURVE",
"449 -306 OFFCURVE",
"494 -43 CURVE SMOOTH",
"518 93 OFFCURVE",
"535 260 OFFCURVE",
"553 470 CURVE",
"494 510 OFFCURVE",
"397 524 OFFCURVE",
"334 524 CURVE"
);
}
);
width = 573;
}
);
leftMetricsKey = o;
rightMetricsKey = n;
unicode = 0067;
},
{
glyphname = h;
lastChange = "2018-01-02 13:38:07 +0000";
layers = (
{
layerId = "CF9497EE-3EC0-42B6-AB9D-60F0E4A560B4";
name = "Bold Italic";
paths = (
{
closed = 1;
nodes = (
"256 229 OFFCURVE",
"295 494 OFFCURVE",
"330 719 CURVE",
"300 749 OFFCURVE",
"165 774 OFFCURVE",
"112 773 CURVE",
"60 555 OFFCURVE",
"43 274 OFFCURVE",
"39 43 CURVE",
"88 0 OFFCURVE",
"201 -14 OFFCURVE",
"256 -16 CURVE"
);
},
{
closed = 1;
nodes = (
"285 164 OFFCURVE",
"364 350 OFFCURVE",
"439 413 CURVE SMOOTH",
"483 451 OFFCURVE",
"466 476 OFFCURVE",
"437 524 CURVE",
"354 486 OFFCURVE",
"285 382 OFFCURVE",
"260 252 CURVE SMOOTH",
"249 190 OFFCURVE",
"224 28 OFFCURVE",
"258 -13 CURVE"
);
},
{
closed = 1;
nodes = (
"610 153 OFFCURVE",
"627 331 OFFCURVE",
"655 470 CURVE",
"615 501 OFFCURVE",
"490 525 OFFCURVE",
"437 524 CURVE",
"402 387 OFFCURVE",
"385 203 OFFCURVE",
"391 41 CURVE",
"442 -4 OFFCURVE",
"555 -18 OFFCURVE",
"609 -18 CURVE"
);
}
);
width = 677;
}
);
leftMetricsKey = n;
rightMetricsKey = n;
unicode = 0068;
},
{
glyphname = idotless;
lastChange = "2018-01-02 13:38:07 +0000";
layers = (
{
anchors = (
{
name = top;
position = "{187, 523}";
}
);
layerId = "CF9497EE-3EC0-42B6-AB9D-60F0E4A560B4";
name = "Bold Italic";
paths = (
{
closed = 1;
nodes = (
"252 153 OFFCURVE",
"269 329 OFFCURVE",
"297 468 CURVE",
"257 499 OFFCURVE",
"132 523 OFFCURVE",
"79 522 CURVE",
"48 379 OFFCURVE",
"33 203 OFFCURVE",
"33 41 CURVE",
"84 -4 OFFCURVE",
"197 -18 OFFCURVE",
"250 -18 CURVE"
);
}
);
width = 318;
}
);
leftKerningGroup = i;
leftMetricsKey = n;
rightKerningGroup = i;
rightMetricsKey = n;
unicode = 0131;
},
{
glyphname = jdotless;
lastChange = "2018-01-02 13:38:07 +0000";
layers = (
{
anchors = (
{
name = top;
position = "{180, 517}";
}
);
layerId = "CF9497EE-3EC0-42B6-AB9D-60F0E4A560B4";
name = "Bold Italic";
paths = (
{
closed = 1;
nodes = (
"57 236 OFFCURVE",
"54 -90 OFFCURVE",
"-63 -119 CURVE",
"-59 -162 OFFCURVE",
"-50 -210 OFFCURVE",
"-29 -242 CURVE",
"189 -214 OFFCURVE",
"260 -83 OFFCURVE",
"305 468 CURVE",
"240 504 OFFCURVE",
"117 517 OFFCURVE",
"54 517 CURVE"
);
}
);
width = 324;
}
);
rightMetricsKey = n;
unicode = 0237;
},
{
glyphname = k;
lastChange = "2018-01-02 13:38:07 +0000";
layers = (
{
layerId = "CF9497EE-3EC0-42B6-AB9D-60F0E4A560B4";
name = "Bold Italic";
paths = (
{
closed = 1;
nodes = (
"255 227 OFFCURVE",
"296 494 OFFCURVE",
"332 720 CURVE",
"302 750 OFFCURVE",
"166 775 OFFCURVE",
"113 773 CURVE",
"61 555 OFFCURVE",
"42 272 OFFCURVE",
"38 42 CURVE",
"89 -3 OFFCURVE",
"202 -17 OFFCURVE",
"255 -17 CURVE"
);
},
{
closed = 1;
nodes = (
"489 -2 OFFCURVE",
"568 52 OFFCURVE",
"600 87 CURVE",
"564 138 OFFCURVE",
"502 207 OFFCURVE",
"448 248 CURVE",
"498 288 OFFCURVE",
"546 339 OFFCURVE",
"586 403 CURVE",
"553 440 OFFCURVE",
"490 491 OFFCURVE",
"438 507 CURVE",
"389 436 OFFCURVE",
"302 323 OFFCURVE",
"231 250 CURVE",
"303 182 OFFCURVE",
"382 63 OFFCURVE",
"432 -18 CURVE"
);
}
);
width = 627;
}
);
leftMetricsKey = n;
rightMetricsKey = x;
unicode = 006B;
},
{
glyphname = l;
lastChange = "2018-01-02 13:38:07 +0000";
layers = (
{
layerId = "CF9497EE-3EC0-42B6-AB9D-60F0E4A560B4";
name = "Bold Italic";
paths = (
{
closed = 1;
nodes = (
"266 226 OFFCURVE",
"292 494 OFFCURVE",
"333 720 CURVE",
"303 750 OFFCURVE",
"161 775 OFFCURVE",
"108 773 CURVE",
"65 546 OFFCURVE",
"38 271 OFFCURVE",
"34 41 CURVE",
"84 -4 OFFCURVE",
"205 -18 OFFCURVE",
"258 -18 CURVE"
);
}
);
width = 326;
}
);
leftMetricsKey = n;
rightMetricsKey = n;
unicode = 006C;
},
{
glyphname = lslash;
lastChange = "2017-11-27 15:32:02 +0000";
layers = (
{
components = (
{
name = l;
transform = "{1, 0, 0, 1, 78, 0}";
}
);
layerId = "CF9497EE-3EC0-42B6-AB9D-60F0E4A560B4";
name = "Bold Italic";
paths = (
{
closed = 1;
nodes = (
"200 256 OFFCURVE",
"338 288 OFFCURVE",
"469 329 CURVE",
"467 378 OFFCURVE",
"460 414 OFFCURVE",
"446 462 CURVE",
"301 428 OFFCURVE",
"176 390 OFFCURVE",
"50 348 CURVE",
"50 306 OFFCURVE",
"55 270 OFFCURVE",
"66 231 CURVE"
);
}
);
width = 501;
}
);
unicode = 0142;
},
{
glyphname = m;
lastChange = "2018-01-05 19:28:16 +0000";
layers = (
{
layerId = "CF9497EE-3EC0-42B6-AB9D-60F0E4A560B4";
name = "Bold Italic";
paths = (
{
closed = 1;
nodes = (
"592 154 OFFCURVE",
"619 331 OFFCURVE",
"648 470 CURVE",
"608 501 OFFCURVE",
"482 525 OFFCURVE",
"429 524 CURVE",
"394 387 OFFCURVE",
"367 201 OFFCURVE",
"374 39 CURVE",
"424 -6 OFFCURVE",
"537 -17 OFFCURVE",
"591 -17 CURVE"
);
},
{
closed = 1;
nodes = (
"251 154 OFFCURVE",
"278 331 OFFCURVE",
"307 470 CURVE",
"267 501 OFFCURVE",
"141 525 OFFCURVE",
"88 524 CURVE",
"53 387 OFFCURVE",
"26 201 OFFCURVE",
"33 39 CURVE",
"83 -6 OFFCURVE",
"196 -17 OFFCURVE",
"250 -17 CURVE"
);
},
{
closed = 1;
nodes = (
"278 160 OFFCURVE",
"357 351 OFFCURVE",
"431 413 CURVE SMOOTH",
"475 451 OFFCURVE",
"458 476 OFFCURVE",
"429 524 CURVE",
"346 486 OFFCURVE",
"287 408 OFFCURVE",
"253 248 CURVE SMOOTH",
"240 188 OFFCURVE",
"217 24 OFFCURVE",
"250 -17 CURVE"
);
},
{
closed = 1;
nodes = (
"617 163 OFFCURVE",
"697 351 OFFCURVE",
"771 413 CURVE SMOOTH",
"815 451 OFFCURVE",
"798 476 OFFCURVE",
"769 524 CURVE",
"686 486 OFFCURVE",
"627 408 OFFCURVE",
"593 248 CURVE SMOOTH",
"580 188 OFFCURVE",
"558 24 OFFCURVE",
"591 -17 CURVE"
);
},
{
closed = 1;
nodes = (
"932 154 OFFCURVE",
"959 331 OFFCURVE",
"988 470 CURVE",
"948 501 OFFCURVE",
"822 525 OFFCURVE",
"769 524 CURVE",
"734 387 OFFCURVE",
"707 200 OFFCURVE",
"714 39 CURVE",
"764 -6 OFFCURVE",
"877 -17 OFFCURVE",
"931 -17 CURVE"
);
}
);
width = 1005;
}
);
leftMetricsKey = n;
rightMetricsKey = n;
unicode = 006D;
},
{
glyphname = n;
lastChange = "2018-01-05 19:40:07 +0000";
layers = (
{
anchors = (
{
name = top;
position = "{372, 524}";
}
);
layerId = "CF9497EE-3EC0-42B6-AB9D-60F0E4A560B4";
name = "Bold Italic";
paths = (
{
closed = 1;
nodes = (
"256 153 OFFCURVE",
"273 330 OFFCURVE",
"301 469 CURVE",
"260 500 OFFCURVE",
"135 524 OFFCURVE",
"83 523 CURVE",
"48 386 OFFCURVE",
"31 203 OFFCURVE",
"37 41 CURVE",
"88 -4 OFFCURVE",
"201 -18 OFFCURVE",
"255 -18 CURVE"
);
},
{
closed = 1;
nodes = (
"607 153 OFFCURVE",
"624 328 OFFCURVE",
"652 467 CURVE",
"612 496 OFFCURVE",
"487 520 OFFCURVE",
"434 521 CURVE",
"399 384 OFFCURVE",
"382 203 OFFCURVE",
"388 41 CURVE",
"439 -4 OFFCURVE",
"552 -18 OFFCURVE",
"606 -18 CURVE"
);
},
{
closed = 1;
nodes = (
"283 165 OFFCURVE",
"362 316 OFFCURVE",
"436 378 CURVE SMOOTH",
"480 416 OFFCURVE",
"463 473 OFFCURVE",
"434 521 CURVE",
"351 477 OFFCURVE",
"283 371 OFFCURVE",
"257 252 CURVE SMOOTH",
"243 190 OFFCURVE",
"221 28 OFFCURVE",
"255 -13 CURVE"
);
}
);
width = 674;
}
);
leftKerningGroup = n;
rightKerningGroup = n;
unicode = 006E;
},
{
glyphname = o;
lastChange = "2018-01-05 19:40:56 +0000";
layers = (
{
anchors = (
{
name = top;
position = "{277, 533}";
}
);
layerId = "CF9497EE-3EC0-42B6-AB9D-60F0E4A560B4";
name = "Bold Italic";
paths = (
{
closed = 1;
nodes = (
"498 -78 OFFCURVE",
"498 273 CURVE SMOOTH",
"498 629 OFFCURVE",
"18 585 OFFCURVE",
"18 211 CURVE SMOOTH",
"18 -129 OFFCURVE"
);
},
{
closed = 1;
nodes = (
"229 122 OFFCURVE",
"229 239 CURVE SMOOTH",
"229 360 OFFCURVE",
"337 395 OFFCURVE",
"337 278 CURVE SMOOTH",
"337 158 OFFCURVE"
);
}
);
width = 518;
}
);
leftKerningGroup = o;
rightKerningGroup = o;
unicode = 006F;
},
{
glyphname = oslash;
lastChange = "2017-12-10 16:47:29 +0000";
layers = (
{
layerId = "CF9497EE-3EC0-42B6-AB9D-60F0E4A560B4";
name = "Bold Italic";
paths = (
{
closed = 1;
nodes = (
"237 109 OFFCURVE",
"359 304 OFFCURVE",
"469 500 CURVE",
"446 521 OFFCURVE",
"417 536 OFFCURVE",
"380 549 CURVE",
"242 368 OFFCURVE",
"129 192 OFFCURVE",
"4 -13 CURVE",
"29 -37 OFFCURVE",
"64 -52 OFFCURVE",
"94 -60 CURVE"
);
},
{
closed = 1;
nodes = (
"478 -78 OFFCURVE",
"478 273 CURVE SMOOTH",
"478 637 OFFCURVE",
"-2 591 OFFCURVE",
"-2 211 CURVE SMOOTH",
"-2 -129 OFFCURVE"
);
},
{
closed = 1;
nodes = (
"171 22 OFFCURVE",
"171 240 CURVE SMOOTH",
"171 462 OFFCURVE",
"371 530 OFFCURVE",
"371 313 CURVE SMOOTH",
"371 93 OFFCURVE"
);
}
);
width = 478;
}
);
leftKerningGroup = o;
rightKerningGroup = o;
unicode = 00F8;
},
{
glyphname = p;
lastChange = "2018-01-02 13:38:07 +0000";
layers = (
{
layerId = "CF9497EE-3EC0-42B6-AB9D-60F0E4A560B4";
name = "Bold Italic";
paths = (
{
closed = 1;
nodes = (
"219 -25 OFFCURVE",
"254 251 OFFCURVE",
"289 477 CURVE",
"231 502 OFFCURVE",
"139 519 OFFCURVE",
"85 517 CURVE",
"33 299 OFFCURVE",
"17 20 OFFCURVE",
"13 -210 CURVE",
"63 -255 OFFCURVE",
"166 -269 OFFCURVE",
"220 -269 CURVE"
);
},
{
closed = 1;
nodes = (
"309 -115 OFFCURVE",
"568 -8 OFFCURVE",
"574 259 CURVE SMOOTH",
"582 584 OFFCURVE",
"269 603 OFFCURVE",
"226 307 CURVE SMOOTH",
"208 182 OFFCURVE",
"258 153 OFFCURVE",
"261 207 CURVE SMOOTH",
"270 342 OFFCURVE",
"397 361 OFFCURVE",
"386 227 CURVE SMOOTH",
"378 128 OFFCURVE",
"255 110 OFFCURVE",
"261 207 CURVE SMOOTH",
"265 274 OFFCURVE",
"204 89 OFFCURVE",
"171 78 CURVE"
);
}
);
width = 594;
}
);
leftMetricsKey = n;
rightMetricsKey = o;
unicode = 0070;
},
{
glyphname = thorn;
lastChange = "2017-11-27 15:32:02 +0000";
layers = (
{
layerId = "CF9497EE-3EC0-42B6-AB9D-60F0E4A560B4";
name = "Bold Italic";
paths = (
{
closed = 1;
nodes = (
"228 -23 OFFCURVE",
"292 499 OFFCURVE",
"327 725 CURVE",
"269 750 OFFCURVE",
"167 775 OFFCURVE",
"113 773 CURVE",
"61 555 OFFCURVE",
"16 22 OFFCURVE",
"12 -208 CURVE",
"62 -253 OFFCURVE",
"175 -267 OFFCURVE",
"229 -267 CURVE"
);
},
{
closed = 1;
nodes = (
"325 -113 OFFCURVE",
"590 -8 OFFCURVE",
"596 259 CURVE SMOOTH",
"604 597 OFFCURVE",
"284 606 OFFCURVE",
"239 322 CURVE SMOOTH",
"219 197 OFFCURVE",
"268 153 OFFCURVE",
"271 207 CURVE SMOOTH",
"280 342 OFFCURVE",
"407 361 OFFCURVE",
"396 227 CURVE SMOOTH",
"387 110 OFFCURVE",
"264 92 OFFCURVE",
"271 204 CURVE SMOOTH",
"275 271 OFFCURVE",
"214 89 OFFCURVE",
"181 78 CURVE"
);
}
);
width = 636;
}
);
unicode = 00FE;
},
{
glyphname = q;
lastChange = "2018-01-02 13:34:06 +0000";
layers = (
{
layerId = "CF9497EE-3EC0-42B6-AB9D-60F0E4A560B4";
name = "Bold Italic";
paths = (
{
closed = 1;
nodes = (
"543 -18 OFFCURVE",
"574 224 OFFCURVE",
"609 450 CURVE",
"579 480 OFFCURVE",
"444 505 OFFCURVE",
"390 503 CURVE",
"338 285 OFFCURVE",
"322 21 OFFCURVE",
"318 -209 CURVE",
"368 -254 OFFCURVE",
"481 -268 OFFCURVE",
"535 -268 CURVE"
);
},
{
closed = 1;
nodes = (
"315 -18 OFFCURVE",
"374 60 OFFCURVE",
"387 162 CURVE",
"370 193 OFFCURVE",
"351 221 OFFCURVE",
"342 233 CURVE",
"333 113 OFFCURVE",
"243 111 OFFCURVE",
"245 215 CURVE SMOOTH",
"248 343 OFFCURVE",
"346 343 OFFCURVE",
"342 233 CURVE SMOOTH",
"341 208 OFFCURVE",
"374 281 OFFCURVE",
"405 277 CURVE SMOOTH",
"437 274 OFFCURVE",
"404 337 OFFCURVE",
"404 384 CURVE SMOOTH",
"404 455 OFFCURVE",
"352 523 OFFCURVE",
"277 524 CURVE SMOOTH",
"159 525 OFFCURVE",
"38 397 OFFCURVE",
"38 212 CURVE SMOOTH",
"38 60 OFFCURVE",
"114 -18 OFFCURVE",
"217 -18 CURVE SMOOTH"
);
}
);
width = 629;
}
);
unicode = 0071;
},
{
glyphname = r;
lastChange = "2018-01-05 19:43:53 +0000";
layers = (
{
layerId = "CF9497EE-3EC0-42B6-AB9D-60F0E4A560B4";
name = "Bold Italic";
paths = (
{
closed = 1;
nodes = (
"279 155 OFFCURVE",
"330 368 OFFCURVE",
"390 313 CURVE",
"444 245 OFFCURVE",
"576 303 OFFCURVE",
"576 385 CURVE SMOOTH",
"576 624 OFFCURVE",
"263 533 OFFCURVE",
"261 283 CURVE SMOOTH",
"261 222 OFFCURVE",
"219 24 OFFCURVE",
"252 -17 CURVE"
);
},
{
closed = 1;
nodes = (
"254 153 OFFCURVE",
"276 330 OFFCURVE",
"304 469 CURVE",
"264 500 OFFCURVE",
"139 524 OFFCURVE",
"86 523 CURVE",
"50 386 OFFCURVE",
"29 203 OFFCURVE",
"35 41 CURVE",
"86 -4 OFFCURVE",
"199 -18 OFFCURVE",
"252 -18 CURVE"
);
}
);
width = 582;
}
);
leftMetricsKey = n;
rightMetricsKey = o;
unicode = 0072;
},
{
glyphname = s;
lastChange = "2018-01-05 19:28:35 +0000";
layers = (
{
anchors = (
{
name = top;
position = "{300, 514}";
}
);
layerId = "CF9497EE-3EC0-42B6-AB9D-60F0E4A560B4";
name = "Bold Italic";
paths = (
{
closed = 1;
nodes = (
"307 402 OFFCURVE",
"307 350 CURVE SMOOTH",
"307 247 OFFCURVE",
"477 260 OFFCURVE",
"477 371 CURVE SMOOTH",
"477 573 OFFCURVE",
"50 567 OFFCURVE",
"50 348 CURVE SMOOTH",
"50 223 OFFCURVE",
"212 219 OFFCURVE",
"212 140 CURVE SMOOTH",
"212 105 OFFCURVE",
"135 86 OFFCURVE",
"42 169 CURVE",
"22 135 OFFCURVE",
"9 95 OFFCURVE",
"1 66 CURVE",
"130 -84 OFFCURVE",
"455 -36 OFFCURVE",
"455 122 CURVE SMOOTH",
"455 259 OFFCURVE",
"249 268 OFFCURVE",
"249 353 CURVE SMOOTH",
"249 403 OFFCURVE"
);
}
);
width = 489;
}
);
leftKerningGroup = s;
leftMetricsKey = o;
rightKerningGroup = s;
rightMetricsKey = o;
unicode = 0073;
},
{
glyphname = germandbls;
lastChange = "2017-11-27 15:32:02 +0000";
layers = (
{
layerId = "CF9497EE-3EC0-42B6-AB9D-60F0E4A560B4";
name = "Bold Italic";
paths = (
{
closed = 1;
nodes = (
"310 -13 OFFCURVE",
"351 -19 OFFCURVE",
"390 -18 CURVE SMOOTH",
"660 -12 OFFCURVE",
"673 401 OFFCURVE",
"403 401 CURVE SMOOTH",
"368 400 OFFCURVE",
"329 395 OFFCURVE",
"287 383 CURVE",
"278 358 OFFCURVE",
"276 316 OFFCURVE",
"280 293 CURVE",
"446 293 OFFCURVE",
"437 111 OFFCURVE",
"268 111 CURVE",
"259 75 OFFCURVE",
"260 26 OFFCURVE",
"269 0 CURVE"
);
},
{
closed = 1;
nodes = (
"669 328 OFFCURVE",
"642 724 OFFCURVE",
"344 724 CURVE SMOOTH",
"126 724 OFFCURVE",
"33 545 OFFCURVE",
"33 18 CURVE",
"76 -7 OFFCURVE",
"184 -18 OFFCURVE",
"243 -18 CURVE",
"225 382 OFFCURVE",
"265 561 OFFCURVE",
"333 561 CURVE SMOOTH",
"415 561 OFFCURVE",
"403 424 OFFCURVE",
"299 424 CURVE",
"287 400 OFFCURVE",
"278 358 OFFCURVE",
"280 328 CURVE"
);
}
);
width = 646;
}
);
unicode = 00DF;
},
{
glyphname = t;
lastChange = "2018-01-08 14:37:23 +0000";
layers = (
{
layerId = "CF9497EE-3EC0-42B6-AB9D-60F0E4A560B4";
name = "Bold Italic";
paths = (
{
closed = 1;
nodes = (
"92 301 OFFCURVE",
"92 196 CURVE SMOOTH",
"92 -38 OFFCURVE",
"325 -84 OFFCURVE",
"477 57 CURVE",
"465 93 OFFCURVE",
"444 138 OFFCURVE",
"425 171 CURVE",
"378 118 OFFCURVE",
"303 137 OFFCURVE",
"303 229 CURVE SMOOTH",
"303 318 OFFCURVE",
"336 470 OFFCURVE",
"366 591 CURVE",
"320 609 OFFCURVE",
"225 627 OFFCURVE",
"168 632 CURVE",
"121 470 OFFCURVE"
);
},
{
closed = 1;
nodes = (
"156 362 OFFCURVE",
"272 355 OFFCURVE",
"419 338 CURVE",
"426 389 OFFCURVE",
"432 453 OFFCURVE",
"428 513 CURVE",
"290 529 OFFCURVE",
"176 528 OFFCURVE",
"49 513 CURVE",
"40 458 OFFCURVE",
"39 394 OFFCURVE",
"49 350 CURVE"
);
}
);
width = 507;
}
);
leftMetricsKey = o;
rightMetricsKey = x;
unicode = 0074;
},
{
glyphname = u;
lastChange = "2018-01-05 19:28:52 +0000";
layers = (
{
anchors = (
{
name = top;
position = "{351, 524}";
}
);
layerId = "CF9497EE-3EC0-42B6-AB9D-60F0E4A560B4";
name = "Bold Italic";
paths = (
{
closed = 1;
nodes = (
"606 149 OFFCURVE",
"624 329 OFFCURVE",
"652 468 CURVE",
"612 499 OFFCURVE",
"487 523 OFFCURVE",
"434 522 CURVE",
"399 385 OFFCURVE",
"381 199 OFFCURVE",
"387 37 CURVE",
"438 -8 OFFCURVE",
"551 -22 OFFCURVE",
"605 -22 CURVE"
);
},
{
closed = 1;
nodes = (
"255 149 OFFCURVE",
"273 329 OFFCURVE",
"301 468 CURVE",
"261 499 OFFCURVE",
"136 523 OFFCURVE",
"83 522 CURVE",
"48 385 OFFCURVE",
"30 199 OFFCURVE",
"36 37 CURVE",
"87 -8 OFFCURVE",
"200 -22 OFFCURVE",
"254 -22 CURVE"
);
},
{
closed = 1;
nodes = (
"337 24 OFFCURVE",
"399 171 OFFCURVE",
"427 306 CURVE SMOOTH",
"439 367 OFFCURVE",
"451 414 OFFCURVE",
"418 455 CURVE",
"387 308 OFFCURVE",
"328 193 OFFCURVE",
"257 126 CURVE SMOOTH",
"215 86 OFFCURVE",
"225 26 OFFCURVE",
"254 -22 CURVE"
);
}
);
width = 674;
}
);
leftKerningGroup = u;
leftMetricsKey = n;
rightKerningGroup = u;
rightMetricsKey = n;
unicode = 0075;
},
{
glyphname = v;
lastChange = "2018-01-05 19:38:45 +0000";
layers = (
{
layerId = "CF9497EE-3EC0-42B6-AB9D-60F0E4A560B4";
name = "Bold Italic";
paths = (
{
closed = 1;
nodes = (
"290 -25 OFFCURVE",
"390 -1 OFFCURVE",
"438 24 CURVE",
"336 158 OFFCURVE",
"286 336 OFFCURVE",
"254 521 CURVE",
"197 524 OFFCURVE",
"81 501 OFFCURVE",
"34 477 CURVE",
"67 323 OFFCURVE",
"138 121 OFFCURVE",
"213 -23 CURVE"
);
},
{
closed = 1;
nodes = (
"485 158 OFFCURVE",
"557 276 OFFCURVE",
"645 418 CURVE",
"594 458 OFFCURVE",
"524 499 OFFCURVE",
"459 529 CURVE",
"397 397 OFFCURVE",
"342 270 OFFCURVE",
"314 98 CURVE",
"349 55 OFFCURVE",
"387 41 OFFCURVE",
"438 24 CURVE"
);
}
);
width = 637;
}
);
leftKerningGroup = v;
leftMetricsKey = x;
rightKerningGroup = v;
rightMetricsKey = x;
unicode = 0076;
},
{
glyphname = w;
lastChange = "2018-01-05 19:44:21 +0000";
layers = (
{
layerId = "CF9497EE-3EC0-42B6-AB9D-60F0E4A560B4";
name = "Bold Italic";
paths = (
{
closed = 1;
nodes = (
"283 -28 OFFCURVE",
"399 -2 OFFCURVE",
"446 23 CURVE",
"363 174 OFFCURVE",
"292 365 OFFCURVE",
"255 527 CURVE",
"197 530 OFFCURVE",
"82 498 OFFCURVE",
"34 474 CURVE",
"60 335 OFFCURVE",
"135 121 OFFCURVE",
"210 -23 CURVE"
);
},
{
closed = 1;
nodes = (
"478 143 OFFCURVE",
"534 254 OFFCURVE",
"616 357 CURVE",
"559 380 OFFCURVE",
"506 388 OFFCURVE",
"446 393 CURVE",
"393 295 OFFCURVE",
"354 203 OFFCURVE",
"327 95 CURVE",
"363 53 OFFCURVE",
"395 40 OFFCURVE",
"446 23 CURVE"
);
},
{
closed = 1;
nodes = (
"647 -28 OFFCURVE",
"759 -9 OFFCURVE",
"806 16 CURVE",
"720 151 OFFCURVE",
"682 214 OFFCURVE",
"616 357 CURVE",
"559 359 OFFCURVE",
"526 325 OFFCURVE",
"479 301 CURVE",
"497 182 OFFCURVE",
"529 79 OFFCURVE",
"574 -23 CURVE"
);
},
{
closed = 1;
nodes = (
"851 175 OFFCURVE",
"898 272 OFFCURVE",
"999 415 CURVE",
"952 467 OFFCURVE",
"875 508 OFFCURVE",
"809 535 CURVE",
"746 415 OFFCURVE",
"699 271 OFFCURVE",
"673 95 CURVE",
"709 53 OFFCURVE",
"755 33 OFFCURVE",
"806 16 CURVE"
);
}
);
width = 992;
}
);
leftKerningGroup = v;
leftMetricsKey = x;
rightKerningGroup = v;
rightMetricsKey = x;
unicode = 0077;
},
{
glyphname = x;
lastChange = "2018-01-05 19:29:45 +0000";
layers = (
{
layerId = "CF9497EE-3EC0-42B6-AB9D-60F0E4A560B4";
name = "Bold Italic";
paths = (
{
closed = 1;
nodes = (
"264 90 OFFCURVE",
"425 261 OFFCURVE",
"569 434 CURVE",
"544 459 OFFCURVE",
"487 503 OFFCURVE",
"436 520 CURVE",
"311 360 OFFCURVE",
"155 192 OFFCURVE",
"3 55 CURVE",
"48 13 OFFCURVE",
"89 -5 OFFCURVE",
"140 -21 CURVE"
);
},
{
closed = 1;
nodes = (
"421 206 OFFCURVE",
"313 375 OFFCURVE",
"244 522 CURVE",
"171 512 OFFCURVE",
"88 481 OFFCURVE",
"30 440 CURVE",
"138 250 OFFCURVE",
"238 107 OFFCURVE",
"354 -22 CURVE",
"412 -13 OFFCURVE",
"502 34 OFFCURVE",
"544 67 CURVE"
);
}
);
width = 573;
}
);
unicode = 0078;
},
{
glyphname = y;
lastChange = "2018-01-08 14:37:30 +0000";
layers = (
{
anchors = (
{
name = top;
position = "{354, 524}";
}
);
layerId = "CF9497EE-3EC0-42B6-AB9D-60F0E4A560B4";
name = "Bold Italic";
paths = (
{
closed = 1;
nodes = (
"394 -152 OFFCURVE",
"582 240 OFFCURVE",
"635 408 CURVE",
"591 446 OFFCURVE",
"513 496 OFFCURVE",
"454 517 CURVE",
"403 237 OFFCURVE",
"255 12 OFFCURVE",
"112 -173 CURVE",
"154 -209 OFFCURVE",
"256 -257 OFFCURVE",
"312 -267 CURVE"
);
},
{
closed = 1;
nodes = (
"252 20 OFFCURVE",
"354 50 OFFCURVE",
"403 70 CURVE",
"342 237 OFFCURVE",
"299 364 OFFCURVE",
"269 517 CURVE",
"212 522 OFFCURVE",
"82 501 OFFCURVE",
"34 479 CURVE",
"54 339 OFFCURVE",
"112 176 OFFCURVE",
"180 28 CURVE"
);
}
);
width = 628;
}
);
leftKerningGroup = y;
leftMetricsKey = x;
rightKerningGroup = y;
rightMetricsKey = x;
unicode = 0079;
},
{
glyphname = z;
lastChange = "2018-01-05 19:30:20 +0000";
layers = (
{
anchors = (
{
name = top;
position = "{321, 524}";
}
);
layerId = "CF9497EE-3EC0-42B6-AB9D-60F0E4A560B4";
name = "Bold Italic";
paths = (
{
closed = 1;
nodes = (
"315 196 OFFCURVE",
"388 262 OFFCURVE",
"544 331 CURVE",
"536 360 OFFCURVE",
"403 371 OFFCURVE",
"388 384 CURVE",
"217 309 OFFCURVE",
"183 250 OFFCURVE",
"35 162 CURVE",
"52 103 OFFCURVE",
"191 117 OFFCURVE",
"205 104 CURVE"
);
},
{
closed = 1;
nodes = (
"528 25 OFFCURVE",
"536 100 OFFCURVE",
"505 160 CURVE",
"331 181 OFFCURVE",
"186 177 OFFCURVE",
"35 162 CURVE",
"27 119 OFFCURVE",
"37 9 OFFCURVE",
"66 -18 CURVE",
"241 -10 OFFCURVE",
"336 -1 OFFCURVE",
"522 -18 CURVE"
);
},
{
closed = 1;
nodes = (
"550 374 OFFCURVE",
"550 455 OFFCURVE",
"519 510 CURVE",
"345 530 OFFCURVE",
"220 526 OFFCURVE",
"68 511 CURVE",
"61 469 OFFCURVE",
"57 358 OFFCURVE",
"86 332 CURVE",
"261 339 OFFCURVE",
"358 348 OFFCURVE",
"544 331 CURVE"
);
}
);
width = 591;
}
);
leftKerningGroup = z;
rightKerningGroup = z;
unicode = 007A;
},
{
glyphname = "Be-cy";
lastChange = "2018-01-02 13:38:07 +0000";
layers = (
{
layerId = "CF9497EE-3EC0-42B6-AB9D-60F0E4A560B4";
name = "Bold Italic";
paths = (
{
closed = 1;
nodes = (
"287 -83 OFFCURVE",
"636 -18 OFFCURVE",
"636 201 CURVE SMOOTH",
"636 370 OFFCURVE",
"506 469 OFFCURVE",
"310 404 CURVE SMOOTH",
"163 356 OFFCURVE",
"232 287 OFFCURVE",
"299 289 CURVE SMOOTH",
"396 292 OFFCURVE",
"435 141 OFFCURVE",
"286 109 CURVE SMOOTH",
"208 92 OFFCURVE",
"100 70 OFFCURVE",
"60 54 CURVE"
);
},
{
closed = 1;
nodes = (
"289 222 OFFCURVE",
"304 422 OFFCURVE",
"349 653 CURVE",
"316 686 OFFCURVE",
"168 713 OFFCURVE",
"110 712 CURVE",
"69 533 OFFCURVE",
"41 257 OFFCURVE",
"44 57 CURVE",
"78 25 OFFCURVE",
"243 -17 OFFCURVE",
"281 -7 CURVE"
);
},
{
closed = 1;
nodes = (
"277 516 OFFCURVE",
"435 526 OFFCURVE",
"611 521 CURVE",
"615 573 OFFCURVE",
"614 648 OFFCURVE",
"599 704 CURVE",
"436 728 OFFCURVE",
"231 728 OFFCURVE",
"88 709 CURVE",
"80 660 OFFCURVE",
"90 530 OFFCURVE",
"117 499 CURVE"
);
}
);
width = 662;
}
);
leftMetricsKey = n;
rightMetricsKey = o;
unicode = 0411;
},
{
glyphname = "Ge-cy";
lastChange = "2018-01-05 18:49:05 +0000";
layers = (
{
anchors = (
{
name = top;
position = "{355, 723}";
}
);
layerId = "CF9497EE-3EC0-42B6-AB9D-60F0E4A560B4";
name = "Bold Italic";
paths = (
{
closed = 1;
nodes = (
"328 208 OFFCURVE",
"345 427 OFFCURVE",
"389 651 CURVE",
"357 684 OFFCURVE",
"209 711 OFFCURVE",
"151 710 CURVE",
"110 531 OFFCURVE",
"80 243 OFFCURVE",
"83 43 CURVE",
"117 11 OFFCURVE",
"282 -31 OFFCURVE",
"320 -21 CURVE"
);
},
{
closed = 1;
nodes = (
"277 514 OFFCURVE",
"427 522 OFFCURVE",
"603 516 CURVE",
"609 567 OFFCURVE",
"619 644 OFFCURVE",
"599 702 CURVE",
"436 726 OFFCURVE",
"231 726 OFFCURVE",
"88 707 CURVE",
"80 658 OFFCURVE",
"90 528 OFFCURVE",
"117 497 CURVE"
);
}
);
width = 585;
}
);
leftKerningGroup = "Ge-cy";
leftMetricsKey = n;
rightKerningGroup = "Ge-cy";
rightMetricsKey = x;
unicode = 0413;
},
{
glyphname = "Gheupturn-cy";
lastChange = "2017-11-27 15:32:02 +0000";
layers = (
{
components = (
{
name = "Ge-cy";
},
{
name = "Ge-cy";
}
);
layerId = "CF9497EE-3EC0-42B6-AB9D-60F0E4A560B4";
name = "Bold Italic";
paths = (
{
closed = 1;
nodes = (
"591 682 OFFCURVE",
"597 759 OFFCURVE",
"611 830 CURVE",
"561 843 OFFCURVE",
"516 848 OFFCURVE",
"462 848 CURVE",
"449 767 OFFCURVE",
"457 683 OFFCURVE",
"475 607 CURVE",
"591 599 LINE"
);
}
);
width = 615;
}
);
leftKerningGroup = "Ge-cy";
rightKerningGroup = "Ge-cy";
unicode = 0490;
},
{
glyphname = "De-cy";
lastChange = "2018-01-05 18:53:50 +0000";
layers = (
{
layerId = "CF9497EE-3EC0-42B6-AB9D-60F0E4A560B4";
name = "Bold Italic";
paths = (
{
closed = 1;
nodes = (
"595 -11 OFFCURVE",
"722 15 OFFCURVE",
"774 41 CURVE",
"679 265 OFFCURVE",
"612 484 OFFCURVE",
"563 725 CURVE",
"483 731 OFFCURVE",
"387 729 OFFCURVE",
"316 700 CURVE",
"373 486 OFFCURVE",
"435 230 OFFCURVE",
"531 -8 CURVE"
);
},
{
closed = 1;
nodes = (
"169 -32 OFFCURVE",
"179 16 OFFCURVE",
"178 128 CURVE",
"134 140 OFFCURVE",
"75 159 OFFCURVE",
"19 161 CURVE",
"11 45 OFFCURVE",
"-3 -27 OFFCURVE",
"-30 -129 CURVE",
"12 -142 OFFCURVE",
"108 -141 OFFCURVE",
"155 -133 CURVE"
);
},
{
closed = 1;
nodes = (
"309 0 OFFCURVE",
"482 -4 OFFCURVE",
"732 -10 CURVE",
"740 33 OFFCURVE",
"755 100 OFFCURVE",
"726 151 CURVE",
"494 172 OFFCURVE",
"242 172 OFFCURVE",
"39 158 CURVE",
"29 115 OFFCURVE",
"43 13 OFFCURVE",
"81 -14 CURVE"
);
},
{
closed = 1;
nodes = (
"339 217 OFFCURVE",
"409 415 OFFCURVE",
"448 620 CURVE",
"409 666 OFFCURVE",
"373 681 OFFCURVE",
"316 700 CURVE",
"257 480 OFFCURVE",
"166 279 OFFCURVE",
"40 106 CURVE",
"95 44 OFFCURVE",
"165 42 OFFCURVE",
"221 25 CURVE"
);
},
{
closed = 1;
nodes = (
"775 -56 OFFCURVE",
"782 -2 OFFCURVE",
"803 137 CURVE",
"757 150 OFFCURVE",
"692 161 OFFCURVE",
"633 161 CURVE",
"597 52 OFFCURVE",
"580 -44 OFFCURVE",
"580 -154 CURVE",
"624 -168 OFFCURVE",
"724 -174 OFFCURVE",
"775 -156 CURVE"
);
}
);
width = 828;
}
);
leftMetricsKey = x;
rightMetricsKey = x;
unicode = 0414;
},
{
glyphname = "Io-cy";
lastChange = "2017-11-27 15:32:02 +0000";
layers = (
{
components = (
{
name = E;
}
);
layerId = "CF9497EE-3EC0-42B6-AB9D-60F0E4A560B4";
name = "Bold Italic";
paths = (
{
closed = 1;
nodes = (
"536 763 OFFCURVE",
"573 804 OFFCURVE",
"573 845 CURVE SMOOTH",
"573 899 OFFCURVE",
"547 957 OFFCURVE",
"498 957 CURVE SMOOTH",
"449 957 OFFCURVE",
"394 926 OFFCURVE",
"394 872 CURVE SMOOTH",
"394 818 OFFCURVE",
"421 763 OFFCURVE",
"470 763 CURVE SMOOTH"
);
},
{
closed = 1;
nodes = (
"309 775 OFFCURVE",
"346 816 OFFCURVE",
"346 858 CURVE SMOOTH",
"346 911 OFFCURVE",
"320 970 OFFCURVE",
"271 970 CURVE SMOOTH",
"222 970 OFFCURVE",
"167 938 OFFCURVE",
"167 884 CURVE SMOOTH",
"167 831 OFFCURVE",
"194 775 OFFCURVE",
"243 775 CURVE SMOOTH"
);
}
);
width = 640;
}
);
unicode = 0401;
},
{
glyphname = "Zhe-cy";
lastChange = "2018-01-02 13:38:07 +0000";
layers = (
{
layerId = "CF9497EE-3EC0-42B6-AB9D-60F0E4A560B4";
name = "Bold Italic";
paths = (
{
closed = 1;
nodes = (
"889 -2 OFFCURVE",
"981 62 OFFCURVE",
"1018 102 CURVE",
"978 170 OFFCURVE",
"912 280 OFFCURVE",
"847 340 CURVE",
"913 401 OFFCURVE",
"1002 536 OFFCURVE",
"1047 623 CURVE",
"1006 656 OFFCURVE",
"912 700 OFFCURVE",
"852 718 CURVE",
"792 612 OFFCURVE",
"677 433 OFFCURVE",
"595 348 CURVE",
"678 269 OFFCURVE",
"765 74 OFFCURVE",
"824 -20 CURVE"
);
},
{
closed = 1;
nodes = (
"250 105 OFFCURVE",
"336 225 OFFCURVE",
"439 352 CURVE",
"368 479 OFFCURVE",
"300 618 OFFCURVE",
"264 725 CURVE",
"196 708 OFFCURVE",
"104 661 OFFCURVE",
"62 623 CURVE",
"94 527 OFFCURVE",
"137 422 OFFCURVE",
"191 340 CURVE",
"125 285 OFFCURVE",
"55 190 OFFCURVE",
"-4 115 CURVE",
"28 71 OFFCURVE",
"119 7 OFFCURVE",
"182 -18 CURVE"
);
},
{
closed = 1;
nodes = (
"620 181 OFFCURVE",
"656 474 OFFCURVE",
"688 659 CURVE",
"653 694 OFFCURVE",
"496 723 OFFCURVE",
"435 721 CURVE",
"394 562 OFFCURVE",
"362 237 OFFCURVE",
"369 49 CURVE",
"428 -4 OFFCURVE",
"559 -20 OFFCURVE",
"621 -20 CURVE"
);
}
);
width = 1044;
}
);
leftMetricsKey = x;
rightMetricsKey = x;
unicode = 0416;
},
{
glyphname = "Ze-cy";
lastChange = "2018-01-05 19:47:53 +0000";
layers = (
{
layerId = "CF9497EE-3EC0-42B6-AB9D-60F0E4A560B4";
name = "Bold Italic";
paths = (
{
closed = 1;
nodes = (
"60 33 OFFCURVE",
"168 -20 OFFCURVE",
"273 -20 CURVE SMOOTH",
"601 -20 OFFCURVE",
"651 403 OFFCURVE",
"309 403 CURVE SMOOTH",
"288 403 OFFCURVE",
"273 397 OFFCURVE",
"246 406 CURVE",
"248 396 OFFCURVE",
"249 388 OFFCURVE",
"249 380 CURVE SMOOTH",
"249 353 OFFCURVE",
"233 319 OFFCURVE",
"227 290 CURVE",
"352 290 OFFCURVE",
"352 169 OFFCURVE",
"238 169 CURVE SMOOTH",
"197 169 OFFCURVE",
"140 185 OFFCURVE",
"67 228 CURVE",
"44 202 OFFCURVE",
"26 179 OFFCURVE",
"9 150 CURVE"
);
},
{
closed = 1;
nodes = (
"626 286 OFFCURVE",
"648 723 OFFCURVE",
"335 723 CURVE SMOOTH",
"181 723 OFFCURVE",
"95 658 OFFCURVE",
"95 581 CURVE SMOOTH",
"95 523 OFFCURVE",
"129 486 OFFCURVE",
"178 486 CURVE SMOOTH",
"240 486 OFFCURVE",
"248 535 OFFCURVE",
"302 535 CURVE SMOOTH",
"410 535 OFFCURVE",
"357 406 OFFCURVE",
"246 406 CURVE",
"237 372 OFFCURVE",
"230 316 OFFCURVE",
"227 290 CURVE"
);
}
);
width = 568;
}
);
leftMetricsKey = o;
rightMetricsKey = o;
unicode = 0417;
},
{
glyphname = "Ii-cy";
lastChange = "2018-01-02 13:38:07 +0000";
layers = (
{
anchors = (
{
name = top;
position = "{418, 723}";
}
);
layerId = "CF9497EE-3EC0-42B6-AB9D-60F0E4A560B4";
name = "Bold Italic";
paths = (
{
closed = 1;
nodes = (
"282 209 OFFCURVE",
"300 439 OFFCURVE",
"345 663 CURVE",
"312 696 OFFCURVE",
"164 723 OFFCURVE",
"106 722 CURVE",
"64 540 OFFCURVE",
"34 245 OFFCURVE",
"37 45 CURVE",
"71 13 OFFCURVE",
"236 -30 OFFCURVE",
"274 -19 CURVE"
);
},
{
closed = 1;
nodes = (
"345 80 OFFCURVE",
"406 207 OFFCURVE",
"460 315 CURVE SMOOTH",
"486 368 OFFCURVE",
"532 675 OFFCURVE",
"504 722 CURVE",
"419 555 OFFCURVE",
"342 392 OFFCURVE",
"295 326 CURVE SMOOTH",
"258 276 OFFCURVE",
"241 21 OFFCURVE",
"274 -19 CURVE"
);
},
{
closed = 1;
nodes = (
"680 210 OFFCURVE",
"698 440 OFFCURVE",
"742 664 CURVE",
"709 697 OFFCURVE",
"562 724 OFFCURVE",
"504 722 CURVE",
"462 543 OFFCURVE",
"432 246 OFFCURVE",
"435 46 CURVE",
"468 14 OFFCURVE",
"634 -29 OFFCURVE",
"672 -19 CURVE"
);
}
);
width = 740;
}
);
leftMetricsKey = n;
rightMetricsKey = n;
unicode = 0418;
},
{
glyphname = "El-cy";
lastChange = "2018-01-05 19:54:35 +0000";
layers = (
{
layerId = "CF9497EE-3EC0-42B6-AB9D-60F0E4A560B4";
name = "Bold Italic";
paths = (
{
closed = 1;
nodes = (
"551 -20 OFFCURVE",
"678 6 OFFCURVE",
"730 32 CURVE",
"685 256 OFFCURVE",
"600 550 OFFCURVE",
"519 723 CURVE",
"439 729 OFFCURVE",
"311 725 OFFCURVE",
"240 697 CURVE",
"322 525 OFFCURVE",
"440 155 OFFCURVE",
"487 -17 CURVE"
);
},
{
closed = 1;
nodes = (
"300 174 OFFCURVE",
"354 331 OFFCURVE",
"393 535 CURVE",
"355 582 OFFCURVE",
"313 577 OFFCURVE",
"257 595 CURVE",
"209 437 OFFCURVE",
"122 287 OFFCURVE",
"-4 114 CURVE",
"51 52 OFFCURVE",
"150 -1 OFFCURVE",
"206 -18 CURVE"
);
}
);
width = 763;
}
);
leftMetricsKey = x;
rightMetricsKey = x;
unicode = 041B;
},
{
glyphname = "Pe-cy";
lastChange = "2018-01-02 13:38:07 +0000";
layers = (
{
layerId = "CF9497EE-3EC0-42B6-AB9D-60F0E4A560B4";
name = "Bold Italic";
paths = (
{
closed = 1;
nodes = (
"294 209 OFFCURVE",
"310 400 OFFCURVE",
"354 624 CURVE",
"321 657 OFFCURVE",
"174 684 OFFCURVE",
"116 683 CURVE",
"74 502 OFFCURVE",
"46 244 OFFCURVE",
"49 44 CURVE",
"82 12 OFFCURVE",
"248 -30 OFFCURVE",
"286 -20 CURVE"
);
},
{
closed = 1;
nodes = (
"691 210 OFFCURVE",
"707 401 OFFCURVE",
"752 625 CURVE",
"719 658 OFFCURVE",
"571 685 OFFCURVE",
"513 684 CURVE",
"472 505 OFFCURVE",
"443 245 OFFCURVE",
"446 45 CURVE",
"480 13 OFFCURVE",
"645 -29 OFFCURVE",
"683 -19 CURVE"
);
},
{
closed = 1;
nodes = (
"332 515 OFFCURVE",
"514 544 OFFCURVE",
"732 524 CURVE",
"740 574 OFFCURVE",
"753 652 OFFCURVE",
"728 710 CURVE",
"524 734 OFFCURVE",
"267 734 OFFCURVE",
"89 717 CURVE",
"80 667 OFFCURVE",
"92 538 OFFCURVE",
"126 506 CURVE"
);
}
);
width = 753;
}
);
leftMetricsKey = n;
rightMetricsKey = n;
unicode = 041F;
},
{
glyphname = "U-cy";
lastChange = "2018-01-05 18:53:42 +0000";
layers = (
{
anchors = (
{
name = top;
position = "{393, 723}";
}
);
layerId = "CF9497EE-3EC0-42B6-AB9D-60F0E4A560B4";
name = "Bold Italic";
paths = (
{
closed = 1;
nodes = (
"540 165 OFFCURVE",
"636 384 OFFCURVE",
"705 631 CURVE",
"647 674 OFFCURVE",
"564 706 OFFCURVE",
"484 723 CURVE",
"426 454 OFFCURVE",
"326 262 OFFCURVE",
"173 96 CURVE",
"215 46 OFFCURVE",
"352 -14 OFFCURVE",
"403 -30 CURVE"
);
},
{
closed = 1;
nodes = (
"357 238 OFFCURVE",
"380 262 OFFCURVE",
"451 291 CURVE",
"371 460 OFFCURVE",
"333 572 OFFCURVE",
"308 723 CURVE",
"244 726 OFFCURVE",
"107 690 OFFCURVE",
"54 664 CURVE",
"111 477 OFFCURVE",
"173 370 OFFCURVE",
"277 244 CURVE"
);
}
);
width = 675;
}
);
leftMetricsKey = x;
rightMetricsKey = x;
unicode = 0423;
},
{
glyphname = "Ef-cy";
lastChange = "2018-01-05 19:47:51 +0000";
layers = (
{
layerId = "CF9497EE-3EC0-42B6-AB9D-60F0E4A560B4";
name = "Bold Italic";
paths = (
{
closed = 1;
nodes = (
"405 272 LINE",
"212 288 OFFCURVE",
"267 482 OFFCURVE",
"433 468 CURVE",
"440 639 LINE",
"13 670 OFFCURVE",
"-130 125 OFFCURVE",
"361 93 CURVE"
);
},
{
closed = 1;
nodes = (
"594 209 OFFCURVE",
"609 440 OFFCURVE",
"653 664 CURVE",
"605 692 OFFCURVE",
"473 724 OFFCURVE",
"414 723 CURVE",
"373 541 OFFCURVE",
"345 266 OFFCURVE",
"349 66 CURVE",
"382 13 OFFCURVE",
"547 -30 OFFCURVE",
"585 -19 CURVE"
);
},
{
closed = 1;
nodes = (
"930 34 OFFCURVE",
"1072 585 OFFCURVE",
"623 622 CURVE",
"609 465 LINE",
"755 453 OFFCURVE",
"722 258 OFFCURVE",
"588 269 CURVE",
"538 67 LINE"
);
}
);
width = 930;
}
);
unicode = 0424;
},
{
glyphname = "Che-cy";
lastChange = "2018-01-05 19:53:46 +0000";
layers = (
{
layerId = "CF9497EE-3EC0-42B6-AB9D-60F0E4A560B4";
name = "Bold Italic";
paths = (
{
closed = 1;
nodes = (
"453 356 OFFCURVE",
"478 432 OFFCURVE",
"449 441 CURVE",
"360 327 OFFCURVE",
"244 417 OFFCURVE",
"325 663 CURVE",
"292 696 OFFCURVE",
"144 723 OFFCURVE",
"86 722 CURVE",
"-55 237 OFFCURVE",
"244 136 OFFCURVE",
"453 322 CURVE"
);
},
{
closed = 1;
nodes = (
"664 210 OFFCURVE",
"685 439 OFFCURVE",
"730 663 CURVE",
"697 696 OFFCURVE",
"549 723 OFFCURVE",
"491 722 CURVE",
"449 540 OFFCURVE",
"416 246 OFFCURVE",
"419 46 CURVE",
"453 14 OFFCURVE",
"618 -29 OFFCURVE",
"656 -18 CURVE"
);
}
);
width = 727;
}
);
leftMetricsKey = o;
rightMetricsKey = n;
unicode = 0427;
},
{
glyphname = "Tse-cy";
lastChange = "2017-11-27 15:32:02 +0000";
layers = (
{
layerId = "CF9497EE-3EC0-42B6-AB9D-60F0E4A560B4";
name = "Bold Italic";
paths = (
{
closed = 1;
nodes = (
"283 222 OFFCURVE",
"300 439 OFFCURVE",
"344 663 CURVE",
"312 696 OFFCURVE",
"164 723 OFFCURVE",
"106 722 CURVE",
"64 540 OFFCURVE",
"35 258 OFFCURVE",
"38 58 CURVE",
"71 26 OFFCURVE",
"237 -17 OFFCURVE",
"275 -6 CURVE"
);
},
{
closed = 1;
nodes = (
"332 -10 OFFCURVE",
"478 -4 OFFCURVE",
"734 -10 CURVE",
"742 33 OFFCURVE",
"757 100 OFFCURVE",
"728 150 CURVE",
"490 172 OFFCURVE",
"263 172 OFFCURVE",
"55 158 CURVE",
"45 115 OFFCURVE",
"59 3 OFFCURVE",
"99 -24 CURVE"
);
},
{
closed = 1;
nodes = (
"755 -56 OFFCURVE",
"762 13 OFFCURVE",
"785 164 CURVE",
"735 178 OFFCURVE",
"665 189 OFFCURVE",
"600 190 CURVE",
"561 71 OFFCURVE",
"543 -43 OFFCURVE",
"543 -162 CURVE",
"591 -177 OFFCURVE",
"699 -184 OFFCURVE",
"755 -165 CURVE"
);
},
{
closed = 1;
nodes = (
"681 223 OFFCURVE",
"698 440 OFFCURVE",
"742 664 CURVE",
"709 697 OFFCURVE",
"562 724 OFFCURVE",
"503 722 CURVE",
"462 543 OFFCURVE",
"432 259 OFFCURVE",
"436 59 CURVE",
"469 27 OFFCURVE",
"634 -16 OFFCURVE",
"672 -6 CURVE"
);
}
);
width = 839;
}
);
unicode = 0426;
},
{
glyphname = "Sha-cy";
lastChange = "2018-01-02 13:38:07 +0000";
layers = (
{
layerId = "CF9497EE-3EC0-42B6-AB9D-60F0E4A560B4";
name = "Bold Italic";
paths = (
{
closed = 1;
nodes = (
"634 223 OFFCURVE",
"652 439 OFFCURVE",
"696 663 CURVE",
"664 696 OFFCURVE",
"516 723 OFFCURVE",
"458 722 CURVE",
"416 541 OFFCURVE",
"386 258 OFFCURVE",
"389 58 CURVE",
"423 26 OFFCURVE",
"588 -16 OFFCURVE",
"626 -6 CURVE"
);
},
{
closed = 1;
nodes = (
"283 224 OFFCURVE",
"301 440 OFFCURVE",
"346 664 CURVE",
"313 697 OFFCURVE",
"165 724 OFFCURVE",
"107 723 CURVE",
"66 544 OFFCURVE",
"35 259 OFFCURVE",
"38 59 CURVE",
"72 27 OFFCURVE",
"237 -15 OFFCURVE",
"275 -5 CURVE"
);
},
{
closed = 1;
nodes = (
"357 -7 OFFCURVE",
"703 -3 OFFCURVE",
"975 -9 CURVE",
"983 34 OFFCURVE",
"997 101 OFFCURVE",
"969 152 CURVE",
"682 179 OFFCURVE",
"306 177 OFFCURVE",
"60 158 CURVE",
"50 115 OFFCURVE",
"63 4 OFFCURVE",
"100 -24 CURVE"
);
},
{
closed = 1;
nodes = (
"990 224 OFFCURVE",
"1009 440 OFFCURVE",
"1053 664 CURVE",
"1020 697 OFFCURVE",
"872 724 OFFCURVE",
"814 723 CURVE",
"773 544 OFFCURVE",
"742 259 OFFCURVE",
"745 59 CURVE",
"779 27 OFFCURVE",
"944 -15 OFFCURVE",
"982 -5 CURVE"
);
}
);
width = 1049;
}
);
leftMetricsKey = n;
rightMetricsKey = n;
unicode = 0428;
},
{
glyphname = "Shcha-cy";
lastChange = "2017-11-27 15:32:02 +0000";
layers = (
{
layerId = "CF9497EE-3EC0-42B6-AB9D-60F0E4A560B4";
name = "Bold Italic";
paths = (
{
closed = 1;
nodes = (
"633 222 OFFCURVE",
"651 438 OFFCURVE",
"695 662 CURVE",
"662 695 OFFCURVE",
"514 722 OFFCURVE",
"456 721 CURVE",
"415 540 OFFCURVE",
"385 257 OFFCURVE",
"388 57 CURVE",
"422 25 OFFCURVE",
"587 -17 OFFCURVE",
"625 -7 CURVE"
);
},
{
closed = 1;
nodes = (
"283 223 OFFCURVE",
"300 439 OFFCURVE",
"344 663 CURVE",
"311 696 OFFCURVE",
"164 723 OFFCURVE",
"106 722 CURVE",
"64 543 OFFCURVE",
"35 258 OFFCURVE",
"38 58 CURVE",
"71 26 OFFCURVE",
"237 -16 OFFCURVE",
"275 -6 CURVE"
);
},
{
closed = 1;
nodes = (
"384 -8 OFFCURVE",
"751 -4 OFFCURVE",
"1043 -11 CURVE",
"1051 33 OFFCURVE",
"1066 99 OFFCURVE",
"1037 150 CURVE",
"729 177 OFFCURVE",
"328 176 OFFCURVE",
"64 157 CURVE",
"54 114 OFFCURVE",
"68 3 OFFCURVE",
"108 -25 CURVE"
);
},
{
closed = 1;
nodes = (
"1064 -56 OFFCURVE",
"1071 12 OFFCURVE",
"1094 163 CURVE",
"1044 178 OFFCURVE",
"974 189 OFFCURVE",
"910 190 CURVE",
"870 70 OFFCURVE",
"852 -44 OFFCURVE",
"852 -163 CURVE",
"900 -178 OFFCURVE",
"1008 -185 OFFCURVE",
"1064 -166 CURVE"
);
},
{
closed = 1;
nodes = (
"990 223 OFFCURVE",
"1007 439 OFFCURVE",
"1051 663 CURVE",
"1018 696 OFFCURVE",
"871 723 OFFCURVE",
"813 722 CURVE",
"771 543 OFFCURVE",
"742 258 OFFCURVE",
"745 58 CURVE",
"778 26 OFFCURVE",
"944 -16 OFFCURVE",
"982 -6 CURVE"
);
}
);
width = 1148;
}
);
unicode = 0429;
},
{
glyphname = "Dzhe-cy";
lastChange = "2017-11-27 15:32:02 +0000";
layers = (
{
layerId = "CF9497EE-3EC0-42B6-AB9D-60F0E4A560B4";
name = "Bold Italic";
paths = (
{
closed = 1;
nodes = (
"284 224 OFFCURVE",
"299 439 OFFCURVE",
"343 663 CURVE",
"311 696 OFFCURVE",
"163 723 OFFCURVE",
"105 722 CURVE",
"63 540 OFFCURVE",
"36 260 OFFCURVE",
"39 60 CURVE",
"72 28 OFFCURVE",
"238 -15 OFFCURVE",
"276 -4 CURVE"
);
},
{
closed = 1;
nodes = (
"340 -8 OFFCURVE",
"401 -2 OFFCURVE",
"657 -8 CURVE",
"665 35 OFFCURVE",
"680 102 OFFCURVE",
"651 152 CURVE",
"413 174 OFFCURVE",
"271 174 OFFCURVE",
"63 160 CURVE",
"53 117 OFFCURVE",
"67 5 OFFCURVE",
"107 -22 CURVE"
);
},
{
closed = 1;
nodes = (
"458 -98 OFFCURVE",
"465 -29 OFFCURVE",
"488 122 CURVE",
"438 136 OFFCURVE",
"368 147 OFFCURVE",
"303 148 CURVE",
"264 29 OFFCURVE",
"246 -85 OFFCURVE",
"246 -204 CURVE",
"294 -219 OFFCURVE",
"402 -226 OFFCURVE",
"458 -207 CURVE"
);
},
{
closed = 1;
nodes = (
"682 225 OFFCURVE",
"697 440 OFFCURVE",
"741 664 CURVE",
"708 697 OFFCURVE",
"561 724 OFFCURVE",
"502 722 CURVE",
"461 543 OFFCURVE",
"433 261 OFFCURVE",
"437 61 CURVE",
"470 29 OFFCURVE",
"635 -14 OFFCURVE",
"673 -4 CURVE"
);
}
);
width = 740;
}
);
unicode = 040F;
},
{
glyphname = "Softsign-cy";
lastChange = "2018-01-02 13:38:07 +0000";
layers = (
{
layerId = "CF9497EE-3EC0-42B6-AB9D-60F0E4A560B4";
name = "Bold Italic";
paths = (
{
closed = 1;
nodes = (
"182 -60 OFFCURVE",
"632 -55 OFFCURVE",
"632 201 CURVE SMOOTH",
"632 359 OFFCURVE",
"499 450 OFFCURVE",
"300 397 CURVE SMOOTH",
"151 356 OFFCURVE",
"226 264 OFFCURVE",
"292 268 CURVE SMOOTH",
"419 274 OFFCURVE",
"432 117 OFFCURVE",
"330 97 CURVE SMOOTH",
"251 82 OFFCURVE",
"96 63 OFFCURVE",
"55 47 CURVE"
);
},
{
closed = 1;
nodes = (
"284 215 OFFCURVE",
"299 424 OFFCURVE",
"344 666 CURVE",
"311 699 OFFCURVE",
"163 726 OFFCURVE",
"105 724 CURVE",
"64 545 OFFCURVE",
"36 251 OFFCURVE",
"39 51 CURVE",
"73 18 OFFCURVE",
"238 -24 OFFCURVE",
"276 -14 CURVE"
);
}
);
width = 658;
}
);
leftMetricsKey = n;
rightMetricsKey = o;
unicode = 042C;
},
{
glyphname = "Hardsign-cy";
lastChange = "2018-01-05 19:53:56 +0000";
layers = (
{
components = (
{
name = "Softsign-cy";
transform = "{1, 0, 0, 1, 191, 0}";
}
);
layerId = "CF9497EE-3EC0-42B6-AB9D-60F0E4A560B4";
name = "Bold Italic";
paths = (
{
closed = 1;
nodes = (
"225 567 OFFCURVE",
"317 580 OFFCURVE",
"451 576 CURVE",
"456 619 OFFCURVE",
"311 674 OFFCURVE",
"296 724 CURVE",
"244 728 OFFCURVE",
"188 724 OFFCURVE",
"89 711 CURVE",
"83 668 OFFCURVE",
"90 557 OFFCURVE",
"111 530 CURVE"
);
}
);
width = 869;
}
);
unicode = 042A;
},
{
glyphname = "Lje-cy";
lastChange = "2017-11-27 15:32:02 +0000";
layers = (
{
layerId = "CF9497EE-3EC0-42B6-AB9D-60F0E4A560B4";
name = "Bold Italic";
paths = (
{
closed = 1;
nodes = (
"538 46 OFFCURVE",
"585 43 OFFCURVE",
"631 43 CURVE SMOOTH",
"682 43 OFFCURVE",
"733 46 OFFCURVE",
"760 60 CURVE",
"743 292 OFFCURVE",
"713 517 OFFCURVE",
"675 723 CURVE",
"656 724 OFFCURVE",
"635 725 OFFCURVE",
"613 725 CURVE SMOOTH",
"539 725 OFFCURVE",
"451 717 OFFCURVE",
"396 697 CURVE",
"456 511 OFFCURVE",
"493 284 OFFCURVE",
"508 47 CURVE"
);
},
{
closed = 1;
nodes = (
"380 181 OFFCURVE",
"435 356 OFFCURVE",
"500 543 CURVE",
"462 574 OFFCURVE",
"420 592 OFFCURVE",
"364 603 CURVE",
"288 445 OFFCURVE",
"180 283 OFFCURVE",
"26 114 CURVE",
"81 52 OFFCURVE",
"207 -1 OFFCURVE",
"263 -18 CURVE"
);
},
{
closed = 1;
nodes = (
"564 3 OFFCURVE",
"654 -20 OFFCURVE",
"746 -20 CURVE SMOOTH",
"934 -20 OFFCURVE",
"1085 56 OFFCURVE",
"1085 219 CURVE SMOOTH",
"1085 352 OFFCURVE",
"987 432 OFFCURVE",
"848 432 CURVE SMOOTH",
"723 432 OFFCURVE",
"648 388 OFFCURVE",
"648 350 CURVE SMOOTH",
"648 315 OFFCURVE",
"698 282 OFFCURVE",
"738 282 CURVE SMOOTH",
"812 282 OFFCURVE",
"845 241 OFFCURVE",
"845 199 CURVE SMOOTH",
"845 158 OFFCURVE",
"812 116 OFFCURVE",
"755 116 CURVE SMOOTH",
"675 116 OFFCURVE",
"549 63 OFFCURVE",
"508 47 CURVE"
);
}
);
width = 1130;
}
);
unicode = 0409;
},
{
glyphname = "Nje-cy";
lastChange = "2017-11-27 15:32:02 +0000";
layers = (
{
layerId = "CF9497EE-3EC0-42B6-AB9D-60F0E4A560B4";
name = "Bold Italic";
paths = (
{
closed = 1;
nodes = (
"284 211 OFFCURVE",
"298 442 OFFCURVE",
"344 663 CURVE",
"311 696 OFFCURVE",
"163 723 OFFCURVE",
"105 722 CURVE",
"63 540 OFFCURVE",
"36 246 OFFCURVE",
"39 46 CURVE",
"98 14 OFFCURVE",
"202 -12 OFFCURVE",
"276 -18 CURVE"
);
},
{
closed = 1;
nodes = (
"368 248 OFFCURVE",
"450 255 OFFCURVE",
"483 251 CURVE",
"483 309 OFFCURVE",
"493 381 OFFCURVE",
"471 440 CURVE",
"436 445 OFFCURVE",
"328 455 OFFCURVE",
"276 451 CURVE",
"284 386 OFFCURVE",
"297 280 OFFCURVE",
"321 238 CURVE"
);
},
{
closed = 1;
nodes = (
"579 -60 OFFCURVE",
"1029 -55 OFFCURVE",
"1029 201 CURVE SMOOTH",
"1029 359 OFFCURVE",
"896 450 OFFCURVE",
"697 397 CURVE SMOOTH",
"548 356 OFFCURVE",
"623 264 OFFCURVE",
"689 268 CURVE SMOOTH",
"816 274 OFFCURVE",
"829 117 OFFCURVE",
"727 97 CURVE SMOOTH",
"648 82 OFFCURVE",
"493 63 OFFCURVE",
"452 47 CURVE"
);
},
{
closed = 1;
nodes = (
"681 215 OFFCURVE",
"696 424 OFFCURVE",
"741 666 CURVE",
"708 699 OFFCURVE",
"560 726 OFFCURVE",
"502 724 CURVE",
"461 545 OFFCURVE",
"433 251 OFFCURVE",
"436 51 CURVE",
"470 18 OFFCURVE",
"635 -24 OFFCURVE",
"673 -14 CURVE"
);
}
);
width = 1075;
}
);
unicode = 040A;
},
{
glyphname = "E-cy";
lastChange = "2017-11-27 15:32:02 +0000";
layers = (
{
components = (
{
name = C;
}
);
layerId = "CF9497EE-3EC0-42B6-AB9D-60F0E4A560B4";
name = "Bold Italic";
paths = (
{
closed = 1;
nodes = (
"421 292 OFFCURVE",
"428 375 OFFCURVE",
"422 408 CURVE",
"329 417 OFFCURVE",
"275 420 OFFCURVE",
"227 417 CURVE",
"213 379 OFFCURVE",
"76 338 OFFCURVE",
"80 305 CURVE",
"207 309 OFFCURVE",
"293 300 OFFCURVE",
"402 272 CURVE"
);
}
);
width = 699;
}
);
unicode = 0404;
},
{
glyphname = "Ereversed-cy";
lastChange = "2018-01-05 18:51:32 +0000";
layers = (
{
layerId = "CF9497EE-3EC0-42B6-AB9D-60F0E4A560B4";
name = "Bold Italic";
paths = (
{
closed = 1;
nodes = (
"749 -18 OFFCURVE",
"839 723 OFFCURVE",
"332 723 CURVE SMOOTH",
"173 723 OFFCURVE",
"96 654 OFFCURVE",
"99 584 CURVE SMOOTH",
"100 526 OFFCURVE",
"132 489 OFFCURVE",
"180 489 CURVE SMOOTH",
"253 489 OFFCURVE",
"266 536 OFFCURVE",
"317 536 CURVE SMOOTH",
"474 536 OFFCURVE",
"454 146 OFFCURVE",
"279 146 CURVE SMOOTH",
"215 146 OFFCURVE",
"143 192 OFFCURVE",
"101 242 CURVE",
"80 217 OFFCURVE",
"40 149 OFFCURVE",
"27 126 CURVE",
"103 25 OFFCURVE",
"209 -18 OFFCURVE",
"326 -18 CURVE SMOOTH"
);
},
{
closed = 1;
nodes = (
"395 300 OFFCURVE",
"481 309 OFFCURVE",
"608 305 CURVE",
"612 338 OFFCURVE",
"475 379 OFFCURVE",
"461 417 CURVE",
"413 420 OFFCURVE",
"359 417 OFFCURVE",
"266 408 CURVE",
"260 375 OFFCURVE",
"267 292 OFFCURVE",
"286 272 CURVE"
);
}
);
width = 707;
}
);
unicode = 042D;
},
{
glyphname = "Tshe-cy";
lastChange = "2017-11-27 15:32:02 +0000";
layers = (
{
layerId = "CF9497EE-3EC0-42B6-AB9D-60F0E4A560B4";
name = "Bold Italic";
paths = (
{
closed = 1;
nodes = (
"487 128 OFFCURVE",
"500 348 OFFCURVE",
"522 491 CURVE",
"484 521 OFFCURVE",
"344 551 OFFCURVE",
"286 550 CURVE SMOOTH",
"262 407 OFFCURVE",
"244 205 OFFCURVE",
"247 48 CURVE",
"281 16 OFFCURVE",
"446 -27 OFFCURVE",
"484 -16 CURVE"
);
},
{
closed = 1;
nodes = (
"320 533 OFFCURVE",
"493 543 OFFCURVE",
"711 523 CURVE",
"718 573 OFFCURVE",
"721 645 OFFCURVE",
"706 709 CURVE",
"502 733 OFFCURVE",
"268 742 OFFCURVE",
"90 724 CURVE",
"81 675 OFFCURVE",
"100 561 OFFCURVE",
"127 514 CURVE"
);
},
{
closed = 1;
nodes = (
"460 287 OFFCURVE",
"468 285 OFFCURVE",
"498 279 CURVE",
"544 363 OFFCURVE",
"659 328 OFFCURVE",
"657 247 CURVE SMOOTH",
"654 148 OFFCURVE",
"652 108 OFFCURVE",
"647 17 CURVE",
"682 -7 OFFCURVE",
"821 -23 OFFCURVE",
"878 -18 CURVE",
"888 48 OFFCURVE",
"896 116 OFFCURVE",
"900 213 CURVE SMOOTH",
"911 442 OFFCURVE",
"573 581 OFFCURVE",
"410 287 CURVE"
);
}
);
width = 949;
}
);
unicode = 040B;
},
{
glyphname = "Iu-cy";
lastChange = "2017-11-27 15:32:02 +0000";
layers = (
{
components = (
{
name = O;
transform = "{1, 0, 0, 1, 321, 0}";
},
{
name = I;
}
);
layerId = "CF9497EE-3EC0-42B6-AB9D-60F0E4A560B4";
name = "Bold Italic";
paths = (
{
closed = 1;
nodes = (
"325 278 OFFCURVE",
"416 292 OFFCURVE",
"550 287 CURVE",
"555 330 OFFCURVE",
"425 385 OFFCURVE",
"410 435 CURVE",
"359 439 OFFCURVE",
"287 436 OFFCURVE",
"188 423 CURVE",
"182 380 OFFCURVE",
"190 268 OFFCURVE",
"210 241 CURVE"
);
}
);
width = 1057;
}
);
unicode = 042E;
},
{
glyphname = "Ia-cy";
lastChange = "2018-01-05 18:47:33 +0000";
layers = (
{
layerId = "CF9497EE-3EC0-42B6-AB9D-60F0E4A560B4";
name = "Bold Italic";
paths = (
{
closed = 1;
nodes = (
"421 243 OFFCURVE",
"534 265 OFFCURVE",
"578 324 CURVE",
"559 352 OFFCURVE",
"520 408 OFFCURVE",
"511 419 CURVE",
"412 367 OFFCURVE",
"328 398 OFFCURVE",
"328 487 CURVE SMOOTH",
"328 546 OFFCURVE",
"360 574 OFFCURVE",
"389 573 CURVE SMOOTH",
"426 573 OFFCURVE",
"447 533 OFFCURVE",
"445 512 CURVE SMOOTH",
"443 494 OFFCURVE",
"452 503 OFFCURVE",
"485 500 CURVE SMOOTH",
"518 496 OFFCURVE",
"527 515 OFFCURVE",
"526 557 CURVE SMOOTH",
"524 648 OFFCURVE",
"470 720 OFFCURVE",
"366 722 CURVE SMOOTH",
"199 724 OFFCURVE",
"109 597 OFFCURVE",
"107 474 CURVE SMOOTH",
"105 357 OFFCURVE",
"182 243 OFFCURVE",
"346 243 CURVE SMOOTH"
);
},
{
closed = 1;
nodes = (
"283 69 OFFCURVE",
"334 159 OFFCURVE",
"390 272 CURVE",
"207 324 LINE",
"158 239 OFFCURVE",
"86 152 OFFCURVE",
"25 106 CURVE",
"62 66 OFFCURVE",
"146 5 OFFCURVE",
"216 -21 CURVE"
);
},
{
closed = 1;
nodes = (
"654 211 OFFCURVE",
"676 440 OFFCURVE",
"720 664 CURVE",
"687 697 OFFCURVE",
"540 724 OFFCURVE",
"482 723 CURVE",
"440 544 OFFCURVE",
"406 246 OFFCURVE",
"409 46 CURVE",
"452 14 OFFCURVE",
"591 -28 OFFCURVE",
"646 -18 CURVE"
);
}
);
width = 716;
}
);
unicode = 042F;
},
{
glyphname = "Dje-cy";
lastChange = "2017-11-27 15:32:02 +0000";
layers = (
{
layerId = "CF9497EE-3EC0-42B6-AB9D-60F0E4A560B4";
name = "Bold Italic";
paths = (
{
closed = 1;
nodes = (
"487 128 OFFCURVE",
"500 348 OFFCURVE",
"522 491 CURVE",
"484 521 OFFCURVE",
"344 551 OFFCURVE",
"286 550 CURVE SMOOTH",
"262 407 OFFCURVE",
"244 205 OFFCURVE",
"247 48 CURVE",
"281 16 OFFCURVE",
"446 -27 OFFCURVE",
"484 -16 CURVE"
);
},
{
closed = 1;
nodes = (
"320 533 OFFCURVE",
"493 543 OFFCURVE",
"711 523 CURVE",
"718 573 OFFCURVE",
"721 645 OFFCURVE",
"706 709 CURVE",
"502 733 OFFCURVE",
"268 742 OFFCURVE",
"90 724 CURVE",
"81 675 OFFCURVE",
"100 561 OFFCURVE",
"127 514 CURVE"
);
},
{
closed = 1;
nodes = (
"460 287 OFFCURVE",
"468 285 OFFCURVE",
"498 279 CURVE",
"544 363 OFFCURVE",
"657 328 OFFCURVE",
"657 247 CURVE SMOOTH",
"657 150 OFFCURVE",
"624 33 OFFCURVE",
"557 -69 CURVE",
"576 -93 OFFCURVE",
"592 -125 OFFCURVE",
"616 -156 CURVE",
"790 -69 OFFCURVE",
"891 67 OFFCURVE",
"900 213 CURVE SMOOTH",
"914 442 OFFCURVE",
"573 581 OFFCURVE",
"410 287 CURVE"
);
}
);
width = 944;
}
);
unicode = 0402;
},
{
glyphname = "Yat-cy";
lastChange = "2017-11-27 15:32:02 +0000";
layers = (
{
layerId = "CF9497EE-3EC0-42B6-AB9D-60F0E4A560B4";
name = "Bold Italic";
paths = (
{
closed = 1;
nodes = (
"275 -60 OFFCURVE",
"725 -55 OFFCURVE",
"725 201 CURVE SMOOTH",
"725 359 OFFCURVE",
"592 450 OFFCURVE",
"393 397 CURVE SMOOTH",
"244 356 OFFCURVE",
"319 264 OFFCURVE",
"385 268 CURVE SMOOTH",
"512 274 OFFCURVE",
"525 117 OFFCURVE",
"423 97 CURVE SMOOTH",
"344 82 OFFCURVE",
"189 63 OFFCURVE",
"148 47 CURVE"
);
},
{
closed = 1;
nodes = (
"377 215 OFFCURVE",
"392 424 OFFCURVE",
"437 666 CURVE",
"404 699 OFFCURVE",
"256 726 OFFCURVE",
"198 724 CURVE",
"157 545 OFFCURVE",
"129 251 OFFCURVE",
"132 51 CURVE",
"166 18 OFFCURVE",
"331 -24 OFFCURVE",
"369 -14 CURVE"
);
},
{
closed = 1;
nodes = (
"75 594 OFFCURVE",
"70 557 OFFCURVE",
"70 506 CURVE",
"232 509 OFFCURVE",
"398 492 OFFCURVE",
"562 467 CURVE",
"574 520 OFFCURVE",
"579 573 OFFCURVE",
"579 637 CURVE",
"412 650 OFFCURVE",
"252 650 OFFCURVE",
"89 638 CURVE"
);
}
);
width = 771;
}
);
unicode = 0462;
},
{
glyphname = "Fita-cy";
lastChange = "2017-11-27 15:32:02 +0000";
layers = (
{
layerId = "CF9497EE-3EC0-42B6-AB9D-60F0E4A560B4";
name = "Bold Italic";
paths = (
{
closed = 1;
nodes = (
"169 723 OFFCURVE",
"48 530 OFFCURVE",
"48 287 CURVE SMOOTH",
"48 120 OFFCURVE",
"156 -18 OFFCURVE",
"359 -18 CURVE SMOOTH",
"549 -18 OFFCURVE",
"709 172 OFFCURVE",
"709 393 CURVE SMOOTH",
"709 611 OFFCURVE",
"612 723 OFFCURVE",
"424 723 CURVE SMOOTH"
);
},
{
closed = 1;
nodes = (
"336 155 OFFCURVE",
"298 210 OFFCURVE",
"298 299 CURVE SMOOTH",
"298 451 OFFCURVE",
"349 577 OFFCURVE",
"437 577 CURVE SMOOTH",
"503 577 OFFCURVE",
"541 497 OFFCURVE",
"543 416 CURVE SMOOTH",
"544 284 OFFCURVE",
"487 155 OFFCURVE",
"401 155 CURVE SMOOTH"
);
},
{
closed = 1;
nodes = (
"383 337 OFFCURVE",
"450 192 OFFCURVE",
"592 308 CURVE SMOOTH",
"657 361 OFFCURVE",
"679 528 OFFCURVE",
"579 470 CURVE SMOOTH",
"444 392 OFFCURVE",
"375 535 OFFCURVE",
"237 454 CURVE SMOOTH",
"189 425 OFFCURVE",
"153 183 OFFCURVE",
"237 239 CURVE SMOOTH"
);
}
);
width = 736;
}
);
unicode = 0472;
},
{
glyphname = "Izhitsa-cy";
lastChange = "2017-11-27 15:32:02 +0000";
layers = (
{
layerId = "CF9497EE-3EC0-42B6-AB9D-60F0E4A560B4";
name = "Bold Italic";
paths = (
{
closed = 1;
nodes = (
"377 -22 OFFCURVE",
"505 -19 OFFCURVE",
"575 9 CURVE",
"493 181 OFFCURVE",
"375 553 OFFCURVE",
"328 725 CURVE",
"265 728 OFFCURVE",
"138 703 OFFCURVE",
"85 676 CURVE",
"131 453 OFFCURVE",
"215 157 OFFCURVE",
"296 -17 CURVE"
);
},
{
closed = 1;
nodes = (
"706 524 OFFCURVE",
"786 604 OFFCURVE",
"893 614 CURVE",
"903 651 OFFCURVE",
"908 697 OFFCURVE",
"902 738 CURVE",
"644 801 OFFCURVE",
"476 711 OFFCURVE",
"411 89 CURVE",
"450 42 OFFCURVE",
"492 48 OFFCURVE",
"548 29 CURVE"
);
}
);
width = 899;
}
);
unicode = 0474;
},
{
glyphname = "De-cy.ss01";
lastChange = "2017-11-27 15:32:02 +0000";
layers = (
{
layerId = "CF9497EE-3EC0-42B6-AB9D-60F0E4A560B4";
name = "Bold Italic";
paths = (
{
closed = 1;
nodes = (
"376 187 OFFCURVE",
"435 410 OFFCURVE",
"471 631 CURVE",
"432 677 OFFCURVE",
"390 672 OFFCURVE",
"334 691 CURVE",
"279 456 OFFCURVE",
"218 282 OFFCURVE",
"62 106 CURVE",
"118 44 OFFCURVE",
"225 12 OFFCURVE",
"281 -5 CURVE"
);
},
{
closed = 1;
nodes = (
"211 -60 OFFCURVE",
"221 2 OFFCURVE",
"220 123 CURVE",
"173 136 OFFCURVE",
"109 156 OFFCURVE",
"49 158 CURVE",
"41 33 OFFCURVE",
"26 -54 OFFCURVE",
"-4 -164 CURVE",
"41 -178 OFFCURVE",
"143 -185 OFFCURVE",
"195 -169 CURVE"
);
},
{
closed = 1;
nodes = (
"319 -10 OFFCURVE",
"491 -4 OFFCURVE",
"742 -10 CURVE",
"750 33 OFFCURVE",
"765 100 OFFCURVE",
"736 151 CURVE",
"504 172 OFFCURVE",
"252 173 OFFCURVE",
"49 158 CURVE",
"38 115 OFFCURVE",
"53 3 OFFCURVE",
"91 -24 CURVE"
);
},
{
closed = 1;
nodes = (
"808 -56 OFFCURVE",
"815 0 OFFCURVE",
"838 151 CURVE",
"788 165 OFFCURVE",
"718 171 OFFCURVE",
"653 173 CURVE",
"614 53 OFFCURVE",
"596 -43 OFFCURVE",
"596 -162 CURVE",
"644 -177 OFFCURVE",
"752 -184 OFFCURVE",
"808 -165 CURVE"
);
},
{
closed = 1;
nodes = (
"726 224 OFFCURVE",
"741 431 OFFCURVE",
"785 655 CURVE",
"752 688 OFFCURVE",
"605 715 OFFCURVE",
"546 714 CURVE",
"505 535 OFFCURVE",
"477 259 OFFCURVE",
"481 59 CURVE",
"514 27 OFFCURVE",
"680 -15 OFFCURVE",
"718 -5 CURVE"
);
},
{
closed = 1;
nodes = (
"453 557 OFFCURVE",
"532 558 OFFCURVE",
"661 551 CURVE",
"665 592 OFFCURVE",
"667 647 OFFCURVE",
"658 700 CURVE",
"541 726 OFFCURVE",
"427 723 OFFCURVE",
"310 707 CURVE",
"304 667 OFFCURVE",
"311 561 OFFCURVE",
"331 535 CURVE"
);
}
);
width = 892;
}
);
},
{
glyphname = "El-cy.ss01";
lastChange = "2017-11-27 15:32:02 +0000";
layers = (
{
layerId = "CF9497EE-3EC0-42B6-AB9D-60F0E4A560B4";
name = "Bold Italic";
paths = (
{
closed = 1;
nodes = (
"337 169 OFFCURVE",
"393 434 OFFCURVE",
"432 639 CURVE",
"393 685 OFFCURVE",
"351 680 OFFCURVE",
"295 699 CURVE",
"236 479 OFFCURVE",
"150 257 OFFCURVE",
"23 85 CURVE",
"79 22 OFFCURVE",
"186 -7 OFFCURVE",
"242 -24 CURVE"
);
},
{
closed = 1;
nodes = (
"719 208 OFFCURVE",
"734 439 OFFCURVE",
"778 663 CURVE",
"745 696 OFFCURVE",
"598 723 OFFCURVE",
"540 722 CURVE",
"498 543 OFFCURVE",
"471 243 OFFCURVE",
"474 43 CURVE",
"507 11 OFFCURVE",
"673 -31 OFFCURVE",
"711 -21 CURVE"
);
},
{
closed = 1;
nodes = (
"430 563 OFFCURVE",
"523 567 OFFCURVE",
"670 561 CURVE",
"675 601 OFFCURVE",
"674 653 OFFCURVE",
"664 706 CURVE",
"537 737 OFFCURVE",
"394 726 OFFCURVE",
"271 715 CURVE",
"265 675 OFFCURVE",
"273 571 OFFCURVE",
"295 545 CURVE"
);
}
);
width = 779;
}
);
},
{
glyphname = "be-cy";
lastChange = "2018-01-02 13:38:07 +0000";
layers = (
{
layerId = "CF9497EE-3EC0-42B6-AB9D-60F0E4A560B4";
name = "Bold Italic";
paths = (
{
closed = 1;
nodes = (
"269 512 OFFCURVE",
"207 449 CURVE",
"276 531 OFFCURVE",
"380 517 OFFCURVE",
"543 576 CURVE",
"541 631 OFFCURVE",
"517 708 OFFCURVE",
"487 759 CURVE",
"354 689 OFFCURVE",
"246 694 OFFCURVE",
"147 595 CURVE SMOOTH",
"72 520 OFFCURVE",
"25 411 OFFCURVE",
"25 269 CURVE SMOOTH",
"25 83 OFFCURVE",
"114 -22 OFFCURVE",
"255 -22 CURVE SMOOTH",
"408 -22 OFFCURVE",
"506 101 OFFCURVE",
"506 270 CURVE SMOOTH",
"506 500 OFFCURVE"
);
},
{
closed = 1;
nodes = (
"254 188 OFFCURVE",
"242 223 OFFCURVE",
"242 255 CURVE SMOOTH",
"242 302 OFFCURVE",
"267 357 OFFCURVE",
"300 357 CURVE SMOOTH",
"329 357 OFFCURVE",
"342 326 OFFCURVE",
"342 291 CURVE SMOOTH",
"342 244 OFFCURVE",
"323 188 OFFCURVE",
"284 188 CURVE SMOOTH"
);
}
);
width = 529;
}
);
leftMetricsKey = o;
rightMetricsKey = o;
unicode = 0431;
},
{
glyphname = "ve-cy";
lastChange = "2018-01-02 13:38:07 +0000";
layers = (
{
layerId = "CF9497EE-3EC0-42B6-AB9D-60F0E4A560B4";
name = "Bold Italic";
paths = (
{
closed = 1;
nodes = (
"413 208 OFFCURVE",
"497 286 OFFCURVE",
"497 366 CURVE SMOOTH",
"497 481 OFFCURVE",
"402 517 OFFCURVE",
"288 517 CURVE SMOOTH",
"211 517 OFFCURVE",
"129 498 OFFCURVE",
"68 470 CURVE",
"70 422 OFFCURVE",
"97 391 OFFCURVE",
"127 350 CURVE",
"168 378 OFFCURVE",
"227 398 OFFCURVE",
"272 398 CURVE SMOOTH",
"312 398 OFFCURVE",
"337 384 OFFCURVE",
"337 348 CURVE SMOOTH",
"337 320 OFFCURVE",
"312 291 OFFCURVE",
"266 291 CURVE SMOOTH",
"207 291 OFFCURVE",
"216 -79 OFFCURVE",
"252 219 CURVE SMOOTH"
);
},
{
closed = 1;
nodes = (
"248 125 OFFCURVE",
"256 283 OFFCURVE",
"277 401 CURVE",
"241 425 OFFCURVE",
"131 465 OFFCURVE",
"69 471 CURVE",
"45 348 OFFCURVE",
"37 220 OFFCURVE",
"42 58 CURVE",
"101 27 OFFCURVE",
"197 0 OFFCURVE",
"248 0 CURVE"
);
},
{
closed = 1;
nodes = (
"210 -66 OFFCURVE",
"519 -38 OFFCURVE",
"519 132 CURVE SMOOTH",
"519 226 OFFCURVE",
"420 312 OFFCURVE",
"241 271 CURVE SMOOTH",
"118 243 OFFCURVE",
"201 205 OFFCURVE",
"257 205 CURVE SMOOTH",
"330 205 OFFCURVE",
"355 103 OFFCURVE",
"270 90 CURVE SMOOTH",
"205 79 OFFCURVE",
"76 69 OFFCURVE",
"43 58 CURVE"
);
}
);
width = 552;
}
);
leftMetricsKey = n;
rightMetricsKey = o;
unicode = 0432;
},
{
glyphname = "ge-cy";
lastChange = "2018-01-02 13:38:07 +0000";
layers = (
{
anchors = (
{
name = top;
position = "{264, 524}";
}
);
layerId = "CF9497EE-3EC0-42B6-AB9D-60F0E4A560B4";
name = "Bold Italic";
paths = (
{
closed = 1;
nodes = (
"241 88 OFFCURVE",
"252 228 OFFCURVE",
"280 326 CURVE",
"251 356 OFFCURVE",
"119 381 OFFCURVE",
"68 379 CURVE",
"44 267 OFFCURVE",
"28 135 OFFCURVE",
"30 40 CURVE",
"79 -5 OFFCURVE",
"189 -18 OFFCURVE",
"241 -18 CURVE"
);
},
{
closed = 1;
nodes = (
"231 345 OFFCURVE",
"313 345 OFFCURVE",
"462 332 CURVE",
"467 374 OFFCURVE",
"467 456 OFFCURVE",
"457 510 CURVE",
"322 528 OFFCURVE",
"196 526 OFFCURVE",
"68 511 CURVE",
"61 468 OFFCURVE",
"70 358 OFFCURVE",
"94 332 CURVE"
);
}
);
width = 463;
}
);
leftMetricsKey = n;
rightMetricsKey = x;
unicode = 0433;
},
{
glyphname = "gheupturn-cy";
lastChange = "2017-11-27 15:32:02 +0000";
layers = (
{
components = (
{
name = "ge-cy";
}
);
layerId = "CF9497EE-3EC0-42B6-AB9D-60F0E4A560B4";
name = "Bold Italic";
paths = (
{
closed = 1;
nodes = (
"445 490 OFFCURVE",
"449 571 OFFCURVE",
"465 654 CURVE",
"415 664 OFFCURVE",
"363 664 OFFCURVE",
"316 658 CURVE",
"312 574 OFFCURVE",
"315 500 OFFCURVE",
"338 423 CURVE",
"456 404 LINE"
);
}
);
width = 504;
}
);
unicode = 0491;
},
{
glyphname = "de-cy";
lastChange = "2018-01-08 14:36:53 +0000";
layers = (
{
layerId = "CF9497EE-3EC0-42B6-AB9D-60F0E4A560B4";
name = "Bold Italic";
paths = (
{
closed = 1;
nodes = (
"426 -20 OFFCURVE",
"529 150 OFFCURVE",
"529 397 CURVE SMOOTH",
"529 600 OFFCURVE",
"415 799 OFFCURVE",
"127 799 CURVE",
"92 765 OFFCURVE",
"73 663 OFFCURVE",
"84 609 CURVE",
"299 597 OFFCURVE",
"368 481 OFFCURVE",
"368 374 CURVE SMOOTH",
"368 265 OFFCURVE",
"328 191 OFFCURVE",
"258 191 CURVE SMOOTH",
"221 191 OFFCURVE",
"199 218 OFFCURVE",
"199 261 CURVE SMOOTH",
"199 317 OFFCURVE",
"229 376 OFFCURVE",
"280 376 CURVE SMOOTH",
"326 376 OFFCURVE",
"351 343 OFFCURVE",
"351 256 CURVE SMOOTH",
"351 221 OFFCURVE",
"381 362 OFFCURVE",
"389 397 CURVE",
"360 474 OFFCURVE",
"329 515 OFFCURVE",
"229 515 CURVE SMOOTH",
"102 515 OFFCURVE",
"19 374 OFFCURVE",
"19 223 CURVE SMOOTH",
"19 98 OFFCURVE",
"88 -20 OFFCURVE",
"237 -20 CURVE SMOOTH"
);
}
);
width = 538;
}
);
leftMetricsKey = o;
rightMetricsKey = o;
unicode = 0434;
},
{
glyphname = "zhe-cy";
lastChange = "2018-01-02 13:38:07 +0000";
layers = (
{
layerId = "CF9497EE-3EC0-42B6-AB9D-60F0E4A560B4";
name = "Bold Italic";
paths = (
{
closed = 1;
nodes = (
"736 -2 OFFCURVE",
"815 53 OFFCURVE",
"847 88 CURVE",
"811 134 OFFCURVE",
"749 205 OFFCURVE",
"696 245 CURVE",
"746 285 OFFCURVE",
"804 356 OFFCURVE",
"844 421 CURVE",
"812 457 OFFCURVE",
"748 509 OFFCURVE",
"696 524 CURVE",
"647 442 OFFCURVE",
"550 320 OFFCURVE",
"479 248 CURVE",
"551 179 OFFCURVE",
"629 63 OFFCURVE",
"680 -18 CURVE"
);
},
{
closed = 1;
nodes = (
"230 64 OFFCURVE",
"308 181 OFFCURVE",
"379 250 CURVE",
"307 322 OFFCURVE",
"225 453 OFFCURVE",
"176 524 CURVE",
"123 508 OFFCURVE",
"61 457 OFFCURVE",
"28 419 CURVE",
"69 355 OFFCURVE",
"112 286 OFFCURVE",
"162 246 CURVE",
"109 205 OFFCURVE",
"34 127 OFFCURVE",
"-1 76 CURVE",
"40 42 OFFCURVE",
"124 -2 OFFCURVE",
"180 -18 CURVE"
);
},
{
closed = 1;
nodes = (
"520 155 OFFCURVE",
"545 311 OFFCURVE",
"573 470 CURVE",
"543 500 OFFCURVE",
"408 525 OFFCURVE",
"354 524 CURVE",
"319 387 OFFCURVE",
"298 203 OFFCURVE",
"304 41 CURVE",
"354 -4 OFFCURVE",
"468 -18 OFFCURVE",
"521 -18 CURVE"
);
}
);
width = 874;
}
);
leftMetricsKey = x;
rightMetricsKey = x;
unicode = 0436;
},
{
glyphname = "ze-cy";
lastChange = "2018-01-02 13:38:07 +0000";
layers = (
{
layerId = "CF9497EE-3EC0-42B6-AB9D-60F0E4A560B4";
name = "Bold Italic";
paths = (
{
closed = 1;
nodes = (
"151 -76 OFFCURVE",
"492 -38 OFFCURVE",
"492 158 CURVE SMOOTH",
"492 258 OFFCURVE",
"407 303 OFFCURVE",
"223 296 CURVE",
"216 258 OFFCURVE",
"215 240 OFFCURVE",
"221 203 CURVE",
"330 202 OFFCURVE",
"294 43 OFFCURVE",
"68 172 CURVE",
"33 131 OFFCURVE",
"15 105 OFFCURVE",
"2 75 CURVE"
);
},
{
closed = 1;
nodes = (
"53 571 OFFCURVE",
"53 378 CURVE SMOOTH",
"53 327 OFFCURVE",
"83 288 OFFCURVE",
"132 288 CURVE SMOOTH",
"242 288 OFFCURVE",
"170 395 OFFCURVE",
"269 395 CURVE SMOOTH",
"337 395 OFFCURVE",
"336 303 OFFCURVE",
"223 296 CURVE",
"223 251 OFFCURVE",
"223 237 OFFCURVE",
"221 203 CURVE",
"392 205 OFFCURVE",
"484 295 OFFCURVE",
"484 378 CURVE SMOOTH",
"484 581 OFFCURVE"
);
}
);
width = 523;
}
);
leftMetricsKey = o;
rightMetricsKey = o;
unicode = 0437;
},
{
glyphname = "ii-cy";
lastChange = "2018-01-02 13:38:07 +0000";
layers = (
{
anchors = (
{
name = top;
position = "{339, 524}";
}
);
layerId = "CF9497EE-3EC0-42B6-AB9D-60F0E4A560B4";
name = "Bold Italic";
paths = (
{
closed = 1;
nodes = (
"605 153 OFFCURVE",
"622 331 OFFCURVE",
"650 470 CURVE",
"610 501 OFFCURVE",
"485 525 OFFCURVE",
"432 524 CURVE",
"397 387 OFFCURVE",
"380 203 OFFCURVE",
"386 41 CURVE",
"437 -4 OFFCURVE",
"550 -18 OFFCURVE",
"604 -18 CURVE"
);
},
{
closed = 1;
nodes = (
"252 155 OFFCURVE",
"271 316 OFFCURVE",
"299 475 CURVE",
"269 505 OFFCURVE",
"139 527 OFFCURVE",
"86 526 CURVE",
"51 389 OFFCURVE",
"29 208 OFFCURVE",
"35 46 CURVE",
"86 1 OFFCURVE",
"199 -18 OFFCURVE",
"253 -18 CURVE"
);
},
{
closed = 1;
nodes = (
"309 69 OFFCURVE",
"406 280 OFFCURVE",
"430 345 CURVE SMOOTH",
"450 400 OFFCURVE",
"461 476 OFFCURVE",
"432 524 CURVE",
"377 401 OFFCURVE",
"316 302 OFFCURVE",
"266 238 CURVE SMOOTH",
"228 189 OFFCURVE",
"219 23 OFFCURVE",
"253 -18 CURVE"
);
}
);
width = 672;
}
);
leftKerningGroup = "ii-cy";
leftMetricsKey = n;
rightKerningGroup = "ii-cy";
rightMetricsKey = n;
unicode = 0438;
},
{
glyphname = "ka-cy";
lastChange = "2018-01-02 13:38:07 +0000";
layers = (
{
anchors = (
{
name = top;
position = "{330, 500}";
}
);
layerId = "CF9497EE-3EC0-42B6-AB9D-60F0E4A560B4";
name = "Bold Italic";
paths = (
{
closed = 1;
nodes = (
"478 -3 OFFCURVE",
"557 52 OFFCURVE",
"589 87 CURVE",
"553 138 OFFCURVE",
"500 205 OFFCURVE",
"447 245 CURVE",
"497 286 OFFCURVE",
"549 350 OFFCURVE",
"589 415 CURVE",
"556 452 OFFCURVE",
"493 503 OFFCURVE",
"440 518 CURVE",
"391 447 OFFCURVE",
"301 320 OFFCURVE",
"230 248 CURVE",
"302 180 OFFCURVE",
"371 63 OFFCURVE",
"422 -18 CURVE"
);
},
{
closed = 1;
nodes = (
"250 155 OFFCURVE",
"276 304 OFFCURVE",
"304 463 CURVE",
"274 494 OFFCURVE",
"139 518 OFFCURVE",
"86 517 CURVE",
"50 380 OFFCURVE",
"28 203 OFFCURVE",
"34 41 CURVE",
"85 -4 OFFCURVE",
"198 -18 OFFCURVE",
"251 -18 CURVE"
);
}
);
width = 616;
}
);
leftMetricsKey = n;
rightMetricsKey = x;
unicode = 043A;
},
{
glyphname = "el-cy";
lastChange = "2018-01-05 19:04:54 +0000";
layers = (
{
layerId = "CF9497EE-3EC0-42B6-AB9D-60F0E4A560B4";
name = "Bold Italic";
paths = (
{
closed = 1;
nodes = (
"441 -21 OFFCURVE",
"556 7 OFFCURVE",
"604 31 CURVE",
"578 170 OFFCURVE",
"514 371 OFFCURVE",
"439 515 CURVE",
"366 520 OFFCURVE",
"251 511 OFFCURVE",
"186 491 CURVE",
"260 335 OFFCURVE",
"341 138 OFFCURVE",
"383 -18 CURVE"
);
},
{
closed = 1;
nodes = (
"230 102 OFFCURVE",
"275 225 OFFCURVE",
"305 379 CURVE",
"270 421 OFFCURVE",
"237 474 OFFCURVE",
"186 491 CURVE",
"146 335 OFFCURVE",
"97 220 OFFCURVE",
"-7 90 CURVE",
"34 43 OFFCURVE",
"116 -2 OFFCURVE",
"167 -18 CURVE"
);
}
);
width = 637;
}
);
leftMetricsKey = x;
rightMetricsKey = x;
unicode = 043B;
},
{
glyphname = "em-cy";
lastChange = "2018-01-02 13:38:07 +0000";
layers = (
{
layerId = "CF9497EE-3EC0-42B6-AB9D-60F0E4A560B4";
name = "Bold Italic";
paths = (
{
closed = 1;
nodes = (
"527 248 OFFCURVE",
"600 351 OFFCURVE",
"727 445 CURVE",
"688 481 OFFCURVE",
"603 504 OFFCURVE",
"531 517 CURVE",
"455 434 OFFCURVE",
"421 322 OFFCURVE",
"360 193 CURVE",
"399 158 OFFCURVE",
"374 126 OFFCURVE",
"430 114 CURVE"
);
},
{
closed = 1;
nodes = (
"355 110 OFFCURVE",
"410 110 OFFCURVE",
"430 114 CURVE",
"379 181 OFFCURVE",
"332 320 OFFCURVE",
"300 462 CURVE",
"254 437 OFFCURVE",
"210 417 OFFCURVE",
"182 369 CURVE",
"223 268 OFFCURVE",
"266 184 OFFCURVE",
"336 117 CURVE"
);
},
{
closed = 1;
nodes = (
"705 149 OFFCURVE",
"723 312 OFFCURVE",
"750 475 CURVE",
"710 500 OFFCURVE",
"584 518 OFFCURVE",
"531 517 CURVE",
"497 381 OFFCURVE",
"481 220 OFFCURVE",
"485 53 CURVE",
"535 9 OFFCURVE",
"648 -4 OFFCURVE",
"703 -6 CURVE"
);
},
{
closed = 1;
nodes = (
"253 154 OFFCURVE",
"272 303 OFFCURVE",
"300 462 CURVE",
"270 492 OFFCURVE",
"135 517 OFFCURVE",
"82 516 CURVE",
"47 379 OFFCURVE",
"30 202 OFFCURVE",
"36 40 CURVE",
"87 -5 OFFCURVE",
"200 -19 OFFCURVE",
"254 -19 CURVE"
);
}
);
width = 770;
}
);
leftMetricsKey = n;
rightMetricsKey = n;
unicode = 043C;
},
{
glyphname = "en-cy";
lastChange = "2018-01-02 13:38:07 +0000";
layers = (
{
layerId = "CF9497EE-3EC0-42B6-AB9D-60F0E4A560B4";
name = "Bold Italic";
paths = (
{
closed = 1;
nodes = (
"603 154 OFFCURVE",
"623 303 OFFCURVE",
"651 463 CURVE",
"621 493 OFFCURVE",
"485 518 OFFCURVE",
"432 517 CURVE",
"397 380 OFFCURVE",
"380 203 OFFCURVE",
"386 41 CURVE",
"436 -3 OFFCURVE",
"549 -16 OFFCURVE",
"604 -18 CURVE"
);
},
{
closed = 1;
nodes = (
"253 154 OFFCURVE",
"272 303 OFFCURVE",
"300 462 CURVE",
"270 492 OFFCURVE",
"135 517 OFFCURVE",
"82 516 CURVE",
"47 379 OFFCURVE",
"30 202 OFFCURVE",
"36 40 CURVE",
"87 -5 OFFCURVE",
"200 -19 OFFCURVE",
"254 -19 CURVE"
);
},
{
closed = 1;
nodes = (
"357 196 OFFCURVE",
"426 202 OFFCURVE",
"496 202 CURVE SMOOTH",
"553 202 OFFCURVE",
"576 267 OFFCURVE",
"598 318 CURVE",
"472 327 OFFCURVE",
"349 317 OFFCURVE",
"264 311 CURVE",
"264 258 OFFCURVE",
"270 216 OFFCURVE",
"283 187 CURVE"
);
}
);
width = 672;
}
);
leftMetricsKey = n;
rightMetricsKey = n;
unicode = 043D;
},
{
glyphname = "pe-cy";
lastChange = "2018-01-02 13:38:07 +0000";
layers = (
{
layerId = "CF9497EE-3EC0-42B6-AB9D-60F0E4A560B4";
name = "Bold Italic";
paths = (
{
closed = 1;
nodes = (
"584 156 OFFCURVE",
"593 261 OFFCURVE",
"621 419 CURVE",
"591 449 OFFCURVE",
"467 501 OFFCURVE",
"413 500 CURVE",
"378 363 OFFCURVE",
"362 203 OFFCURVE",
"368 41 CURVE",
"419 -4 OFFCURVE",
"532 -18 OFFCURVE",
"585 -18 CURVE"
);
},
{
closed = 1;
nodes = (
"268 80 OFFCURVE",
"280 236 OFFCURVE",
"294 318 CURVE",
"264 348 OFFCURVE",
"128 375 OFFCURVE",
"75 374 CURVE",
"58 285 OFFCURVE",
"50 146 OFFCURVE",
"52 41 CURVE",
"102 -4 OFFCURVE",
"215 -18 OFFCURVE",
"269 -18 CURVE"
);
},
{
closed = 1;
nodes = (
"277 336 OFFCURVE",
"445 348 OFFCURVE",
"629 331 CURVE",
"632 390 OFFCURVE",
"627 449 OFFCURVE",
"603 500 CURVE",
"430 520 OFFCURVE",
"219 523 OFFCURVE",
"67 508 CURVE",
"59 466 OFFCURVE",
"70 356 OFFCURVE",
"99 329 CURVE"
);
}
);
width = 660;
}
);
leftMetricsKey = n;
rightMetricsKey = n;
unicode = 043F;
},
{
glyphname = "te-cy";
lastChange = "2018-01-05 19:56:06 +0000";
layers = (
{
layerId = "CF9497EE-3EC0-42B6-AB9D-60F0E4A560B4";
name = "Bold Italic";
paths = (
{
closed = 1;
nodes = (
"368 66 OFFCURVE",
"377 222 OFFCURVE",
"396 313 CURVE",
"367 343 OFFCURVE",
"227 355 OFFCURVE",
"175 353 CURVE",
"152 255 OFFCURVE",
"146 114 OFFCURVE",
"149 40 CURVE",
"198 -5 OFFCURVE",
"319 -18 OFFCURVE",
"371 -18 CURVE"
);
},
{
closed = 1;
nodes = (
"555 370 OFFCURVE",
"542 456 OFFCURVE",
"515 500 CURVE",
"341 521 OFFCURVE",
"188 521 OFFCURVE",
"37 506 CURVE",
"29 463 OFFCURVE",
"47 367 OFFCURVE",
"68 326 CURVE",
"243 334 OFFCURVE",
"366 339 OFFCURVE",
"552 322 CURVE"
);
}
);
width = 554;
}
);
leftMetricsKey = x;
rightMetricsKey = x;
unicode = 0442;
},
{
glyphname = "ef-cy";
lastChange = "2018-01-02 13:38:07 +0000";
layers = (
{
layerId = "CF9497EE-3EC0-42B6-AB9D-60F0E4A560B4";
name = "Bold Italic";
paths = (
{
closed = 1;
nodes = (
"509 -18 OFFCURVE",
"579 493 OFFCURVE",
"622 720 CURVE",
"592 750 OFFCURVE",
"477 775 OFFCURVE",
"423 773 CURVE",
"372 552 OFFCURVE",
"314 48 OFFCURVE",
"307 -208 CURVE",
"357 -253 OFFCURVE",
"450 -267 OFFCURVE",
"504 -267 CURVE"
);
},
{
closed = 1;
nodes = (
"354 -110 OFFCURVE",
"368 166 CURVE",
"351 197 OFFCURVE",
"350 217 OFFCURVE",
"341 229 CURVE",
"338 106 OFFCURVE",
"210 113 OFFCURVE",
"212 219 CURVE SMOOTH",
"216 371 OFFCURVE",
"347 360 OFFCURVE",
"341 229 CURVE SMOOTH",
"340 204 OFFCURVE",
"349 208 OFFCURVE",
"380 204 CURVE SMOOTH",
"412 201 OFFCURVE",
"385 341 OFFCURVE",
"385 388 CURVE SMOOTH",
"385 603 OFFCURVE",
"19 552 OFFCURVE",
"19 216 CURVE SMOOTH",
"19 -67 OFFCURVE"
);
},
{
closed = 1;
nodes = (
"605 -115 OFFCURVE",
"874 -8 OFFCURVE",
"880 261 CURVE SMOOTH",
"888 597 OFFCURVE",
"556 586 OFFCURVE",
"513 311 CURVE SMOOTH",
"493 186 OFFCURVE",
"552 155 OFFCURVE",
"555 209 CURVE SMOOTH",
"563 329 OFFCURVE",
"690 348 OFFCURVE",
"680 229 CURVE SMOOTH",
"672 130 OFFCURVE",
"549 109 OFFCURVE",
"555 206 CURVE SMOOTH",
"559 273 OFFCURVE",
"498 91 OFFCURVE",
"465 80 CURVE"
);
}
);
width = 900;
}
);
leftMetricsKey = o;
rightMetricsKey = o;
unicode = 0444;
},
{
glyphname = "che-cy";
lastChange = "2018-01-05 19:06:29 +0000";
layers = (
{
layerId = "CF9497EE-3EC0-42B6-AB9D-60F0E4A560B4";
name = "Bold Italic";
paths = (
{
closed = 1;
nodes = (
"380 224 OFFCURVE",
"397 299 OFFCURVE",
"355 325 CURVE",
"347 241 OFFCURVE",
"250 258 OFFCURVE",
"259 326 CURVE SMOOTH",
"264 360 OFFCURVE",
"266 390 OFFCURVE",
"279 463 CURVE",
"249 493 OFFCURVE",
"114 518 OFFCURVE",
"61 517 CURVE",
"44 453 OFFCURVE",
"36 386 OFFCURVE",
"29 337 CURVE SMOOTH",
"2 140 OFFCURVE",
"259 37 OFFCURVE",
"400 220 CURVE"
);
},
{
closed = 1;
nodes = (
"557 155 OFFCURVE",
"582 304 OFFCURVE",
"610 463 CURVE",
"580 493 OFFCURVE",
"445 518 OFFCURVE",
"392 517 CURVE",
"356 380 OFFCURVE",
"335 208 OFFCURVE",
"341 46 CURVE",
"397 4 OFFCURVE",
"505 -18 OFFCURVE",
"558 -18 CURVE"
);
}
);
width = 628;
}
);
leftMetricsKey = o;
rightMetricsKey = n;
unicode = 0447;
},
{
glyphname = "tse-cy";
lastChange = "2018-01-02 13:38:07 +0000";
layers = (
{
layerId = "CF9497EE-3EC0-42B6-AB9D-60F0E4A560B4";
name = "Bold Italic";
paths = (
{
closed = 1;
nodes = (
"254 162 OFFCURVE",
"274 304 OFFCURVE",
"302 464 CURVE",
"272 494 OFFCURVE",
"137 519 OFFCURVE",
"83 518 CURVE",
"48 381 OFFCURVE",
"31 210 OFFCURVE",
"38 48 CURVE",
"88 3 OFFCURVE",
"201 -11 OFFCURVE",
"255 -11 CURVE"
);
},
{
closed = 1;
nodes = (
"270 -16 OFFCURVE",
"397 -6 OFFCURVE",
"583 -21 CURVE",
"587 30 OFFCURVE",
"581 81 OFFCURVE",
"558 125 CURVE",
"384 143 OFFCURVE",
"214 146 OFFCURVE",
"63 133 CURVE",
"55 96 OFFCURVE",
"66 1 OFFCURVE",
"94 -22 CURVE"
);
},
{
closed = 1;
nodes = (
"658 -74 OFFCURVE",
"661 6 OFFCURVE",
"651 92 CURVE",
"608 100 OFFCURVE",
"559 102 OFFCURVE",
"524 100 CURVE",
"518 -5 OFFCURVE",
"513 -52 OFFCURVE",
"498 -126 CURVE",
"533 -147 OFFCURVE",
"607 -157 OFFCURVE",
"641 -154 CURVE"
);
},
{
closed = 1;
nodes = (
"579 161 OFFCURVE",
"599 304 OFFCURVE",
"627 464 CURVE",
"597 494 OFFCURVE",
"462 519 OFFCURVE",
"409 517 CURVE",
"373 380 OFFCURVE",
"357 209 OFFCURVE",
"363 48 CURVE",
"414 2 OFFCURVE",
"527 -11 OFFCURVE",
"580 -11 CURVE"
);
}
);
width = 697;
}
);
leftMetricsKey = n;
unicode = 0446;
},
{
glyphname = "sha-cy";
lastChange = "2018-01-02 13:38:07 +0000";
layers = (
{
layerId = "CF9497EE-3EC0-42B6-AB9D-60F0E4A560B4";
name = "Bold Italic";
paths = (
{
closed = 1;
nodes = (
"872 33 OFFCURVE",
"863 84 OFFCURVE",
"826 128 CURVE",
"559 147 OFFCURVE",
"296 151 OFFCURVE",
"63 139 CURVE",
"51 102 OFFCURVE",
"68 7 OFFCURVE",
"112 -16 CURVE",
"382 -11 OFFCURVE",
"580 -2 OFFCURVE",
"866 -18 CURVE"
);
},
{
closed = 1;
nodes = (
"251 165 OFFCURVE",
"275 296 OFFCURVE",
"303 455 CURVE",
"273 485 OFFCURVE",
"138 510 OFFCURVE",
"84 509 CURVE",
"49 372 OFFCURVE",
"28 213 OFFCURVE",
"35 51 CURVE",
"85 6 OFFCURVE",
"198 -8 OFFCURVE",
"252 -8 CURVE"
);
},
{
closed = 1;
nodes = (
"557 165 OFFCURVE",
"581 296 OFFCURVE",
"609 455 CURVE",
"579 485 OFFCURVE",
"444 510 OFFCURVE",
"390 509 CURVE",
"355 372 OFFCURVE",
"335 213 OFFCURVE",
"341 51 CURVE",
"392 6 OFFCURVE",
"505 -8 OFFCURVE",
"558 -8 CURVE"
);
},
{
closed = 1;
nodes = (
"863 164 OFFCURVE",
"887 295 OFFCURVE",
"914 455 CURVE",
"885 485 OFFCURVE",
"749 510 OFFCURVE",
"696 509 CURVE",
"661 372 OFFCURVE",
"640 213 OFFCURVE",
"646 51 CURVE",
"697 5 OFFCURVE",
"810 -8 OFFCURVE",
"864 -8 CURVE"
);
}
);
width = 934;
}
);
leftMetricsKey = n;
rightMetricsKey = n;
unicode = 0448;
},
{
glyphname = "shcha-cy";
lastChange = "2017-11-27 15:32:02 +0000";
layers = (
{
components = (
{
name = "sha-cy";
}
);
layerId = "CF9497EE-3EC0-42B6-AB9D-60F0E4A560B4";
name = "Bold Italic";
paths = (
{
closed = 1;
nodes = (
"917 -62 OFFCURVE",
"920 17 OFFCURVE",
"911 103 CURVE",
"867 111 OFFCURVE",
"819 114 OFFCURVE",
"783 111 CURVE",
"777 6 OFFCURVE",
"772 -41 OFFCURVE",
"757 -115 CURVE",
"792 -135 OFFCURVE",
"866 -146 OFFCURVE",
"900 -143 CURVE"
);
}
);
width = 985;
}
);
unicode = 0449;
},
{
glyphname = "dzhe-cy";
lastChange = "2017-11-27 15:32:02 +0000";
layers = (
{
layerId = "CF9497EE-3EC0-42B6-AB9D-60F0E4A560B4";
name = "Bold Italic";
paths = (
{
closed = 1;
nodes = (
"254 162 OFFCURVE",
"274 304 OFFCURVE",
"302 464 CURVE",
"272 494 OFFCURVE",
"137 519 OFFCURVE",
"83 518 CURVE",
"48 381 OFFCURVE",
"31 210 OFFCURVE",
"38 48 CURVE",
"88 3 OFFCURVE",
"201 -11 OFFCURVE",
"255 -11 CURVE"
);
},
{
closed = 1;
nodes = (
"270 -16 OFFCURVE",
"397 -6 OFFCURVE",
"583 -21 CURVE",
"587 30 OFFCURVE",
"581 81 OFFCURVE",
"558 125 CURVE",
"384 143 OFFCURVE",
"214 146 OFFCURVE",
"63 133 CURVE",
"55 96 OFFCURVE",
"66 1 OFFCURVE",
"94 -22 CURVE"
);
},
{
closed = 1;
nodes = (
"386 -74 OFFCURVE",
"389 6 OFFCURVE",
"379 92 CURVE",
"336 100 OFFCURVE",
"287 102 OFFCURVE",
"252 100 CURVE",
"246 -5 OFFCURVE",
"241 -52 OFFCURVE",
"226 -126 CURVE",
"261 -147 OFFCURVE",
"335 -157 OFFCURVE",
"369 -154 CURVE"
);
},
{
closed = 1;
nodes = (
"579 161 OFFCURVE",
"599 304 OFFCURVE",
"627 464 CURVE",
"597 494 OFFCURVE",
"462 519 OFFCURVE",
"409 517 CURVE",
"373 380 OFFCURVE",
"357 209 OFFCURVE",
"363 48 CURVE",
"414 2 OFFCURVE",
"527 -11 OFFCURVE",
"580 -11 CURVE"
);
}
);
width = 651;
}
);
unicode = 045F;
},
{
glyphname = "softsign-cy";
lastChange = "2018-01-02 13:38:07 +0000";
layers = (
{
layerId = "CF9497EE-3EC0-42B6-AB9D-60F0E4A560B4";
name = "Bold Italic";
paths = (
{
closed = 1;
nodes = (
"155 -51 OFFCURVE",
"491 -57 OFFCURVE",
"510 112 CURVE SMOOTH",
"528 272 OFFCURVE",
"354 345 OFFCURVE",
"233 271 CURVE SMOOTH",
"125 205 OFFCURVE",
"194 189 OFFCURVE",
"249 196 CURVE SMOOTH",
"326 206 OFFCURVE",
"346 105 OFFCURVE",
"261 92 CURVE SMOOTH",
"196 81 OFFCURVE",
"67 69 OFFCURVE",
"34 58 CURVE"
);
},
{
closed = 1;
nodes = (
"239 173 OFFCURVE",
"268 305 OFFCURVE",
"295 464 CURVE",
"267 494 OFFCURVE",
"138 518 OFFCURVE",
"88 517 CURVE",
"54 380 OFFCURVE",
"28 220 OFFCURVE",
"33 58 CURVE",
"81 13 OFFCURVE",
"188 0 OFFCURVE",
"239 0 CURVE"
);
}
);
width = 545;
}
);
leftMetricsKey = n;
rightMetricsKey = o;
unicode = 044C;
},
{
glyphname = "hardsign-cy";
lastChange = "2018-01-05 19:52:41 +0000";
layers = (
{
components = (
{
name = "softsign-cy";
transform = "{1, 0, 0, 1, 137, 0}";
}
);
layerId = "CF9497EE-3EC0-42B6-AB9D-60F0E4A560B4";
name = "Bold Italic";
paths = (
{
closed = 1;
nodes = (
"103 373 OFFCURVE",
"152 372 OFFCURVE",
"210 389 CURVE",
"214 433 OFFCURVE",
"214 482 OFFCURVE",
"210 517 CURVE",
"157 510 OFFCURVE",
"113 515 OFFCURVE",
"75 523 CURVE",
"61 487 OFFCURVE",
"56 413 OFFCURVE",
"61 379 CURVE"
);
}
);
width = 702;
}
);
unicode = 044A;
},
{
glyphname = "lje-cy";
lastChange = "2017-11-27 15:32:02 +0000";
layers = (
{
layerId = "CF9497EE-3EC0-42B6-AB9D-60F0E4A560B4";
name = "Bold Italic";
paths = (
{
closed = 1;
nodes = (
"476 24 OFFCURVE",
"565 7 OFFCURVE",
"613 31 CURVE",
"606 170 OFFCURVE",
"611 345 OFFCURVE",
"575 515 CURVE",
"502 520 OFFCURVE",
"369 516 OFFCURVE",
"322 491 CURVE",
"371 319 OFFCURVE",
"407 188 OFFCURVE",
"418 27 CURVE"
);
},
{
closed = 1;
nodes = (
"310 102 OFFCURVE",
"392 234 OFFCURVE",
"460 382 CURVE",
"425 424 OFFCURVE",
"391 435 OFFCURVE",
"340 452 CURVE",
"236 315 OFFCURVE",
"140 210 OFFCURVE",
"23 90 CURVE",
"73 33 OFFCURVE",
"162 -2 OFFCURVE",
"213 -18 CURVE"
);
},
{
closed = 1;
nodes = (
"573 -67 OFFCURVE",
"914 -31 OFFCURVE",
"914 170 CURVE SMOOTH",
"914 335 OFFCURVE",
"730 377 OFFCURVE",
"596 295 CURVE SMOOTH",
"489 229 OFFCURVE",
"549 181 OFFCURVE",
"604 181 CURVE SMOOTH",
"730 181 OFFCURVE",
"725 81 OFFCURVE",
"610 81 CURVE SMOOTH",
"545 81 OFFCURVE",
"451 38 OFFCURVE",
"418 27 CURVE"
);
}
);
width = 963;
}
);
unicode = 0459;
},
{
glyphname = "nje-cy";
lastChange = "2017-11-27 15:32:02 +0000";
layers = (
{
layerId = "CF9497EE-3EC0-42B6-AB9D-60F0E4A560B4";
name = "Bold Italic";
paths = (
{
closed = 1;
nodes = (
"253 154 OFFCURVE",
"272 303 OFFCURVE",
"300 462 CURVE",
"270 492 OFFCURVE",
"135 517 OFFCURVE",
"82 516 CURVE",
"47 379 OFFCURVE",
"30 202 OFFCURVE",
"36 40 CURVE",
"87 -5 OFFCURVE",
"200 -19 OFFCURVE",
"254 -19 CURVE"
);
},
{
closed = 1;
nodes = (
"362 202 OFFCURVE",
"426 209 OFFCURVE",
"496 202 CURVE SMOOTH",
"553 196 OFFCURVE",
"576 267 OFFCURVE",
"598 318 CURVE",
"472 327 OFFCURVE",
"349 317 OFFCURVE",
"264 311 CURVE",
"264 258 OFFCURVE",
"270 225 OFFCURVE",
"283 196 CURVE"
);
},
{
closed = 1;
nodes = (
"534 -51 OFFCURVE",
"870 -57 OFFCURVE",
"889 112 CURVE SMOOTH",
"907 272 OFFCURVE",
"733 345 OFFCURVE",
"612 271 CURVE SMOOTH",
"504 205 OFFCURVE",
"573 189 OFFCURVE",
"628 196 CURVE SMOOTH",
"705 206 OFFCURVE",
"725 105 OFFCURVE",
"640 92 CURVE SMOOTH",
"575 81 OFFCURVE",
"446 69 OFFCURVE",
"413 58 CURVE"
);
},
{
closed = 1;
nodes = (
"618 173 OFFCURVE",
"647 305 OFFCURVE",
"674 464 CURVE",
"646 494 OFFCURVE",
"517 518 OFFCURVE",
"467 517 CURVE",
"433 380 OFFCURVE",
"407 220 OFFCURVE",
"412 58 CURVE",
"460 13 OFFCURVE",
"567 0 OFFCURVE",
"618 0 CURVE"
);
}
);
width = 944;
}
);
unicode = 045A;
},
{
glyphname = "e-cy";
lastChange = "2017-11-27 15:32:02 +0000";
layers = (
{
components = (
{
name = c;
}
);
layerId = "CF9497EE-3EC0-42B6-AB9D-60F0E4A560B4";
name = "Bold Italic";
paths = (
{
closed = 1;
nodes = (
"200 197 OFFCURVE",
"251 206 OFFCURVE",
"334 201 CURVE",
"349 234 OFFCURVE",
"355 261 OFFCURVE",
"350 293 CURVE",
"275 301 OFFCURVE",
"232 301 OFFCURVE",
"193 299 CURVE",
"181 268 OFFCURVE",
"114 219 OFFCURVE",
"118 192 CURVE"
);
}
);
width = 565;
}
);
unicode = 0454;
},
{
glyphname = "ereversed-cy";
lastChange = "2018-01-05 18:14:12 +0000";
layers = (
{
layerId = "CF9497EE-3EC0-42B6-AB9D-60F0E4A560B4";
name = "Bold Italic";
paths = (
{
closed = 1;
nodes = (
"460 217 OFFCURVE",
"393 266 OFFCURVE",
"381 297 CURVE",
"342 299 OFFCURVE",
"299 299 OFFCURVE",
"224 291 CURVE",
"219 261 OFFCURVE",
"225 232 OFFCURVE",
"240 199 CURVE",
"323 216 OFFCURVE",
"374 195 OFFCURVE",
"456 190 CURVE"
);
},
{
closed = 1;
nodes = (
"527 429 OFFCURVE",
"422 516 OFFCURVE",
"280 517 CURVE SMOOTH",
"141 517 OFFCURVE",
"56 467 OFFCURVE",
"56 385 CURVE SMOOTH",
"56 329 OFFCURVE",
"85 289 OFFCURVE",
"143 289 CURVE SMOOTH",
"214 289 OFFCURVE",
"198 375 OFFCURVE",
"261 375 CURVE SMOOTH",
"304 375 OFFCURVE",
"355 340 OFFCURVE",
"355 244 CURVE SMOOTH",
"355 151 OFFCURVE",
"211 64 OFFCURVE",
"84 167 CURVE",
"59 135 OFFCURVE",
"36 100 OFFCURVE",
"21 70 CURVE",
"88 10 OFFCURVE",
"171 -18 OFFCURVE",
"251 -18 CURVE SMOOTH",
"402 -18 OFFCURVE",
"527 76 OFFCURVE",
"527 273 CURVE SMOOTH"
);
}
);
width = 567;
}
);
unicode = 044D;
},
{
glyphname = "tshe-cy";
lastChange = "2017-11-27 15:32:02 +0000";
layers = (
{
layerId = "CF9497EE-3EC0-42B6-AB9D-60F0E4A560B4";
name = "Bold Italic";
paths = (
{
closed = 1;
nodes = (
"83 662 OFFCURVE",
"79 634 OFFCURVE",
"79 595 CURVE",
"215 598 OFFCURVE",
"354 585 OFFCURVE",
"492 566 CURVE",
"502 606 OFFCURVE",
"506 646 OFFCURVE",
"506 694 CURVE",
"366 704 OFFCURVE",
"232 704 OFFCURVE",
"95 695 CURVE"
);
},
{
closed = 1;
nodes = (
"338 229 OFFCURVE",
"377 494 OFFCURVE",
"412 719 CURVE",
"382 749 OFFCURVE",
"247 774 OFFCURVE",
"194 773 CURVE",
"142 555 OFFCURVE",
"125 274 OFFCURVE",
"121 43 CURVE",
"170 0 OFFCURVE",
"283 -14 OFFCURVE",
"338 -16 CURVE"
);
},
{
closed = 1;
nodes = (
"367 164 OFFCURVE",
"446 350 OFFCURVE",
"521 413 CURVE SMOOTH",
"565 451 OFFCURVE",
"548 476 OFFCURVE",
"519 524 CURVE",
"436 486 OFFCURVE",
"367 382 OFFCURVE",
"342 252 CURVE SMOOTH",
"331 190 OFFCURVE",
"306 28 OFFCURVE",
"340 -13 CURVE"
);
},
{
closed = 1;
nodes = (
"692 153 OFFCURVE",
"709 331 OFFCURVE",
"737 470 CURVE",
"697 501 OFFCURVE",
"572 525 OFFCURVE",
"519 524 CURVE",
"484 387 OFFCURVE",
"467 203 OFFCURVE",
"473 41 CURVE",
"524 -4 OFFCURVE",
"637 -18 OFFCURVE",
"691 -18 CURVE"
);
}
);
width = 759;
}
);
unicode = 045B;
},
{
glyphname = "iu-cy";
lastChange = "2018-01-02 13:38:07 +0000";
layers = (
{
components = (
{
name = o;
transform = "{1, 0, 0, 1, 297, 0}";
},
{
name = idotless;
}
);
layerId = "CF9497EE-3EC0-42B6-AB9D-60F0E4A560B4";
name = "Bold Italic";
paths = (
{
closed = 1;
nodes = (
"254 164 OFFCURVE",
"318 165 OFFCURVE",
"386 180 CURVE",
"390 224 OFFCURVE",
"390 272 OFFCURVE",
"386 308 CURVE",
"302 308 OFFCURVE",
"264 310 OFFCURVE",
"204 321 CURVE",
"190 285 OFFCURVE",
"185 210 OFFCURVE",
"190 176 CURVE"
);
}
);
width = 815;
}
);
leftMetricsKey = n;
rightMetricsKey = o;
unicode = 044E;
},
{
glyphname = "ia-cy";
lastChange = "2018-01-02 13:38:07 +0000";
layers = (
{
layerId = "CF9497EE-3EC0-42B6-AB9D-60F0E4A560B4";
name = "Bold Italic";
paths = (
{
closed = 1;
nodes = (
"441 220 OFFCURVE",
"369 313 OFFCURVE",
"317 290 CURVE SMOOTH",
"290 278 OFFCURVE",
"258 292 OFFCURVE",
"258 329 CURVE SMOOTH",
"258 417 OFFCURVE",
"339 421 OFFCURVE",
"332 368 CURVE SMOOTH",
"323 303 OFFCURVE",
"524 447 OFFCURVE",
"557 459 CURVE",
"401 561 OFFCURVE",
"77 544 OFFCURVE",
"77 317 CURVE SMOOTH",
"77 191 OFFCURVE",
"190 143 OFFCURVE",
"320 183 CURVE SMOOTH"
);
},
{
closed = 1;
nodes = (
"253 35 OFFCURVE",
"290 116 OFFCURVE",
"310 205 CURVE",
"161 230 LINE",
"129 159 OFFCURVE",
"49 97 OFFCURVE",
"-1 49 CURVE",
"46 18 OFFCURVE",
"138 -13 OFFCURVE",
"207 -25 CURVE"
);
},
{
closed = 1;
nodes = (
"515 148 OFFCURVE",
"530 302 OFFCURVE",
"557 459 CURVE",
"524 481 OFFCURVE",
"408 513 OFFCURVE",
"357 511 CURVE",
"323 374 OFFCURVE",
"299 189 OFFCURVE",
"304 27 CURVE",
"360 0 OFFCURVE",
"459 -25 OFFCURVE",
"510 -25 CURVE"
);
}
);
width = 579;
}
);
leftMetricsKey = o;
rightMetricsKey = n;
unicode = 044F;
},
{
glyphname = "dje-cy";
lastChange = "2017-11-27 15:32:02 +0000";
layers = (
{
layerId = "CF9497EE-3EC0-42B6-AB9D-60F0E4A560B4";
name = "Bold Italic";
paths = (
{
closed = 1;
nodes = (
"83 662 OFFCURVE",
"79 634 OFFCURVE",
"79 595 CURVE",
"215 598 OFFCURVE",
"354 585 OFFCURVE",
"492 566 CURVE",
"502 606 OFFCURVE",
"506 646 OFFCURVE",
"506 694 CURVE",
"366 704 OFFCURVE",
"232 704 OFFCURVE",
"95 695 CURVE"
);
},
{
closed = 1;
nodes = (
"338 229 OFFCURVE",
"377 494 OFFCURVE",
"412 719 CURVE",
"382 749 OFFCURVE",
"247 774 OFFCURVE",
"194 773 CURVE",
"142 555 OFFCURVE",
"125 274 OFFCURVE",
"121 43 CURVE",
"170 0 OFFCURVE",
"283 -14 OFFCURVE",
"338 -16 CURVE"
);
},
{
closed = 1;
nodes = (
"367 164 OFFCURVE",
"446 350 OFFCURVE",
"521 413 CURVE SMOOTH",
"565 451 OFFCURVE",
"548 476 OFFCURVE",
"519 524 CURVE",
"436 486 OFFCURVE",
"367 382 OFFCURVE",
"342 252 CURVE SMOOTH",
"331 190 OFFCURVE",
"306 28 OFFCURVE",
"340 -13 CURVE"
);
},
{
closed = 1;
nodes = (
"637 -72 OFFCURVE",
"711 137 OFFCURVE",
"737 470 CURVE",
"697 501 OFFCURVE",
"572 525 OFFCURVE",
"519 524 CURVE",
"519 266 OFFCURVE",
"459 23 OFFCURVE",
"415 -96 CURVE",
"446 -146 OFFCURVE",
"492 -180 OFFCURVE",
"525 -195 CURVE"
);
}
);
width = 755;
}
);
unicode = 0452;
},
{
glyphname = "yat-cy";
lastChange = "2017-11-27 15:32:02 +0000";
layers = (
{
layerId = "CF9497EE-3EC0-42B6-AB9D-60F0E4A560B4";
name = "Bold Italic";
paths = (
{
closed = 1;
nodes = (
"281 -81 OFFCURVE",
"615 -23 OFFCURVE",
"615 166 CURVE SMOOTH",
"615 314 OFFCURVE",
"448 363 OFFCURVE",
"327 289 CURVE SMOOTH",
"219 223 OFFCURVE",
"281 189 OFFCURVE",
"336 196 CURVE SMOOTH",
"413 206 OFFCURVE",
"433 105 OFFCURVE",
"348 92 CURVE SMOOTH",
"283 81 OFFCURVE",
"154 69 OFFCURVE",
"121 58 CURVE"
);
},
{
closed = 1;
nodes = (
"326 173 OFFCURVE",
"372 561 OFFCURVE",
"399 720 CURVE",
"371 750 OFFCURVE",
"242 774 OFFCURVE",
"192 773 CURVE",
"158 636 OFFCURVE",
"115 220 OFFCURVE",
"120 58 CURVE",
"168 13 OFFCURVE",
"275 0 OFFCURVE",
"326 0 CURVE"
);
},
{
closed = 1;
nodes = (
"81 650 OFFCURVE",
"77 622 OFFCURVE",
"77 583 CURVE",
"213 586 OFFCURVE",
"352 573 OFFCURVE",
"490 554 CURVE",
"500 594 OFFCURVE",
"504 634 OFFCURVE",
"504 682 CURVE",
"364 692 OFFCURVE",
"230 692 OFFCURVE",
"93 683 CURVE"
);
}
);
width = 665;
}
);
unicode = 0463;
},
{
glyphname = "fita-cy";
lastChange = "2017-11-27 15:32:02 +0000";
layers = (
{
layerId = "CF9497EE-3EC0-42B6-AB9D-60F0E4A560B4";
name = "Bold Italic";
paths = (
{
closed = 1;
nodes = (
"426 -18 OFFCURVE",
"518 127 OFFCURVE",
"518 273 CURVE SMOOTH",
"518 405 OFFCURVE",
"435 523 OFFCURVE",
"297 523 CURVE SMOOTH",
"139 523 OFFCURVE",
"38 378 OFFCURVE",
"38 211 CURVE SMOOTH",
"38 73 OFFCURVE",
"138 -18 OFFCURVE",
"278 -18 CURVE SMOOTH"
);
},
{
closed = 1;
nodes = (
"227 101 OFFCURVE",
"199 164 OFFCURVE",
"199 226 CURVE SMOOTH",
"199 315 OFFCURVE",
"247 421 OFFCURVE",
"308 421 CURVE SMOOTH",
"364 421 OFFCURVE",
"389 362 OFFCURVE",
"389 295 CURVE SMOOTH",
"389 204 OFFCURVE",
"350 101 OFFCURVE",
"285 101 CURVE"
);
},
{
closed = 1;
nodes = (
"274 254 OFFCURVE",
"320 154 OFFCURVE",
"418 234 CURVE SMOOTH",
"463 271 OFFCURVE",
"478 386 OFFCURVE",
"409 346 CURVE SMOOTH",
"316 292 OFFCURVE",
"268 391 OFFCURVE",
"173 335 CURVE SMOOTH",
"140 315 OFFCURVE",
"115 148 OFFCURVE",
"173 187 CURVE SMOOTH"
);
}
);
width = 558;
}
);
unicode = 0473;
},
{
glyphname = "izhitsa-cy";
lastChange = "2017-11-27 15:32:02 +0000";
layers = (
{
layerId = "CF9497EE-3EC0-42B6-AB9D-60F0E4A560B4";
name = "Bold Italic";
paths = (
{
closed = 1;
nodes = (
"320 -25 OFFCURVE",
"420 -1 OFFCURVE",
"468 24 CURVE",
"366 158 OFFCURVE",
"316 336 OFFCURVE",
"284 521 CURVE",
"227 524 OFFCURVE",
"111 501 OFFCURVE",
"64 477 CURVE",
"97 323 OFFCURVE",
"168 121 OFFCURVE",
"243 -23 CURVE"
);
},
{
closed = 1;
nodes = (
"528 259 OFFCURVE",
"599 415 OFFCURVE",
"732 444 CURVE",
"732 478 OFFCURVE",
"723 504 OFFCURVE",
"707 532 CURVE",
"504 560 OFFCURVE",
"357 396 OFFCURVE",
"344 98 CURVE",
"379 55 OFFCURVE",
"417 41 OFFCURVE",
"468 24 CURVE"
);
}
);
width = 752;
}
);
unicode = 0475;
},
{
glyphname = "de-cy.ss01";
lastChange = "2017-11-27 15:32:02 +0000";
layers = (
{
layerId = "CF9497EE-3EC0-42B6-AB9D-60F0E4A560B4";
name = "Bold Italic";
paths = (
{
closed = 1;
nodes = (
"520 15 OFFCURVE",
"629 8 OFFCURVE",
"676 32 CURVE",
"650 171 OFFCURVE",
"586 372 OFFCURVE",
"511 516 CURVE",
"439 521 OFFCURVE",
"305 517 OFFCURVE",
"258 492 CURVE",
"333 336 OFFCURVE",
"420 175 OFFCURVE",
"462 18 CURVE"
);
},
{
closed = 1;
nodes = (
"153 -28 OFFCURVE",
"157 19 OFFCURVE",
"173 123 CURVE",
"139 133 OFFCURVE",
"90 140 OFFCURVE",
"46 141 CURVE",
"19 59 OFFCURVE",
"7 -20 OFFCURVE",
"7 -101 CURVE",
"40 -112 OFFCURVE",
"114 -117 OFFCURVE",
"152 -103 CURVE"
);
},
{
closed = 1;
nodes = (
"703 27 OFFCURVE",
"694 96 OFFCURVE",
"661 136 CURVE",
"441 152 OFFCURVE",
"233 151 OFFCURVE",
"41 140 CURVE",
"31 107 OFFCURVE",
"45 21 OFFCURVE",
"81 0 CURVE",
"304 5 OFFCURVE",
"460 8 OFFCURVE",
"695 -6 CURVE"
);
},
{
closed = 1;
nodes = (
"309 125 OFFCURVE",
"337 236 OFFCURVE",
"373 421 CURVE",
"338 464 OFFCURVE",
"325 445 OFFCURVE",
"274 461 CURVE",
"213 300 OFFCURVE",
"169 221 OFFCURVE",
"65 91 CURVE",
"115 34 OFFCURVE",
"196 20 OFFCURVE",
"247 4 CURVE"
);
},
{
closed = 1;
nodes = (
"722 -28 OFFCURVE",
"727 19 OFFCURVE",
"743 123 CURVE",
"708 133 OFFCURVE",
"660 140 OFFCURVE",
"616 141 CURVE",
"589 59 OFFCURVE",
"576 -20 OFFCURVE",
"576 -101 CURVE",
"609 -112 OFFCURVE",
"684 -117 OFFCURVE",
"722 -103 CURVE"
);
}
);
width = 799;
}
);
},
{
glyphname = zero;
lastChange = "2018-01-02 13:43:09 +0000";
layers = (
{
layerId = "CF9497EE-3EC0-42B6-AB9D-60F0E4A560B4";
name = "Bold Italic";
paths = (
{
closed = 1;
nodes = (
"741 -18 OFFCURVE",
"778 723 OFFCURVE",
"372 723 CURVE SMOOTH",
"-1 723 OFFCURVE",
"-96 -18 OFFCURVE",
"322 -18 CURVE SMOOTH"
);
},
{
closed = 1;
nodes = (
"225 120 OFFCURVE",
"292 557 OFFCURVE",
"375 557 CURVE SMOOTH",
"465 557 OFFCURVE",
"421 120 OFFCURVE",
"330 120 CURVE SMOOTH"
);
}
);
width = 686;
}
);
unicode = 0030;
},
{
glyphname = one;
lastChange = "2018-01-05 19:51:52 +0000";
layers = (
{
layerId = "CF9497EE-3EC0-42B6-AB9D-60F0E4A560B4";
name = "Bold Italic";
paths = (
{
closed = 1;
nodes = (
"465 211 OFFCURVE",
"486 438 OFFCURVE",
"530 662 CURVE",
"497 695 OFFCURVE",
"349 724 OFFCURVE",
"291 723 CURVE",
"249 544 OFFCURVE",
"216 246 OFFCURVE",
"220 46 CURVE",
"253 14 OFFCURVE",
"418 -28 OFFCURVE",
"456 -18 CURVE"
);
},
{
closed = 1;
nodes = (
"227 464 OFFCURVE",
"298 533 OFFCURVE",
"357 623 CURVE",
"337 662 OFFCURVE",
"312 697 OFFCURVE",
"291 723 CURVE",
"221 663 OFFCURVE",
"160 619 OFFCURVE",
"74 574 CURVE",
"100 513 OFFCURVE",
"128 452 OFFCURVE",
"150 414 CURVE"
);
}
);
width = 527;
}
);
unicode = 0031;
},
{
glyphname = two;
lastChange = "2017-11-27 15:32:02 +0000";
layers = (
{
layerId = "CF9497EE-3EC0-42B6-AB9D-60F0E4A560B4";
name = "Bold Italic";
paths = (
{
closed = 1;
nodes = (
"175 -28 OFFCURVE",
"164 73 OFFCURVE",
"273 126 CURVE SMOOTH",
"473 223 OFFCURVE",
"598 414 OFFCURVE",
"598 521 CURVE SMOOTH",
"598 647 OFFCURVE",
"500 722 OFFCURVE",
"342 722 CURVE SMOOTH",
"190 722 OFFCURVE",
"93 647 OFFCURVE",
"95 578 CURVE SMOOTH",
"97 519 OFFCURVE",
"138 484 OFFCURVE",
"181 484 CURVE SMOOTH",
"258 484 OFFCURVE",
"269 559 OFFCURVE",
"324 559 CURVE SMOOTH",
"438 559 OFFCURVE",
"411 339 OFFCURVE",
"33 186 CURVE",
"48 112 OFFCURVE",
"56 57 OFFCURVE",
"56 96 CURVE",
"67 117 OFFCURVE",
"108 105 OFFCURVE",
"95 80 CURVE"
);
},
{
closed = 1;
nodes = (
"222 -1 OFFCURVE",
"372 0 OFFCURVE",
"548 -5 CURVE",
"554 45 OFFCURVE",
"564 123 OFFCURVE",
"544 181 CURVE",
"381 204 OFFCURVE",
"176 204 OFFCURVE",
"33 186 CURVE",
"26 136 OFFCURVE",
"35 13 OFFCURVE",
"62 -18 CURVE"
);
}
);
width = 615;
}
);
unicode = 0032;
},
{
glyphname = three;
lastChange = "2018-01-02 13:37:50 +0000";
layers = (
{
layerId = "CF9497EE-3EC0-42B6-AB9D-60F0E4A560B4";
name = "Bold Italic";
paths = (
{
closed = 1;
nodes = (
"145 -105 OFFCURVE",
"564 -48 OFFCURVE",
"564 202 CURVE SMOOTH",
"564 337 OFFCURVE",
"414 423 OFFCURVE",
"219 402 CURVE",
"230 354 OFFCURVE",
"236 311 OFFCURVE",
"251 273 CURVE",
"397 249 OFFCURVE",
"334 87 OFFCURVE",
"90 213 CURVE",
"67 187 OFFCURVE",
"49 164 OFFCURVE",
"32 135 CURVE"
);
},
{
closed = 1;
nodes = (
"426 382 OFFCURVE",
"519 458 OFFCURVE",
"603 529 CURVE",
"591 577 OFFCURVE",
"457 599 OFFCURVE",
"423 581 CURVE SMOOTH",
"344 541 OFFCURVE",
"252 464 OFFCURVE",
"219 402 CURVE",
"219 369 OFFCURVE",
"323 307 OFFCURVE",
"334 277 CURVE"
);
},
{
closed = 1;
nodes = (
"278 527 OFFCURVE",
"427 534 OFFCURVE",
"603 529 CURVE",
"610 579 OFFCURVE",
"613 649 OFFCURVE",
"600 707 CURVE",
"437 731 OFFCURVE",
"231 730 OFFCURVE",
"89 712 CURVE",
"81 662 OFFCURVE",
"91 550 OFFCURVE",
"118 510 CURVE"
);
}
);
width = 614;
}
);
unicode = 0033;
},
{
glyphname = four;
lastChange = "2018-01-02 13:37:41 +0000";
layers = (
{
layerId = "CF9497EE-3EC0-42B6-AB9D-60F0E4A560B4";
name = "Bold Italic";
paths = (
{
closed = 1;
nodes = (
"607 210 OFFCURVE",
"621 361 OFFCURVE",
"651 541 CURVE",
"618 574 OFFCURVE",
"470 603 OFFCURVE",
"412 601 CURVE",
"381 438 OFFCURVE",
"359 246 OFFCURVE",
"362 46 CURVE",
"396 14 OFFCURVE",
"544 -18 OFFCURVE",
"599 -18 CURVE"
);
},
{
closed = 1;
nodes = (
"200 240 OFFCURVE",
"316 247 OFFCURVE",
"449 240 CURVE",
"454 283 OFFCURVE",
"455 344 OFFCURVE",
"447 400 CURVE",
"322 415 OFFCURVE",
"168 415 OFFCURVE",
"56 403 CURVE",
"50 361 OFFCURVE",
"57 250 OFFCURVE",
"78 223 CURVE"
);
},
{
closed = 1;
nodes = (
"314 432 OFFCURVE",
"355 509 OFFCURVE",
"409 632 CURVE",
"386 669 OFFCURVE",
"269 729 OFFCURVE",
"218 744 CURVE",
"172 620 OFFCURVE",
"130 523 OFFCURVE",
"56 403 CURVE",
"76 366 OFFCURVE",
"182 303 OFFCURVE",
"218 301 CURVE"
);
}
);
width = 667;
}
);
unicode = 0034;
},
{
glyphname = five;
lastChange = "2017-11-27 15:32:02 +0000";
layers = (
{
layerId = "CF9497EE-3EC0-42B6-AB9D-60F0E4A560B4";
name = "Bold Italic";
paths = (
{
closed = 1;
nodes = (
"68 40 OFFCURVE",
"180 -18 OFFCURVE",
"293 -18 CURVE SMOOTH",
"457 -18 OFFCURVE",
"560 76 OFFCURVE",
"560 206 CURVE SMOOTH",
"560 336 OFFCURVE",
"466 437 OFFCURVE",
"297 437 CURVE SMOOTH",
"263 437 OFFCURVE",
"225 433 OFFCURVE",
"185 424 CURVE",
"195 376 OFFCURVE",
"199 348 OFFCURVE",
"214 310 CURVE",
"284 310 OFFCURVE",
"317 277 OFFCURVE",
"317 245 CURVE SMOOTH",
"317 212 OFFCURVE",
"284 179 OFFCURVE",
"222 179 CURVE SMOOTH",
"186 179 OFFCURVE",
"141 190 OFFCURVE",
"86 218 CURVE",
"63 192 OFFCURVE",
"45 168 OFFCURVE",
"28 140 CURVE"
);
},
{
closed = 1;
nodes = (
"253 454 OFFCURVE",
"264 534 OFFCURVE",
"284 651 CURVE",
"253 672 OFFCURVE",
"166 692 OFFCURVE",
"113 692 CURVE",
"97 612 OFFCURVE",
"85 524 OFFCURVE",
"85 430 CURVE SMOOTH",
"85 400 OFFCURVE",
"86 369 OFFCURVE",
"89 338 CURVE",
"121 316 OFFCURVE",
"173 310 OFFCURVE",
"214 310 CURVE"
);
},
{
closed = 1;
nodes = (
"479 714 OFFCURVE",
"384 709 OFFCURVE",
"284 709 CURVE SMOOTH",
"227 709 OFFCURVE",
"169 711 OFFCURVE",
"107 714 CURVE",
"103 684 OFFCURVE",
"97 646 OFFCURVE",
"97 608 CURVE SMOOTH",
"97 584 OFFCURVE",
"99 559 OFFCURVE",
"106 536 CURVE",
"205 520 OFFCURVE",
"321 512 OFFCURVE",
"427 512 CURVE SMOOTH",
"490 512 OFFCURVE",
"550 514 OFFCURVE",
"602 520 CURVE",
"604 534 OFFCURVE",
"605 553 OFFCURVE",
"605 573 CURVE SMOOTH",
"605 629 OFFCURVE",
"597 700 OFFCURVE",
"579 723 CURVE"
);
}
);
width = 614;
}
);
unicode = 0035;
},
{
glyphname = six;
lastChange = "2017-12-10 17:55:50 +0000";
layers = (
{
layerId = "CF9497EE-3EC0-42B6-AB9D-60F0E4A560B4";
name = "Bold Italic";
paths = (
{
closed = 1;
nodes = (
"413 839 OFFCURVE",
"49 739 OFFCURVE",
"49 264 CURVE SMOOTH",
"49 109 OFFCURVE",
"130 -18 OFFCURVE",
"299 -18 CURVE SMOOTH",
"482 -18 OFFCURVE",
"583 105 OFFCURVE",
"583 301 CURVE SMOOTH",
"583 527 OFFCURVE",
"295 532 OFFCURVE",
"217 427 CURVE SMOOTH",
"161 352 OFFCURVE",
"255 306 OFFCURVE",
"266 348 CURVE SMOOTH",
"282 413 OFFCURVE",
"409 434 OFFCURVE",
"409 298 CURVE SMOOTH",
"409 206 OFFCURVE",
"365 163 OFFCURVE",
"324 163 CURVE SMOOTH",
"280 163 OFFCURVE",
"248 210 OFFCURVE",
"263 329 CURVE SMOOTH",
"290 551 OFFCURVE",
"396 612 OFFCURVE",
"551 506 CURVE",
"574 532 OFFCURVE",
"591 555 OFFCURVE",
"608 584 CURVE"
);
}
);
width = 627;
}
);
unicode = 0036;
},
{
glyphname = seven;
lastChange = "2018-01-02 13:37:52 +0000";
layers = (
{
layerId = "CF9497EE-3EC0-42B6-AB9D-60F0E4A560B4";
name = "Bold Italic";
paths = (
{
closed = 1;
nodes = (
"424 180 OFFCURVE",
"489 313 OFFCURVE",
"571 481 CURVE",
"535 510 OFFCURVE",
"452 554 OFFCURVE",
"395 568 CURVE",
"295 408 OFFCURVE",
"203 253 OFFCURVE",
"148 84 CURVE",
"181 40 OFFCURVE",
"307 -17 OFFCURVE",
"365 -24 CURVE"
);
},
{
closed = 1;
nodes = (
"278 525 OFFCURVE",
"427 532 OFFCURVE",
"603 527 CURVE",
"609 577 OFFCURVE",
"619 647 OFFCURVE",
"600 705 CURVE",
"436 728 OFFCURVE",
"231 728 OFFCURVE",
"88 710 CURVE",
"81 660 OFFCURVE",
"90 539 OFFCURVE",
"117 508 CURVE"
);
}
);
width = 614;
}
);
unicode = 0037;
},
{
glyphname = eight;
lastChange = "2017-12-10 17:56:52 +0000";
layers = (
{
layerId = "CF9497EE-3EC0-42B6-AB9D-60F0E4A560B4";
name = "Bold Italic";
paths = (
{
closed = 1;
nodes = (
"573 -77 OFFCURVE",
"573 191 CURVE SMOOTH",
"573 390 OFFCURVE",
"285 368 OFFCURVE",
"285 489 CURVE SMOOTH",
"285 535 OFFCURVE",
"312 569 OFFCURVE",
"355 569 CURVE SMOOTH",
"384 569 OFFCURVE",
"381 726 OFFCURVE",
"350 726 CURVE SMOOTH",
"199 726 OFFCURVE",
"83 636 OFFCURVE",
"83 506 CURVE SMOOTH",
"83 312 OFFCURVE",
"357 284 OFFCURVE",
"357 172 CURVE SMOOTH",
"357 103 OFFCURVE",
"250 87 OFFCURVE",
"250 174 CURVE SMOOTH",
"250 316 OFFCURVE",
"584 318 OFFCURVE",
"584 537 CURVE SMOOTH",
"584 647 OFFCURVE",
"495 726 OFFCURVE",
"350 726 CURVE SMOOTH",
"315 726 OFFCURVE",
"343 569 OFFCURVE",
"355 569 CURVE SMOOTH",
"393 569 OFFCURVE",
"419 543 OFFCURVE",
"419 503 CURVE SMOOTH",
"419 383 OFFCURVE",
"31 342 OFFCURVE",
"31 174 CURVE SMOOTH",
"31 -97 OFFCURVE"
);
}
);
width = 620;
}
);
unicode = 0038;
},
{
glyphname = nine;
lastChange = "2017-12-10 17:57:02 +0000";
layers = (
{
layerId = "CF9497EE-3EC0-42B6-AB9D-60F0E4A560B4";
name = "Bold Italic";
paths = (
{
closed = 1;
nodes = (
"151 -127 OFFCURVE",
"599 -66 OFFCURVE",
"599 395 CURVE SMOOTH",
"599 580 OFFCURVE",
"530 723 OFFCURVE",
"350 723 CURVE SMOOTH",
"168 723 OFFCURVE",
"69 575 OFFCURVE",
"68 438 CURVE SMOOTH",
"67 320 OFFCURVE",
"139 211 OFFCURVE",
"293 211 CURVE SMOOTH",
"349 211 OFFCURVE",
"402 232 OFFCURVE",
"431 273 CURVE SMOOTH",
"486 350 OFFCURVE",
"392 414 OFFCURVE",
"385 371 CURVE SMOOTH",
"381 346 OFFCURVE",
"351 331 OFFCURVE",
"319 332 CURVE SMOOTH",
"230 334 OFFCURVE",
"243 544 OFFCURVE",
"332 544 CURVE SMOOTH",
"373 544 OFFCURVE",
"400 500 OFFCURVE",
"385 371 CURVE SMOOTH",
"362 173 OFFCURVE",
"275 102 OFFCURVE",
"87 220 CURVE",
"64 194 OFFCURVE",
"46 171 OFFCURVE",
"29 142 CURVE"
);
}
);
width = 627;
}
);
unicode = 0039;
},
{
glyphname = fraction;
lastChange = "2017-11-27 15:32:02 +0000";
layers = (
{
layerId = "CF9497EE-3EC0-42B6-AB9D-60F0E4A560B4";
name = "Bold Italic";
paths = (
{
closed = 1;
nodes = (
"377 134 OFFCURVE",
"641 442 OFFCURVE",
"859 661 CURVE",
"820 718 OFFCURVE",
"727 798 OFFCURVE",
"675 823 CURVE",
"453 617 OFFCURVE",
"198 320 OFFCURVE",
"18 41 CURVE",
"56 -23 OFFCURVE",
"140 -98 OFFCURVE",
"198 -126 CURVE"
);
}
);
width = 856;
}
);
unicode = 2044;
},
{
glyphname = onehalf;
lastChange = "2017-11-27 15:32:02 +0000";
layers = (
{
layerId = "CF9497EE-3EC0-42B6-AB9D-60F0E4A560B4";
name = "Bold Italic";
paths = (
{
closed = 1;
nodes = (
"303 480 OFFCURVE",
"315 614 OFFCURVE",
"339 747 CURVE",
"321 767 OFFCURVE",
"239 784 OFFCURVE",
"207 783 CURVE",
"183 677 OFFCURVE",
"165 501 OFFCURVE",
"167 382 CURVE",
"186 363 OFFCURVE",
"277 338 OFFCURVE",
"298 344 CURVE"
);
},
{
closed = 1;
nodes = (
"171 630 OFFCURVE",
"211 671 OFFCURVE",
"243 724 CURVE",
"232 747 OFFCURVE",
"218 768 OFFCURVE",
"207 783 CURVE",
"168 748 OFFCURVE",
"134 722 OFFCURVE",
"87 695 CURVE",
"101 659 OFFCURVE",
"116 622 OFFCURVE",
"129 600 CURVE"
);
},
{
closed = 1;
nodes = (
"439 161 OFFCURVE",
"707 465 OFFCURVE",
"925 684 CURVE",
"886 741 OFFCURVE",
"822 798 OFFCURVE",
"770 823 CURVE",
"548 617 OFFCURVE",
"293 320 OFFCURVE",
"113 41 CURVE",
"151 -23 OFFCURVE",
"202 -71 OFFCURVE",
"260 -99 CURVE"
);
},
{
closed = 1;
nodes = (
"670 -48 OFFCURVE",
"663 9 OFFCURVE",
"725 39 CURVE SMOOTH",
"839 94 OFFCURVE",
"910 203 OFFCURVE",
"910 264 CURVE SMOOTH",
"910 335 OFFCURVE",
"854 378 OFFCURVE",
"764 378 CURVE SMOOTH",
"678 378 OFFCURVE",
"623 335 OFFCURVE",
"624 296 CURVE SMOOTH",
"625 262 OFFCURVE",
"649 243 OFFCURVE",
"673 243 CURVE SMOOTH",
"717 243 OFFCURVE",
"723 285 OFFCURVE",
"754 285 CURVE SMOOTH",
"819 285 OFFCURVE",
"803 160 OFFCURVE",
"589 73 CURVE",
"597 31 OFFCURVE",
"602 0 OFFCURVE",
"602 22 CURVE",
"608 34 OFFCURVE",
"632 27 OFFCURVE",
"624 13 CURVE"
);
},
{
closed = 1;
nodes = (
"696 -36 OFFCURVE",
"781 -32 OFFCURVE",
"881 -35 CURVE",
"885 -7 OFFCURVE",
"890 38 OFFCURVE",
"879 71 CURVE",
"786 84 OFFCURVE",
"670 84 OFFCURVE",
"589 73 CURVE",
"585 45 OFFCURVE",
"590 -28 OFFCURVE",
"605 -46 CURVE"
);
}
);
width = 951;
}
);
unicode = 00BD;
},
{
glyphname = onequarter;
lastChange = "2017-11-27 15:32:02 +0000";
layers = (
{
layerId = "CF9497EE-3EC0-42B6-AB9D-60F0E4A560B4";
name = "Bold Italic";
paths = (
{
closed = 1;
nodes = (
"298 502 OFFCURVE",
"309 624 OFFCURVE",
"333 745 CURVE",
"315 762 OFFCURVE",
"235 778 OFFCURVE",
"204 777 CURVE",
"182 681 OFFCURVE",
"164 521 OFFCURVE",
"166 413 CURVE",
"184 396 OFFCURVE",
"272 373 OFFCURVE",
"293 379 CURVE"
);
},
{
closed = 1;
nodes = (
"170 638 OFFCURVE",
"208 675 OFFCURVE",
"239 724 CURVE",
"228 745 OFFCURVE",
"216 763 OFFCURVE",
"204 777 CURVE",
"167 745 OFFCURVE",
"134 722 OFFCURVE",
"87 697 CURVE",
"101 664 OFFCURVE",
"117 631 OFFCURVE",
"128 611 CURVE"
);
},
{
closed = 1;
nodes = (
"416 165 OFFCURVE",
"681 488 OFFCURVE",
"899 689 CURVE",
"860 746 OFFCURVE",
"800 784 OFFCURVE",
"748 809 CURVE",
"526 603 OFFCURVE",
"281 320 OFFCURVE",
"101 41 CURVE",
"139 -23 OFFCURVE",
"179 -67 OFFCURVE",
"237 -95 CURVE"
);
},
{
closed = 1;
nodes = (
"875 91 OFFCURVE",
"883 175 OFFCURVE",
"899 276 CURVE",
"881 294 OFFCURVE",
"798 310 OFFCURVE",
"766 309 CURVE",
"749 218 OFFCURVE",
"736 111 OFFCURVE",
"738 0 CURVE",
"757 -18 OFFCURVE",
"840 -36 OFFCURVE",
"870 -36 CURVE"
);
},
{
closed = 1;
nodes = (
"648 108 OFFCURVE",
"712 112 OFFCURVE",
"787 108 CURVE",
"789 132 OFFCURVE",
"790 166 OFFCURVE",
"785 197 CURVE",
"716 206 OFFCURVE",
"630 206 OFFCURVE",
"567 199 CURVE",
"564 175 OFFCURVE",
"568 114 OFFCURVE",
"580 98 CURVE"
);
},
{
closed = 1;
nodes = (
"711 215 OFFCURVE",
"734 258 OFFCURVE",
"764 327 CURVE",
"751 347 OFFCURVE",
"686 381 OFFCURVE",
"658 389 CURVE",
"632 320 OFFCURVE",
"609 266 OFFCURVE",
"567 199 CURVE",
"579 178 OFFCURVE",
"638 143 OFFCURVE",
"658 142 CURVE"
);
}
);
width = 940;
}
);
unicode = 00BC;
},
{
glyphname = threequarters;
lastChange = "2017-11-27 15:32:02 +0000";
layers = (
{
layerId = "CF9497EE-3EC0-42B6-AB9D-60F0E4A560B4";
name = "Bold Italic";
paths = (
{
closed = 1;
nodes = (
"479 145 OFFCURVE",
"757 465 OFFCURVE",
"975 684 CURVE",
"936 741 OFFCURVE",
"866 798 OFFCURVE",
"814 823 CURVE",
"592 617 OFFCURVE",
"337 320 OFFCURVE",
"157 41 CURVE",
"179 -8 OFFCURVE",
"242 -87 OFFCURVE",
"300 -115 CURVE"
);
},
{
closed = 1;
nodes = (
"120 310 OFFCURVE",
"337 340 OFFCURVE",
"337 469 CURVE SMOOTH",
"337 539 OFFCURVE",
"259 583 OFFCURVE",
"159 572 CURVE",
"164 547 OFFCURVE",
"167 525 OFFCURVE",
"175 506 CURVE",
"250 493 OFFCURVE",
"218 409 OFFCURVE",
"92 475 CURVE",
"80 461 OFFCURVE",
"71 449 OFFCURVE",
"62 434 CURVE"
);
},
{
closed = 1;
nodes = (
"265 562 OFFCURVE",
"313 601 OFFCURVE",
"357 638 CURVE",
"351 662 OFFCURVE",
"281 674 OFFCURVE",
"264 665 CURVE SMOOTH",
"223 644 OFFCURVE",
"176 604 OFFCURVE",
"159 572 CURVE",
"159 555 OFFCURVE",
"212 523 OFFCURVE",
"218 508 CURVE"
);
},
{
closed = 1;
nodes = (
"189 637 OFFCURVE",
"266 640 OFFCURVE",
"357 638 CURVE",
"360 664 OFFCURVE",
"362 700 OFFCURVE",
"355 730 CURVE",
"271 742 OFFCURVE",
"165 741 OFFCURVE",
"91 732 CURVE",
"87 706 OFFCURVE",
"92 649 OFFCURVE",
"106 628 CURVE"
);
},
{
closed = 1;
nodes = (
"730 111 OFFCURVE",
"793 115 OFFCURVE",
"864 111 CURVE",
"867 134 OFFCURVE",
"868 167 OFFCURVE",
"863 198 CURVE",
"796 206 OFFCURVE",
"713 206 OFFCURVE",
"652 199 CURVE",
"649 177 OFFCURVE",
"653 117 OFFCURVE",
"664 102 CURVE"
);
},
{
closed = 1;
nodes = (
"791 215 OFFCURVE",
"814 256 OFFCURVE",
"843 323 CURVE",
"830 343 OFFCURVE",
"767 375 OFFCURVE",
"740 383 CURVE",
"715 316 OFFCURVE",
"692 264 OFFCURVE",
"652 199 CURVE",
"663 179 OFFCURVE",
"720 145 OFFCURVE",
"740 144 CURVE"
);
},
{
closed = 1;
nodes = (
"950 95 OFFCURVE",
"957 177 OFFCURVE",
"973 274 CURVE",
"956 291 OFFCURVE",
"876 307 OFFCURVE",
"844 306 CURVE",
"828 218 OFFCURVE",
"816 114 OFFCURVE",
"817 7 CURVE",
"836 -11 OFFCURVE",
"916 -28 OFFCURVE",
"945 -28 CURVE"
);
}
);
width = 1014;
}
);
unicode = 00BE;
},
{
glyphname = asterisk;
lastChange = "2017-11-27 15:32:02 +0000";
layers = (
{
layerId = "CF9497EE-3EC0-42B6-AB9D-60F0E4A560B4";
name = "Bold Italic";
paths = (
{
closed = 1;
nodes = (
"418 424 OFFCURVE",
"457 475 OFFCURVE",
"466 497 CURVE",
"406 546 OFFCURVE",
"224 664 OFFCURVE",
"147 700 CURVE",
"129 694 OFFCURVE",
"82 639 OFFCURVE",
"79 623 CURVE",
"164 577 OFFCURVE",
"323 476 OFFCURVE",
"399 417 CURVE"
);
},
{
closed = 1;
nodes = (
"311 456 OFFCURVE",
"331 643 OFFCURVE",
"349 738 CURVE",
"335 752 OFFCURVE",
"273 763 OFFCURVE",
"249 763 CURVE",
"231 687 OFFCURVE",
"206 471 OFFCURVE",
"207 386 CURVE",
"222 373 OFFCURVE",
"291 355 OFFCURVE",
"308 359 CURVE"
);
},
{
closed = 1;
nodes = (
"219 471 OFFCURVE",
"380 569 OFFCURVE",
"466 611 CURVE",
"469 631 OFFCURVE",
"440 688 OFFCURVE",
"425 707 CURVE",
"354 675 OFFCURVE",
"167 563 OFFCURVE",
"102 511 CURVE",
"99 491 OFFCURVE",
"127 425 OFFCURVE",
"140 415 CURVE"
);
}
);
width = 480;
}
);
unicode = 002A;
},
{
glyphname = backslash;
lastChange = "2017-11-27 15:32:02 +0000";
layers = (
{
layerId = "CF9497EE-3EC0-42B6-AB9D-60F0E4A560B4";
name = "Bold Italic";
paths = (
{
closed = 1;
nodes = (
"332 -195 OFFCURVE",
"482 -173 OFFCURVE",
"531 -144 CURVE",
"492 95 OFFCURVE",
"403 498 OFFCURVE",
"328 732 CURVE",
"268 740 OFFCURVE",
"143 717 OFFCURVE",
"86 691 CURVE",
"166 439 OFFCURVE",
"254 64 OFFCURVE",
"288 -179 CURVE"
);
}
);
width = 612;
}
);
unicode = 005C;
},
{
glyphname = bullet;
lastChange = "2017-11-27 15:32:02 +0000";
layers = (
{
layerId = "CF9497EE-3EC0-42B6-AB9D-60F0E4A560B4";
name = "Bold Italic";
paths = (
{
closed = 1;
nodes = (
"302 239 OFFCURVE",
"305 341 OFFCURVE",
"305 396 CURVE",
"254 410 OFFCURVE",
"126 427 OFFCURVE",
"65 425 CURVE",
"50 374 OFFCURVE",
"40 284 OFFCURVE",
"47 215 CURVE",
"91 199 OFFCURVE",
"226 181 OFFCURVE",
"295 189 CURVE"
);
}
);
width = 342;
}
);
unicode = 2022;
},
{
glyphname = comma;
lastChange = "2018-01-05 19:53:32 +0000";
layers = (
{
layerId = "CF9497EE-3EC0-42B6-AB9D-60F0E4A560B4";
name = "Bold Italic";
paths = (
{
closed = 1;
nodes = (
"55 161 OFFCURVE",
"21 108 OFFCURVE",
"21 59 CURVE SMOOTH",
"21 11 OFFCURVE",
"46 -19 OFFCURVE",
"84 -19 CURVE SMOOTH",
"88 -19 OFFCURVE",
"91 -22 OFFCURVE",
"91 -27 CURVE SMOOTH",
"91 -40 OFFCURVE",
"83 -65 OFFCURVE",
"67 -79 CURVE",
"85 -97 OFFCURVE",
"116 -114 OFFCURVE",
"134 -120 CURVE",
"185 -75 OFFCURVE",
"213 -5 OFFCURVE",
"213 54 CURVE SMOOTH",
"213 113 OFFCURVE",
"185 161 OFFCURVE",
"124 161 CURVE SMOOTH"
);
}
);
width = 275;
}
);
leftMetricsKey = n;
rightMetricsKey = n;
unicode = 002C;
},
{
glyphname = exclam;
lastChange = "2017-11-27 15:32:02 +0000";
layers = (
{
components = (
{
name = period;
transform = "{1, 0, 0, 1, 20, 0}";
}
);
layerId = "CF9497EE-3EC0-42B6-AB9D-60F0E4A560B4";
name = "Bold Italic";
paths = (
{
closed = 1;
nodes = (
"243 351 OFFCURVE",
"265 491 OFFCURVE",
"308 678 CURVE",
"272 701 OFFCURVE",
"153 725 OFFCURVE",
"95 728 CURVE",
"63 531 OFFCURVE",
"57 385 OFFCURVE",
"56 215 CURVE",
"95 187 OFFCURVE",
"183 170 OFFCURVE",
"229 175 CURVE"
);
}
);
width = 303;
}
);
unicode = 0021;
},
{
glyphname = numbersign;
lastChange = "2017-11-27 15:32:02 +0000";
layers = (
{
layerId = "CF9497EE-3EC0-42B6-AB9D-60F0E4A560B4";
name = "Bold Italic";
paths = (
{
closed = 1;
nodes = (
"274 197 OFFCURVE",
"303 419 OFFCURVE",
"343 584 CURVE",
"324 603 OFFCURVE",
"238 620 OFFCURVE",
"204 619 CURVE",
"170 467 OFFCURVE",
"135 212 OFFCURVE",
"133 50 CURVE",
"152 32 OFFCURVE",
"249 6 OFFCURVE",
"271 12 CURVE"
);
},
{
closed = 1;
nodes = (
"496 188 OFFCURVE",
"524 411 OFFCURVE",
"565 576 CURVE",
"546 595 OFFCURVE",
"459 611 OFFCURVE",
"425 610 CURVE",
"392 459 OFFCURVE",
"356 203 OFFCURVE",
"354 42 CURVE",
"374 23 OFFCURVE",
"470 -2 OFFCURVE",
"492 4 CURVE"
);
},
{
closed = 1;
nodes = (
"240 346 OFFCURVE",
"465 345 OFFCURVE",
"634 324 CURVE",
"650 346 OFFCURVE",
"656 433 OFFCURVE",
"651 467 CURVE",
"497 483 OFFCURVE",
"239 487 OFFCURVE",
"79 469 CURVE",
"63 448 OFFCURVE",
"49 349 OFFCURVE",
"58 328 CURVE"
);
},
{
closed = 1;
nodes = (
"214 132 OFFCURVE",
"439 130 OFFCURVE",
"607 110 CURVE",
"624 132 OFFCURVE",
"630 219 OFFCURVE",
"625 253 CURVE",
"470 268 OFFCURVE",
"212 272 OFFCURVE",
"53 254 CURVE",
"37 233 OFFCURVE",
"23 134 OFFCURVE",
"31 113 CURVE"
);
}
);
width = 676;
}
);
unicode = 0023;
},
{
glyphname = period;
lastChange = "2018-01-05 19:53:09 +0000";
layers = (
{
layerId = "CF9497EE-3EC0-42B6-AB9D-60F0E4A560B4";
name = "Bold Italic";
paths = (
{
closed = 1;
nodes = (
"171 -19 OFFCURVE",
"209 23 OFFCURVE",
"209 67 CURVE SMOOTH",
"209 122 OFFCURVE",
"184 182 OFFCURVE",
"132 182 CURVE SMOOTH",
"80 182 OFFCURVE",
"24 150 OFFCURVE",
"24 94 CURVE SMOOTH",
"24 37 OFFCURVE",
"52 -19 OFFCURVE",
"104 -19 CURVE SMOOTH"
);
}
);
width = 269;
}
);
leftMetricsKey = n;
rightMetricsKey = n;
unicode = 002E;
},
{
glyphname = question;
lastChange = "2017-11-27 15:32:02 +0000";
layers = (
{
components = (
{
name = period;
transform = "{1, 0, 0, 1, 137, 0}";
}
);
layerId = "CF9497EE-3EC0-42B6-AB9D-60F0E4A560B4";
name = "Bold Italic";
paths = (
{
closed = 1;
nodes = (
"386 347 OFFCURVE",
"577 423 OFFCURVE",
"577 559 CURVE SMOOTH",
"577 668 OFFCURVE",
"506 762 OFFCURVE",
"335 762 CURVE SMOOTH",
"183 762 OFFCURVE",
"78 683 OFFCURVE",
"78 611 CURVE SMOOTH",
"78 538 OFFCURVE",
"124 514 OFFCURVE",
"171 514 CURVE SMOOTH",
"268 514 OFFCURVE",
"278 606 OFFCURVE",
"332 606 CURVE SMOOTH",
"368 606 OFFCURVE",
"386 582 OFFCURVE",
"386 551 CURVE SMOOTH",
"386 477 OFFCURVE",
"188 371 OFFCURVE",
"167 210 CURVE",
"209 185 OFFCURVE",
"289 174 OFFCURVE",
"337 178 CURVE"
);
}
);
width = 585;
}
);
unicode = 003F;
},
{
glyphname = quotedbl;
lastChange = "2018-01-05 19:32:11 +0000";
layers = (
{
layerId = "CF9497EE-3EC0-42B6-AB9D-60F0E4A560B4";
name = "Bold Italic";
paths = (
{
closed = 1;
nodes = (
"213 531 OFFCURVE",
"229 632 OFFCURVE",
"249 716 CURVE",
"212 730 OFFCURVE",
"151 740 OFFCURVE",
"101 742 CURVE",
"81 656 OFFCURVE",
"69 558 OFFCURVE",
"69 474 CURVE",
"104 456 OFFCURVE",
"164 447 OFFCURVE",
"207 448 CURVE"
);
},
{
closed = 1;
nodes = (
"400 536 OFFCURVE",
"418 632 OFFCURVE",
"445 712 CURVE",
"408 730 OFFCURVE",
"343 738 OFFCURVE",
"292 740 CURVE",
"273 654 OFFCURVE",
"259 561 OFFCURVE",
"260 477 CURVE",
"295 459 OFFCURVE",
"353 451 OFFCURVE",
"395 452 CURVE"
);
}
);
width = 442;
}
);
unicode = 0022;
},
{
glyphname = quotesingle;
lastChange = "2018-01-05 19:32:01 +0000";
layers = (
{
layerId = "CF9497EE-3EC0-42B6-AB9D-60F0E4A560B4";
name = "Bold Italic";
paths = (
{
closed = 1;
nodes = (
"213 531 OFFCURVE",
"231 632 OFFCURVE",
"257 713 CURVE",
"220 732 OFFCURVE",
"151 740 OFFCURVE",
"101 742 CURVE",
"81 656 OFFCURVE",
"69 558 OFFCURVE",
"69 474 CURVE",
"104 456 OFFCURVE",
"164 447 OFFCURVE",
"207 448 CURVE"
);
}
);
width = 248;
}
);
unicode = 0027;
},
{
glyphname = slash;
lastChange = "2017-11-27 15:32:02 +0000";
layers = (
{
layerId = "CF9497EE-3EC0-42B6-AB9D-60F0E4A560B4";
name = "Bold Italic";
paths = (
{
closed = 1;
nodes = (
"248 69 OFFCURVE",
"406 457 OFFCURVE",
"518 666 CURVE",
"476 707 OFFCURVE",
"368 750 OFFCURVE",
"311 760 CURVE",
"193 525 OFFCURVE",
"52 149 OFFCURVE",
"6 -73 CURVE",
"44 -118 OFFCURVE",
"129 -150 OFFCURVE",
"186 -154 CURVE"
);
}
);
width = 514;
}
);
unicode = 002F;
},
{
glyphname = underscore;
lastChange = "2017-11-27 15:32:02 +0000";
layers = (
{
layerId = "CF9497EE-3EC0-42B6-AB9D-60F0E4A560B4";
name = "Bold Italic";
paths = (
{
closed = 1;
nodes = (
"193 -2 OFFCURVE",
"341 4 OFFCURVE",
"555 -2 CURVE",
"562 41 OFFCURVE",
"566 108 OFFCURVE",
"550 159 CURVE",
"351 180 OFFCURVE",
"207 181 OFFCURVE",
"32 166 CURVE",
"24 123 OFFCURVE",
"36 24 OFFCURVE",
"69 -16 CURVE"
);
}
);
width = 622;
}
);
unicode = 005F;
},
{
glyphname = braceleft;
lastChange = "2017-11-27 15:32:02 +0000";
layers = (
{
layerId = "CF9497EE-3EC0-42B6-AB9D-60F0E4A560B4";
name = "Bold Italic";
paths = (
{
closed = 1;
nodes = (
"394 832 OFFCURVE",
"236 803 OFFCURVE",
"202 677 CURVE SMOOTH",
"183 607 OFFCURVE",
"182 567 OFFCURVE",
"163 497 CURVE SMOOTH",
"147 438 OFFCURVE",
"117 422 OFFCURVE",
"70 429 CURVE",
"65 408 OFFCURVE",
"65 321 OFFCURVE",
"68 305 CURVE",
"189 292 OFFCURVE",
"339 355 OFFCURVE",
"369 483 CURVE SMOOTH",
"384 548 OFFCURVE",
"387 607 OFFCURVE",
"404 675 CURVE SMOOTH",
"414 717 OFFCURVE",
"449 731 OFFCURVE",
"478 718 CURVE",
"490 733 OFFCURVE",
"503 785 OFFCURVE",
"499 805 CURVE"
);
},
{
closed = 1;
nodes = (
"339 -159 OFFCURVE",
"344 -105 OFFCURVE",
"337 -87 CURVE",
"305 -90 OFFCURVE",
"277 -66 OFFCURVE",
"281 -23 CURVE SMOOTH",
"286 47 OFFCURVE",
"302 104 OFFCURVE",
"308 170 CURVE SMOOTH",
"321 301 OFFCURVE",
"193 405 OFFCURVE",
"74 432 CURVE",
"66 417 OFFCURVE",
"49 333 OFFCURVE",
"47 312 CURVE",
"93 303 OFFCURVE",
"117 279 OFFCURVE",
"113 218 CURVE SMOOTH",
"109 145 OFFCURVE",
"91 103 OFFCURVE",
"87 31 CURVE SMOOTH",
"79 -100 OFFCURVE",
"221 -169 OFFCURVE",
"329 -176 CURVE"
);
}
);
width = 483;
}
);
unicode = 007B;
},
{
glyphname = bracketleft;
lastChange = "2017-11-27 15:32:02 +0000";
layers = (
{
layerId = "CF9497EE-3EC0-42B6-AB9D-60F0E4A560B4";
name = "Bold Italic";
paths = (
{
closed = 1;
nodes = (
"264 95 OFFCURVE",
"291 393 OFFCURVE",
"288 593 CURVE",
"255 626 OFFCURVE",
"135 671 OFFCURVE",
"87 676 CURVE",
"79 447 OFFCURVE",
"56 217 OFFCURVE",
"21 -7 CURVE",
"57 -35 OFFCURVE",
"164 -75 OFFCURVE",
"222 -83 CURVE"
);
},
{
closed = 1;
nodes = (
"452 -114 OFFCURVE",
"462 -67 OFFCURVE",
"457 -9 CURVE",
"326 -5 OFFCURVE",
"176 -22 OFFCURVE",
"13 -52 CURVE",
"13 -82 OFFCURVE",
"21 -115 OFFCURVE",
"34 -124 CURVE",
"148 -119 OFFCURVE",
"320 -126 OFFCURVE",
"439 -145 CURVE"
);
},
{
closed = 1;
nodes = (
"531 671 OFFCURVE",
"522 731 OFFCURVE",
"508 778 CURVE",
"389 759 OFFCURVE",
"217 752 OFFCURVE",
"103 757 CURVE",
"87 730 OFFCURVE",
"85 699 OFFCURVE",
"88 668 CURVE",
"251 639 OFFCURVE",
"401 621 OFFCURVE",
"531 625 CURVE"
);
}
);
width = 532;
}
);
unicode = 005B;
},
{
glyphname = bracketright;
lastChange = "2017-11-27 15:32:02 +0000";
layers = (
{
layerId = "CF9497EE-3EC0-42B6-AB9D-60F0E4A560B4";
name = "Bold Italic";
paths = (
{
closed = 1;
nodes = (
"309 -40 OFFCURVE",
"421 -22 OFFCURVE",
"462 -1 CURVE",
"471 225 OFFCURVE",
"493 424 OFFCURVE",
"529 650 CURVE",
"473 650 OFFCURVE",
"350 608 OFFCURVE",
"314 578 CURVE",
"272 382 OFFCURVE",
"244 147 OFFCURVE",
"250 -37 CURVE"
);
},
{
closed = 1;
nodes = (
"154 -133 OFFCURVE",
"325 -125 OFFCURVE",
"440 -131 CURVE",
"454 -111 OFFCURVE",
"462 -77 OFFCURVE",
"457 -38 CURVE",
"294 -8 OFFCURVE",
"145 9 OFFCURVE",
"14 5 CURVE",
"8 -53 OFFCURVE",
"21 -105 OFFCURVE",
"35 -152 CURVE"
);
},
{
closed = 1;
nodes = (
"231 604 OFFCURVE",
"381 622 OFFCURVE",
"544 651 CURVE",
"550 685 OFFCURVE",
"544 726 OFFCURVE",
"529 757 CURVE",
"415 752 OFFCURVE",
"243 759 OFFCURVE",
"124 778 CURVE",
"111 731 OFFCURVE",
"95 667 OFFCURVE",
"101 608 CURVE"
);
}
);
width = 542;
}
);
unicode = 005D;
},
{
glyphname = parenleft;
lastChange = "2017-11-27 15:32:02 +0000";
layers = (
{
layerId = "CF9497EE-3EC0-42B6-AB9D-60F0E4A560B4";
name = "Bold Italic";
paths = (
{
closed = 1;
nodes = (
"227 -146 OFFCURVE",
"280 -111 OFFCURVE",
"328 -77 CURVE",
"200 191 OFFCURVE",
"239 536 OFFCURVE",
"413 737 CURVE",
"365 781 OFFCURVE",
"312 827 OFFCURVE",
"253 874 CURVE",
"34 649 OFFCURVE",
"-27 151 OFFCURVE",
"163 -173 CURVE"
);
}
);
width = 402;
}
);
unicode = 0028;
},
{
glyphname = parenright;
lastChange = "2017-11-27 15:32:02 +0000";
layers = (
{
layerId = "CF9497EE-3EC0-42B6-AB9D-60F0E4A560B4";
name = "Bold Italic";
paths = (
{
closed = 1;
nodes = (
"395 27 OFFCURVE",
"437 534 OFFCURVE",
"289 835 CURVE",
"218 811 OFFCURVE",
"148 773 OFFCURVE",
"92 740 CURVE",
"194 491 OFFCURVE",
"173 151 OFFCURVE",
"32 -66 CURVE",
"82 -127 OFFCURVE",
"127 -181 OFFCURVE",
"174 -220 CURVE"
);
}
);
width = 406;
}
);
unicode = 0029;
},
{
glyphname = emdash;
lastChange = "2017-12-10 18:40:55 +0000";
layers = (
{
layerId = "CF9497EE-3EC0-42B6-AB9D-60F0E4A560B4";
name = "Bold Italic";
paths = (
{
closed = 1;
nodes = (
"757 204 OFFCURVE",
"757 267 OFFCURVE",
"757 318 CURVE",
"630 336 OFFCURVE",
"188 345 OFFCURVE",
"57 345 CURVE",
"43 299 OFFCURVE",
"37 247 OFFCURVE",
"43 185 CURVE",
"179 164 OFFCURVE",
"592 155 OFFCURVE",
"751 160 CURVE"
);
}
);
width = 801;
}
);
unicode = 2014;
},
{
glyphname = endash;
lastChange = "2017-11-27 15:32:02 +0000";
layers = (
{
layerId = "CF9497EE-3EC0-42B6-AB9D-60F0E4A560B4";
name = "Bold Italic";
paths = (
{
closed = 1;
nodes = (
"506 227 OFFCURVE",
"506 290 OFFCURVE",
"506 340 CURVE",
"379 358 OFFCURVE",
"191 367 OFFCURVE",
"59 367 CURVE",
"45 321 OFFCURVE",
"40 269 OFFCURVE",
"46 207 CURVE",
"182 187 OFFCURVE",
"341 177 OFFCURVE",
"501 182 CURVE"
);
}
);
width = 548;
}
);
unicode = 2013;
},
{
glyphname = hyphen;
lastChange = "2018-01-05 19:35:39 +0000";
layers = (
{
layerId = "CF9497EE-3EC0-42B6-AB9D-60F0E4A560B4";
name = "Bold Italic";
paths = (
{
closed = 1;
nodes = (
"337 236 OFFCURVE",
"340 302 OFFCURVE",
"340 353 CURVE",
"293 365 OFFCURVE",
"115 377 OFFCURVE",
"60 375 CURVE",
"46 329 OFFCURVE",
"37 274 OFFCURVE",
"43 212 CURVE",
"83 197 OFFCURVE",
"269 185 OFFCURVE",
"331 192 CURVE"
);
}
);
width = 380;
}
);
unicode = 002D;
},
{
glyphname = guillemetleft;
lastChange = "2017-11-27 15:32:02 +0000";
layers = (
{
layerId = "CF9497EE-3EC0-42B6-AB9D-60F0E4A560B4";
name = "Bold Italic";
paths = (
{
closed = 1;
nodes = (
"311 295 OFFCURVE",
"393 365 OFFCURVE",
"466 417 CURVE",
"434 463 OFFCURVE",
"381 512 OFFCURVE",
"343 535 CURVE",
"240 459 OFFCURVE",
"133 358 OFFCURVE",
"40 251 CURVE",
"81 217 OFFCURVE",
"222 227 OFFCURVE",
"255 243 CURVE"
);
},
{
closed = 1;
nodes = (
"321 -15 OFFCURVE",
"395 33 OFFCURVE",
"421 72 CURVE",
"359 115 OFFCURVE",
"301 178 OFFCURVE",
"255 243 CURVE",
"220 256 OFFCURVE",
"72 289 OFFCURVE",
"40 251 CURVE",
"126 117 OFFCURVE",
"200 29 OFFCURVE",
"276 -35 CURVE"
);
},
{
closed = 1;
nodes = (
"633 -15 OFFCURVE",
"700 44 OFFCURVE",
"726 82 CURVE",
"664 126 OFFCURVE",
"613 178 OFFCURVE",
"567 243 CURVE",
"532 256 OFFCURVE",
"376 277 OFFCURVE",
"344 239 CURVE",
"430 105 OFFCURVE",
"512 29 OFFCURVE",
"588 -35 CURVE"
);
},
{
closed = 1;
nodes = (
"385 205 OFFCURVE",
"534 227 OFFCURVE",
"567 243 CURVE",
"623 295 OFFCURVE",
"702 348 OFFCURVE",
"774 393 CURVE",
"748 443 OFFCURVE",
"701 496 OFFCURVE",
"667 522 CURVE",
"557 451 OFFCURVE",
"438 346 OFFCURVE",
"344 239 CURVE"
);
}
);
width = 799;
}
);
unicode = 00AB;
},
{
glyphname = guillemetright;
lastChange = "2017-11-27 15:32:02 +0000";
layers = (
{
layerId = "CF9497EE-3EC0-42B6-AB9D-60F0E4A560B4";
name = "Bold Italic";
paths = (
{
closed = 1;
nodes = (
"543 55 OFFCURVE",
"653 157 OFFCURVE",
"758 244 CURVE",
"717 278 OFFCURVE",
"576 268 OFFCURVE",
"544 252 CURVE",
"481 209 OFFCURVE",
"405 147 OFFCURVE",
"332 78 CURVE",
"364 32 OFFCURVE",
"417 -16 OFFCURVE",
"455 -40 CURVE"
);
},
{
closed = 1;
nodes = (
"228 75 OFFCURVE",
"339 169 OFFCURVE",
"454 256 CURVE",
"413 290 OFFCURVE",
"264 268 OFFCURVE",
"232 252 CURVE",
"172 220 OFFCURVE",
"94 163 OFFCURVE",
"24 102 CURVE",
"51 52 OFFCURVE",
"97 -1 OFFCURVE",
"131 -27 CURVE"
);
},
{
closed = 1;
nodes = (
"266 239 OFFCURVE",
"422 218 OFFCURVE",
"454 256 CURVE",
"360 340 OFFCURVE",
"272 440 OFFCURVE",
"210 530 CURVE",
"165 510 OFFCURVE",
"98 452 OFFCURVE",
"72 413 CURVE",
"124 349 OFFCURVE",
"173 300 OFFCURVE",
"232 252 CURVE"
);
},
{
closed = 1;
nodes = (
"673 335 OFFCURVE",
"582 443 OFFCURVE",
"522 530 CURVE",
"477 510 OFFCURVE",
"403 462 OFFCURVE",
"377 423 CURVE",
"426 357 OFFCURVE",
"485 299 OFFCURVE",
"544 252 CURVE",
"578 239 OFFCURVE",
"726 206 OFFCURVE",
"758 244 CURVE"
);
}
);
width = 799;
}
);
unicode = 00BB;
},
{
glyphname = guilsinglleft;
lastChange = "2017-11-27 15:32:02 +0000";
layers = (
{
layerId = "CF9497EE-3EC0-42B6-AB9D-60F0E4A560B4";
name = "Bold Italic";
paths = (
{
closed = 1;
nodes = (
"311 295 OFFCURVE",
"393 365 OFFCURVE",
"466 417 CURVE",
"434 463 OFFCURVE",
"381 512 OFFCURVE",
"343 535 CURVE",
"240 459 OFFCURVE",
"133 358 OFFCURVE",
"40 251 CURVE",
"81 217 OFFCURVE",
"222 227 OFFCURVE",
"255 243 CURVE"
);
},
{
closed = 1;
nodes = (
"321 -15 OFFCURVE",
"395 33 OFFCURVE",
"421 72 CURVE",
"359 115 OFFCURVE",
"301 178 OFFCURVE",
"255 243 CURVE",
"220 256 OFFCURVE",
"72 289 OFFCURVE",
"40 251 CURVE",
"126 117 OFFCURVE",
"200 29 OFFCURVE",
"276 -35 CURVE"
);
}
);
width = 488;
}
);
unicode = 2039;
},
{
glyphname = guilsinglright;
lastChange = "2017-11-27 15:32:02 +0000";
layers = (
{
layerId = "CF9497EE-3EC0-42B6-AB9D-60F0E4A560B4";
name = "Bold Italic";
paths = (
{
closed = 1;
nodes = (
"227 66 OFFCURVE",
"338 160 OFFCURVE",
"453 247 CURVE",
"412 281 OFFCURVE",
"263 259 OFFCURVE",
"231 243 CURVE",
"171 211 OFFCURVE",
"93 154 OFFCURVE",
"23 93 CURVE",
"50 43 OFFCURVE",
"96 -10 OFFCURVE",
"130 -36 CURVE"
);
},
{
closed = 1;
nodes = (
"265 230 OFFCURVE",
"421 209 OFFCURVE",
"453 247 CURVE",
"359 331 OFFCURVE",
"271 431 OFFCURVE",
"209 521 CURVE",
"164 501 OFFCURVE",
"97 443 OFFCURVE",
"71 404 CURVE",
"123 340 OFFCURVE",
"172 291 OFFCURVE",
"231 243 CURVE"
);
}
);
width = 493;
}
);
unicode = 203A;
},
{
glyphname = .notdef;
lastChange = "2017-12-10 17:08:54 +0000";
layers = (
{
layerId = "CF9497EE-3EC0-42B6-AB9D-60F0E4A560B4";
name = "Bold Italic";
paths = (
{
closed = 1;
nodes = (
"266 208 OFFCURVE",
"386 405 OFFCURVE",
"484 618 CURVE",
"450 639 LINE",
"322 485 OFFCURVE",
"208 295 OFFCURVE",
"108 71 CURVE",
"134 29 LINE"
);
},
{
closed = 1;
nodes = (
"467 -2 OFFCURVE",
"468 17 OFFCURVE",
"467 41 CURVE",
"343 52 OFFCURVE",
"174 53 OFFCURVE",
"25 53 CURVE",
"25 32 OFFCURVE",
"35 -1 OFFCURVE",
"46 -13 CURVE",
"155 -10 OFFCURVE",
"339 -11 OFFCURVE",
"452 -24 CURVE"
);
},
{
closed = 1;
nodes = (
"146 165 OFFCURVE",
"182 491 OFFCURVE",
"182 639 CURVE",
"159 663 OFFCURVE",
"120 645 OFFCURVE",
"86 649 CURVE",
"80 485 OFFCURVE",
"48 216 OFFCURVE",
"23 56 CURVE",
"49 36 OFFCURVE",
"73 43 OFFCURVE",
"115 37 CURVE"
);
},
{
closed = 1;
nodes = (
"422 63 LINE",
"359 281 OFFCURVE",
"292 473 OFFCURVE",
"203 648 CURVE",
"159 625 LINE",
"217 416 OFFCURVE",
"296 208 OFFCURVE",
"379 25 CURVE"
);
},
{
closed = 1;
nodes = (
"496 134 OFFCURVE",
"557 485 OFFCURVE",
"557 633 CURVE",
"534 657 OFFCURVE",
"484 635 OFFCURVE",
"450 639 CURVE",
"456 479 OFFCURVE",
"412 215 OFFCURVE",
"386 52 CURVE",
"412 32 OFFCURVE",
"423 12 OFFCURVE",
"465 6 CURVE"
);
},
{
closed = 1;
nodes = (
"565 663 OFFCURVE",
"562 697 OFFCURVE",
"555 723 CURVE",
"437 709 OFFCURVE",
"208 700 OFFCURVE",
"95 704 CURVE",
"85 685 OFFCURVE",
"81 665 OFFCURVE",
"84 641 CURVE",
"240 630 OFFCURVE",
"429 625 OFFCURVE",
"557 633 CURVE"
);
}
);
width = 559;
}
);
},
{
glyphname = cent;
lastChange = "2017-11-27 15:32:02 +0000";
layers = (
{
layerId = "CF9497EE-3EC0-42B6-AB9D-60F0E4A560B4";
name = "Bold Italic";
paths = (
{
closed = 1;
nodes = (
"337 -21 OFFCURVE",
"448 15 OFFCURVE",
"491 82 CURVE",
"474 114 OFFCURVE",
"453 156 OFFCURVE",
"445 169 CURVE",
"347 108 OFFCURVE",
"228 154 OFFCURVE",
"238 254 CURVE SMOOTH",
"246 327 OFFCURVE",
"283 362 OFFCURVE",
"312 362 CURVE SMOOTH",
"324 362 OFFCURVE",
"336 355 OFFCURVE",
"342 333 CURVE SMOOTH",
"347 313 OFFCURVE",
"401 294 OFFCURVE",
"432 291 CURVE SMOOTH",
"464 288 OFFCURVE",
"517 350 OFFCURVE",
"504 396 CURVE SMOOTH",
"480 475 OFFCURVE",
"425 499 OFFCURVE",
"325 510 CURVE SMOOTH",
"182 525 OFFCURVE",
"58 425 OFFCURVE",
"40 254 CURVE SMOOTH",
"27 121 OFFCURVE",
"125 2 OFFCURVE",
"264 -13 CURVE SMOOTH"
);
},
{
closed = 1;
nodes = (
"321 -84 OFFCURVE",
"334 17 OFFCURVE",
"335 60 CURVE",
"300 73 OFFCURVE",
"260 80 OFFCURVE",
"211 78 CURVE",
"197 48 OFFCURVE",
"184 -59 OFFCURVE",
"186 -108 CURVE",
"221 -115 OFFCURVE",
"270 -117 OFFCURVE",
"309 -120 CURVE"
);
},
{
closed = 1;
nodes = (
"474 270 OFFCURVE",
"510 309 OFFCURVE",
"510 351 CURVE SMOOTH",
"510 403 OFFCURVE",
"485 460 OFFCURVE",
"437 460 CURVE SMOOTH",
"388 460 OFFCURVE",
"335 430 OFFCURVE",
"335 377 CURVE SMOOTH",
"335 325 OFFCURVE",
"361 270 OFFCURVE",
"410 270 CURVE SMOOTH"
);
},
{
closed = 1;
nodes = (
"384 434 OFFCURVE",
"396 536 OFFCURVE",
"397 579 CURVE",
"362 592 OFFCURVE",
"322 598 OFFCURVE",
"274 597 CURVE",
"260 566 OFFCURVE",
"246 459 OFFCURVE",
"249 410 CURVE",
"283 404 OFFCURVE",
"332 401 OFFCURVE",
"372 399 CURVE"
);
}
);
width = 549;
}
);
unicode = 00A2;
},
{
glyphname = currency;
lastChange = "2017-11-27 15:32:02 +0000";
layers = (
{
layerId = "CF9497EE-3EC0-42B6-AB9D-60F0E4A560B4";
name = "Bold Italic";
paths = (
{
closed = 1;
nodes = (
"388 123 OFFCURVE",
"471 204 OFFCURVE",
"471 285 CURVE SMOOTH",
"472 391 OFFCURVE",
"420 506 OFFCURVE",
"307 506 CURVE SMOOTH",
"200 507 OFFCURVE",
"78 447 OFFCURVE",
"78 340 CURVE SMOOTH",
"77 234 OFFCURVE",
"136 126 OFFCURVE",
"244 125 CURVE SMOOTH"
);
},
{
closed = 1;
nodes = (
"136 87 OFFCURVE",
"196 143 OFFCURVE",
"220 169 CURVE",
"206 195 OFFCURVE",
"184 219 OFFCURVE",
"155 245 CURVE",
"129 233 OFFCURVE",
"65 175 OFFCURVE",
"41 144 CURVE",
"59 121 OFFCURVE",
"87 95 OFFCURVE",
"110 72 CURVE"
);
},
{
closed = 1;
nodes = (
"221 462 OFFCURVE",
"171 526 OFFCURVE",
"147 553 CURVE",
"120 541 OFFCURVE",
"94 521 OFFCURVE",
"66 494 CURVE",
"76 468 OFFCURVE",
"129 399 OFFCURVE",
"158 373 CURVE",
"182 389 OFFCURVE",
"211 415 OFFCURVE",
"235 436 CURVE"
);
},
{
closed = 1;
nodes = (
"489 157 OFFCURVE",
"438 221 OFFCURVE",
"415 249 CURVE",
"387 237 OFFCURVE",
"362 217 OFFCURVE",
"333 189 CURVE",
"344 164 OFFCURVE",
"397 95 OFFCURVE",
"425 68 CURVE",
"450 85 OFFCURVE",
"478 111 OFFCURVE",
"503 132 CURVE"
);
},
{
closed = 1;
nodes = (
"436 397 OFFCURVE",
"496 453 OFFCURVE",
"522 479 CURVE",
"507 505 OFFCURVE",
"486 529 OFFCURVE",
"456 555 CURVE",
"431 543 OFFCURVE",
"367 485 OFFCURVE",
"343 454 CURVE",
"361 431 OFFCURVE",
"389 405 OFFCURVE",
"412 382 CURVE"
);
},
{
closed = 1;
nodes = (
"186 357 OFFCURVE",
"225 396 OFFCURVE",
"269 406 CURVE SMOOTH",
"318 420 OFFCURVE",
"356 369 OFFCURVE",
"368 316 CURVE SMOOTH",
"380 267 OFFCURVE",
"338 228 OFFCURVE",
"296 218 CURVE SMOOTH",
"260 208 OFFCURVE",
"217 239 OFFCURVE",
"198 304 CURVE SMOOTH"
);
}
);
width = 555;
}
);
unicode = 00A4;
},
{
glyphname = dollar;
lastChange = "2017-11-27 15:32:02 +0000";
layers = (
{
layerId = "CF9497EE-3EC0-42B6-AB9D-60F0E4A560B4";
name = "Bold Italic";
paths = (
{
closed = 1;
nodes = (
"176 -100 OFFCURVE",
"640 -36 OFFCURVE",
"640 171 CURVE SMOOTH",
"640 355 OFFCURVE",
"351 381 OFFCURVE",
"351 493 CURVE SMOOTH",
"351 532 OFFCURVE",
"380 559 OFFCURVE",
"425 559 CURVE SMOOTH",
"469 559 OFFCURVE",
"486 529 OFFCURVE",
"492 477 CURVE SMOOTH",
"497 440 OFFCURVE",
"528 415 OFFCURVE",
"583 415 CURVE SMOOTH",
"639 415 OFFCURVE",
"677 446 OFFCURVE",
"677 499 CURVE SMOOTH",
"677 827 OFFCURVE",
"118 764 OFFCURVE",
"118 493 CURVE SMOOTH",
"118 277 OFFCURVE",
"396 299 OFFCURVE",
"396 185 CURVE SMOOTH",
"396 117 OFFCURVE",
"195 139 OFFCURVE",
"95 240 CURVE",
"61 196 OFFCURVE",
"38 149 OFFCURVE",
"25 106 CURVE"
);
},
{
closed = 1;
nodes = (
"385 -90 OFFCURVE",
"402 39 OFFCURVE",
"403 94 CURVE",
"358 111 OFFCURVE",
"307 120 OFFCURVE",
"245 117 CURVE",
"227 79 OFFCURVE",
"210 -58 OFFCURVE",
"213 -121 CURVE",
"257 -129 OFFCURVE",
"319 -133 OFFCURVE",
"370 -136 CURVE"
);
},
{
closed = 1;
nodes = (
"481 614 OFFCURVE",
"497 744 OFFCURVE",
"499 799 CURVE",
"454 816 OFFCURVE",
"402 824 OFFCURVE",
"340 822 CURVE",
"322 783 OFFCURVE",
"305 646 OFFCURVE",
"308 584 CURVE",
"352 575 OFFCURVE",
"415 572 OFFCURVE",
"465 569 CURVE"
);
}
);
width = 691;
}
);
unicode = 0024;
},
{
glyphname = euro;
lastChange = "2017-11-27 15:32:02 +0000";
layers = (
{
layerId = "CF9497EE-3EC0-42B6-AB9D-60F0E4A560B4";
name = "Bold Italic";
paths = (
{
closed = 1;
nodes = (
"266 -18 OFFCURVE",
"444 -17 CURVE SMOOTH",
"547 -16 OFFCURVE",
"640 25 OFFCURVE",
"722 117 CURVE",
"704 161 OFFCURVE",
"682 207 OFFCURVE",
"662 238 CURVE",
"614 195 OFFCURVE",
"565 176 OFFCURVE",
"522 176 CURVE SMOOTH",
"441 176 OFFCURVE",
"380 243 OFFCURVE",
"380 350 CURVE SMOOTH",
"380 456 OFFCURVE",
"436 514 OFFCURVE",
"493 514 CURVE SMOOTH",
"527 514 OFFCURVE",
"544 491 OFFCURVE",
"544 471 CURVE SMOOTH",
"544 425 OFFCURVE",
"585 409 OFFCURVE",
"627 409 CURVE SMOOTH",
"666 409 OFFCURVE",
"704 444 OFFCURVE",
"704 511 CURVE SMOOTH",
"704 638 OFFCURVE",
"620 723 OFFCURVE",
"487 723 CURVE SMOOTH",
"259 723 OFFCURVE",
"123 535 OFFCURVE",
"123 343 CURVE SMOOTH",
"123 118 OFFCURVE"
);
},
{
closed = 1;
nodes = (
"527 235 OFFCURVE",
"528 276 OFFCURVE",
"514 310 CURVE",
"364 330 OFFCURVE",
"181 336 OFFCURVE",
"49 331 CURVE",
"47 302 OFFCURVE",
"60 248 OFFCURVE",
"77 225 CURVE",
"229 222 OFFCURVE",
"362 219 OFFCURVE",
"523 201 CURVE"
);
},
{
closed = 1;
nodes = (
"543 368 OFFCURVE",
"536 408 OFFCURVE",
"522 444 CURVE",
"372 463 OFFCURVE",
"196 465 OFFCURVE",
"65 460 CURVE",
"57 436 OFFCURVE",
"63 378 OFFCURVE",
"80 355 CURVE",
"231 352 OFFCURVE",
"378 351 OFFCURVE",
"538 333 CURVE"
);
}
);
width = 776;
}
);
unicode = 20AC;
},
{
glyphname = florin;
lastChange = "2017-11-27 15:32:02 +0000";
layers = (
{
layerId = "CF9497EE-3EC0-42B6-AB9D-60F0E4A560B4";
name = "Bold Italic";
paths = (
{
closed = 1;
nodes = (
"415 765 OFFCURVE",
"257 730 OFFCURVE",
"228 604 CURVE SMOOTH",
"196 467 OFFCURVE",
"206 287 OFFCURVE",
"178 174 CURVE SMOOTH",
"163 114 OFFCURVE",
"132 95 OFFCURVE",
"85 106 CURVE",
"76 75 OFFCURVE",
"72 17 OFFCURVE",
"75 -18 CURVE",
"257 -44 OFFCURVE",
"371 -1 OFFCURVE",
"400 130 CURVE SMOOTH",
"432 275 OFFCURVE",
"430 478 OFFCURVE",
"459 554 CURVE SMOOTH",
"475 596 OFFCURVE",
"502 608 OFFCURVE",
"533 597 CURVE",
"546 618 OFFCURVE",
"562 671 OFFCURVE",
"568 706 CURVE"
);
},
{
closed = 1;
nodes = (
"538 337 OFFCURVE",
"531 377 OFFCURVE",
"517 413 CURVE",
"367 432 OFFCURVE",
"191 434 OFFCURVE",
"60 429 CURVE",
"52 405 OFFCURVE",
"58 347 OFFCURVE",
"75 324 CURVE",
"226 321 OFFCURVE",
"373 320 OFFCURVE",
"533 302 CURVE"
);
}
);
width = 568;
}
);
unicode = 0192;
},
{
glyphname = hryvnia;
lastChange = "2017-11-27 15:32:02 +0000";
layers = (
{
layerId = "CF9497EE-3EC0-42B6-AB9D-60F0E4A560B4";
name = "Bold Italic";
paths = (
{
closed = 1;
nodes = (
"250 310 OFFCURVE",
"557 302 OFFCURVE",
"557 517 CURVE SMOOTH",
"557 624 OFFCURVE",
"483 723 OFFCURVE",
"340 723 CURVE SMOOTH",
"188 723 OFFCURVE",
"93 657 OFFCURVE",
"93 588 CURVE SMOOTH",
"93 530 OFFCURVE",
"136 491 OFFCURVE",
"179 491 CURVE SMOOTH",
"256 491 OFFCURVE",
"269 571 OFFCURVE",
"323 571 CURVE SMOOTH",
"372 571 OFFCURVE",
"394 550 OFFCURVE",
"394 504 CURVE SMOOTH",
"394 426 OFFCURVE",
"294 404 OFFCURVE",
"201 359 CURVE SMOOTH",
"124 321 OFFCURVE",
"52 267 OFFCURVE",
"52 150 CURVE SMOOTH",
"52 -15 OFFCURVE",
"400 -93 OFFCURVE",
"564 74 CURVE",
"564 105 OFFCURVE",
"550 151 OFFCURVE",
"530 175 CURVE",
"394 85 OFFCURVE",
"250 129 OFFCURVE",
"250 196 CURVE SMOOTH"
);
},
{
closed = 1;
nodes = (
"528 246 OFFCURVE",
"529 287 OFFCURVE",
"515 321 CURVE",
"365 341 OFFCURVE",
"182 347 OFFCURVE",
"50 342 CURVE",
"48 313 OFFCURVE",
"48 269 OFFCURVE",
"60 236 CURVE",
"212 233 OFFCURVE",
"363 230 OFFCURVE",
"524 212 CURVE"
);
},
{
closed = 1;
nodes = (
"544 379 OFFCURVE",
"537 419 OFFCURVE",
"523 455 CURVE",
"373 474 OFFCURVE",
"197 476 OFFCURVE",
"66 471 CURVE",
"58 447 OFFCURVE",
"64 389 OFFCURVE",
"81 366 CURVE",
"232 363 OFFCURVE",
"379 362 OFFCURVE",
"539 344 CURVE"
);
}
);
width = 622;
}
);
unicode = 20B4;
},
{
glyphname = ruble;
lastChange = "2017-11-27 15:32:02 +0000";
layers = (
{
layerId = "CF9497EE-3EC0-42B6-AB9D-60F0E4A560B4";
name = "Bold Italic";
paths = (
{
closed = 1;
nodes = (
"800 236 OFFCURVE",
"817 690 OFFCURVE",
"569 716 CURVE SMOOTH",
"337 740 OFFCURVE",
"225 716 OFFCURVE",
"176 696 CURVE",
"170 646 OFFCURVE",
"193 571 OFFCURVE",
"213 531 CURVE",
"276 548 OFFCURVE",
"404 564 OFFCURVE",
"441 561 CURVE SMOOTH",
"523 552 OFFCURVE",
"526 385 OFFCURVE",
"394 386 CURVE SMOOTH",
"323 387 OFFCURVE",
"330 266 OFFCURVE",
"364 264 CURVE SMOOTH"
);
},
{
closed = 1;
nodes = (
"604 135 OFFCURVE",
"601 188 OFFCURVE",
"579 223 CURVE",
"406 246 OFFCURVE",
"194 248 OFFCURVE",
"43 242 CURVE",
"34 214 OFFCURVE",
"41 140 OFFCURVE",
"69 121 CURVE",
"244 117 OFFCURVE",
"413 116 OFFCURVE",
"598 96 CURVE"
);
},
{
closed = 1;
nodes = (
"386 304 OFFCURVE",
"390 352 OFFCURVE",
"368 388 CURVE",
"310 382 OFFCURVE",
"150 388 OFFCURVE",
"58 396 CURVE",
"49 368 OFFCURVE",
"43 296 OFFCURVE",
"60 274 CURVE",
"235 270 OFFCURVE",
"276 264 OFFCURVE",
"380 264 CURVE"
);
},
{
closed = 1;
nodes = (
"381 230 OFFCURVE",
"396 419 OFFCURVE",
"440 643 CURVE",
"407 676 OFFCURVE",
"260 703 OFFCURVE",
"201 702 CURVE",
"160 523 OFFCURVE",
"132 266 OFFCURVE",
"136 66 CURVE",
"169 34 OFFCURVE",
"334 -9 OFFCURVE",
"372 2 CURVE"
);
}
);
width = 742;
}
);
unicode = 20BD;
},
{
glyphname = sterling;
lastChange = "2017-11-27 15:32:02 +0000";
layers = (
{
layerId = "CF9497EE-3EC0-42B6-AB9D-60F0E4A560B4";
name = "Bold Italic";
paths = (
{
closed = 1;
nodes = (
"343 282 OFFCURVE",
"355 398 OFFCURVE",
"363 490 CURVE SMOOTH",
"370 577 OFFCURVE",
"415 603 OFFCURVE",
"429 563 CURVE SMOOTH",
"440 532 OFFCURVE",
"480 578 OFFCURVE",
"480 552 CURVE SMOOTH",
"480 531 OFFCURVE",
"498 511 OFFCURVE",
"528 511 CURVE SMOOTH",
"566 511 OFFCURVE",
"616 550 OFFCURVE",
"611 603 CURVE SMOOTH",
"602 707 OFFCURVE",
"516 738 OFFCURVE",
"421 738 CURVE SMOOTH",
"271 738 OFFCURVE",
"181 663 OFFCURVE",
"155 482 CURVE SMOOTH",
"144 405 OFFCURVE",
"134 327 OFFCURVE",
"129 234 CURVE",
"186 196 OFFCURVE",
"293 175 OFFCURVE",
"346 175 CURVE"
);
},
{
closed = 1;
nodes = (
"251 -2 OFFCURVE",
"400 5 OFFCURVE",
"576 0 CURVE",
"582 50 OFFCURVE",
"585 124 OFFCURVE",
"573 186 CURVE",
"410 209 OFFCURVE",
"204 209 OFFCURVE",
"61 191 CURVE",
"54 141 OFFCURVE",
"64 12 OFFCURVE",
"91 -19 CURVE"
);
},
{
closed = 1;
nodes = (
"233 319 OFFCURVE",
"329 322 OFFCURVE",
"484 324 CURVE",
"488 365 OFFCURVE",
"475 427 OFFCURVE",
"463 472 CURVE",
"297 488 OFFCURVE",
"215 488 OFFCURVE",
"64 472 CURVE",
"56 429 OFFCURVE",
"64 328 OFFCURVE",
"89 292 CURVE"
);
},
{
closed = 1;
nodes = (
"572 499 OFFCURVE",
"612 543 OFFCURVE",
"612 587 CURVE SMOOTH",
"612 644 OFFCURVE",
"585 707 OFFCURVE",
"532 707 CURVE SMOOTH",
"479 707 OFFCURVE",
"421 673 OFFCURVE",
"421 615 CURVE SMOOTH",
"421 558 OFFCURVE",
"449 499 OFFCURVE",
"502 499 CURVE SMOOTH"
);
}
);
width = 642;
}
);
unicode = 00A3;
},
{
glyphname = yen;
lastChange = "2017-11-27 15:32:02 +0000";
layers = (
{
layerId = "CF9497EE-3EC0-42B6-AB9D-60F0E4A560B4";
name = "Bold Italic";
paths = (
{
closed = 1;
nodes = (
"340 333 OFFCURVE",
"427 360 OFFCURVE",
"494 395 CURVE",
"430 478 OFFCURVE",
"344 663 OFFCURVE",
"311 755 CURVE",
"253 741 OFFCURVE",
"133 692 OFFCURVE",
"83 662 CURVE",
"120 527 OFFCURVE",
"193 399 OFFCURVE",
"267 315 CURVE"
);
},
{
closed = 1;
nodes = (
"643 118 OFFCURVE",
"644 165 OFFCURVE",
"628 205 CURVE",
"455 227 OFFCURVE",
"281 232 OFFCURVE",
"130 227 CURVE",
"128 193 OFFCURVE",
"142 130 OFFCURVE",
"162 104 CURVE",
"337 100 OFFCURVE",
"453 99 OFFCURVE",
"638 78 CURVE"
);
},
{
closed = 1;
nodes = (
"492 140 OFFCURVE",
"499 254 OFFCURVE",
"534 389 CURVE",
"500 411 OFFCURVE",
"352 433 OFFCURVE",
"294 435 CURVE",
"260 326 OFFCURVE",
"243 172 OFFCURVE",
"255 49 CURVE",
"289 28 OFFCURVE",
"456 -4 OFFCURVE",
"493 0 CURVE"
);
},
{
closed = 1;
nodes = (
"662 271 OFFCURVE",
"653 318 OFFCURVE",
"637 359 CURVE",
"464 381 OFFCURVE",
"252 384 OFFCURVE",
"100 378 CURVE",
"91 350 OFFCURVE",
"99 276 OFFCURVE",
"127 256 CURVE",
"302 253 OFFCURVE",
"471 252 OFFCURVE",
"656 231 CURVE"
);
},
{
closed = 1;
nodes = (
"567 421 OFFCURVE",
"646 512 OFFCURVE",
"760 590 CURVE",
"712 653 OFFCURVE",
"626 724 OFFCURVE",
"577 755 CURVE",
"491 653 OFFCURVE",
"430 507 OFFCURVE",
"393 377 CURVE",
"426 331 OFFCURVE",
"463 320 OFFCURVE",
"512 287 CURVE"
);
}
);
width = 764;
}
);
unicode = 00A5;
},
{
glyphname = approxequal;
lastChange = "2017-11-27 15:32:02 +0000";
layers = (
{
layerId = "CF9497EE-3EC0-42B6-AB9D-60F0E4A560B4";
name = "Bold Italic";
paths = (
{
closed = 1;
nodes = (
"172 332 OFFCURVE",
"224 336 OFFCURVE",
"269 315 CURVE SMOOTH",
"371 267 OFFCURVE",
"476 320 OFFCURVE",
"516 433 CURVE",
"489 451 OFFCURVE",
"464 467 OFFCURVE",
"426 477 CURVE",
"397 437 OFFCURVE",
"350 438 OFFCURVE",
"298 467 CURVE SMOOTH",
"205 519 OFFCURVE",
"88 477 OFFCURVE",
"51 357 CURVE",
"82 330 OFFCURVE",
"103 317 OFFCURVE",
"141 301 CURVE"
);
},
{
closed = 1;
nodes = (
"152 106 OFFCURVE",
"204 110 OFFCURVE",
"249 89 CURVE SMOOTH",
"351 41 OFFCURVE",
"456 94 OFFCURVE",
"496 207 CURVE",
"469 225 OFFCURVE",
"444 241 OFFCURVE",
"406 251 CURVE",
"377 211 OFFCURVE",
"330 212 OFFCURVE",
"278 241 CURVE SMOOTH",
"185 293 OFFCURVE",
"68 251 OFFCURVE",
"31 131 CURVE",
"62 104 OFFCURVE",
"83 91 OFFCURVE",
"121 75 CURVE"
);
}
);
width = 541;
}
);
unicode = 2248;
},
{
glyphname = asciitilde;
lastChange = "2017-11-27 15:32:02 +0000";
layers = (
{
layerId = "CF9497EE-3EC0-42B6-AB9D-60F0E4A560B4";
name = "Bold Italic";
paths = (
{
closed = 1;
nodes = (
"162 231 OFFCURVE",
"214 235 OFFCURVE",
"259 214 CURVE SMOOTH",
"361 166 OFFCURVE",
"466 219 OFFCURVE",
"506 332 CURVE",
"479 350 OFFCURVE",
"454 366 OFFCURVE",
"416 376 CURVE",
"387 336 OFFCURVE",
"340 337 OFFCURVE",
"288 366 CURVE SMOOTH",
"195 418 OFFCURVE",
"78 376 OFFCURVE",
"41 256 CURVE",
"72 229 OFFCURVE",
"93 216 OFFCURVE",
"131 200 CURVE"
);
}
);
width = 537;
}
);
unicode = 007E;
},
{
glyphname = divide;
lastChange = "2017-11-27 15:32:02 +0000";
layers = (
{
layerId = "CF9497EE-3EC0-42B6-AB9D-60F0E4A560B4";
name = "Bold Italic";
paths = (
{
closed = 1;
nodes = (
"246 192 OFFCURVE",
"507 200 OFFCURVE",
"659 192 CURVE",
"664 236 OFFCURVE",
"662 288 OFFCURVE",
"653 337 CURVE",
"426 357 OFFCURVE",
"162 360 OFFCURVE",
"50 348 CURVE",
"44 306 OFFCURVE",
"59 219 OFFCURVE",
"79 175 CURVE"
);
},
{
closed = 1;
nodes = (
"391 -56 OFFCURVE",
"431 -12 OFFCURVE",
"431 32 CURVE SMOOTH",
"431 89 OFFCURVE",
"404 152 OFFCURVE",
"351 152 CURVE SMOOTH",
"298 152 OFFCURVE",
"240 118 OFFCURVE",
"240 61 CURVE SMOOTH",
"240 3 OFFCURVE",
"268 -56 OFFCURVE",
"321 -56 CURVE SMOOTH"
);
},
{
closed = 1;
nodes = (
"441 402 OFFCURVE",
"481 447 OFFCURVE",
"481 491 CURVE SMOOTH",
"481 548 OFFCURVE",
"454 610 OFFCURVE",
"401 610 CURVE SMOOTH",
"348 610 OFFCURVE",
"290 577 OFFCURVE",
"290 519 CURVE SMOOTH",
"290 462 OFFCURVE",
"318 402 OFFCURVE",
"371 402 CURVE SMOOTH"
);
}
);
width = 705;
}
);
unicode = 00F7;
},
{
glyphname = emptyset;
lastChange = "2017-11-27 15:32:02 +0000";
layers = (
{
layerId = "CF9497EE-3EC0-42B6-AB9D-60F0E4A560B4";
name = "Bold Italic";
paths = (
{
closed = 1;
nodes = (
"543 -40 OFFCURVE",
"654 121 OFFCURVE",
"654 285 CURVE SMOOTH",
"654 434 OFFCURVE",
"548 552 OFFCURVE",
"381 552 CURVE SMOOTH",
"191 552 OFFCURVE",
"75 404 OFFCURVE",
"75 216 CURVE SMOOTH",
"75 60 OFFCURVE",
"196 -40 OFFCURVE",
"364 -40 CURVE SMOOTH"
);
},
{
closed = 1;
nodes = (
"282 94 OFFCURVE",
"230 153 OFFCURVE",
"230 231 CURVE SMOOTH",
"230 337 OFFCURVE",
"291 419 OFFCURVE",
"389 419 CURVE SMOOTH",
"469 419 OFFCURVE",
"509 373 OFFCURVE",
"509 276 CURVE SMOOTH",
"509 170 OFFCURVE",
"469 94 OFFCURVE",
"374 94 CURVE SMOOTH"
);
},
{
closed = 1;
nodes = (
"285 83 OFFCURVE",
"511 319 OFFCURVE",
"710 493 CURVE",
"687 539 OFFCURVE",
"643 581 OFFCURVE",
"606 608 CURVE",
"401 422 OFFCURVE",
"167 169 OFFCURVE",
"10 -33 CURVE",
"26 -66 OFFCURVE",
"71 -110 OFFCURVE",
"107 -132 CURVE"
);
}
);
width = 724;
}
);
unicode = 2205;
},
{
glyphname = equal;
lastChange = "2017-11-27 15:32:02 +0000";
layers = (
{
layerId = "CF9497EE-3EC0-42B6-AB9D-60F0E4A560B4";
name = "Bold Italic";
paths = (
{
closed = 1;
nodes = (
"236 46 OFFCURVE",
"496 54 OFFCURVE",
"649 46 CURVE",
"653 90 OFFCURVE",
"651 146 OFFCURVE",
"642 194 CURVE",
"415 215 OFFCURVE",
"152 214 OFFCURVE",
"39 202 CURVE",
"33 159 OFFCURVE",
"49 73 OFFCURVE",
"68 29 CURVE"
);
},
{
closed = 1;
nodes = (
"260 312 OFFCURVE",
"520 320 OFFCURVE",
"673 312 CURVE",
"677 356 OFFCURVE",
"675 408 OFFCURVE",
"666 457 CURVE",
"439 477 OFFCURVE",
"176 480 OFFCURVE",
"63 469 CURVE",
"57 426 OFFCURVE",
"73 339 OFFCURVE",
"92 296 CURVE"
);
}
);
width = 710;
}
);
unicode = 003D;
},
{
glyphname = greater;
lastChange = "2017-11-27 15:32:02 +0000";
layers = (
{
layerId = "CF9497EE-3EC0-42B6-AB9D-60F0E4A560B4";
name = "Bold Italic";
paths = (
{
closed = 1;
nodes = (
"242 5 OFFCURVE",
"328 95 OFFCURVE",
"449 196 CURVE",
"435 243 OFFCURVE",
"419 289 OFFCURVE",
"394 318 CURVE",
"293 255 OFFCURVE",
"99 100 OFFCURVE",
"20 16 CURVE",
"52 -30 OFFCURVE",
"105 -79 OFFCURVE",
"143 -102 CURVE"
);
},
{
closed = 1;
nodes = (
"435 225 OFFCURVE",
"453 252 OFFCURVE",
"465 304 CURVE",
"381 383 OFFCURVE",
"276 501 OFFCURVE",
"211 600 CURVE",
"166 580 OFFCURVE",
"98 533 OFFCURVE",
"66 493 CURVE",
"146 399 OFFCURVE",
"272 287 OFFCURVE",
"406 183 CURVE"
);
}
);
width = 499;
}
);
unicode = 003E;
},
{
glyphname = greaterequal;
lastChange = "2017-11-27 15:32:02 +0000";
layers = (
{
layerId = "CF9497EE-3EC0-42B6-AB9D-60F0E4A560B4";
name = "Bold Italic";
paths = (
{
closed = 1;
nodes = (
"503 328 OFFCURVE",
"515 358 OFFCURVE",
"518 411 CURVE",
"422 475 OFFCURVE",
"298 572 OFFCURVE",
"216 658 CURVE",
"175 630 OFFCURVE",
"117 571 OFFCURVE",
"92 527 CURVE",
"188 448 OFFCURVE",
"332 360 OFFCURVE",
"482 282 CURVE"
);
},
{
closed = 1;
nodes = (
"219 -70 OFFCURVE",
"370 -4 OFFCURVE",
"495 38 CURVE",
"484 74 OFFCURVE",
"467 115 OFFCURVE",
"444 151 CURVE",
"257 97 OFFCURVE",
"100 38 OFFCURVE",
"14 -7 CURVE",
"22 -42 OFFCURVE",
"61 -107 OFFCURVE",
"90 -135 CURVE"
);
},
{
closed = 1;
nodes = (
"247 154 OFFCURVE",
"355 214 OFFCURVE",
"501 275 CURVE",
"502 324 OFFCURVE",
"501 372 OFFCURVE",
"485 408 CURVE",
"370 377 OFFCURVE",
"139 287 OFFCURVE",
"38 231 CURVE",
"55 177 OFFCURVE",
"91 115 OFFCURVE",
"120 82 CURVE"
);
}
);
width = 557;
}
);
unicode = 2265;
},
{
glyphname = infinity;
lastChange = "2017-11-27 15:32:02 +0000";
layers = (
{
layerId = "CF9497EE-3EC0-42B6-AB9D-60F0E4A560B4";
name = "Bold Italic";
paths = (
{
closed = 1;
nodes = (
"884 482 OFFCURVE",
"637 482 CURVE SMOOTH",
"452 482 OFFCURVE",
"355 206 OFFCURVE",
"256 207 CURVE SMOOTH",
"217 208 OFFCURVE",
"192 233 OFFCURVE",
"192 288 CURVE SMOOTH",
"193 317 OFFCURVE",
"47 327 OFFCURVE",
"46 296 CURVE SMOOTH",
"45 197 OFFCURVE",
"117 110 OFFCURVE",
"247 109 CURVE SMOOTH",
"441 106 OFFCURVE",
"515 363 OFFCURVE",
"627 362 CURVE SMOOTH",
"719 361 OFFCURVE",
"719 218 OFFCURVE",
"609 219 CURVE SMOOTH",
"467 220 OFFCURVE",
"476 492 OFFCURVE",
"288 492 CURVE SMOOTH",
"129 492 OFFCURVE",
"47 400 OFFCURVE",
"46 296 CURVE SMOOTH",
"46 261 OFFCURVE",
"192 276 OFFCURVE",
"192 288 CURVE SMOOTH",
"193 350 OFFCURVE",
"222 394 OFFCURVE",
"275 394 CURVE SMOOTH",
"362 394 OFFCURVE",
"416 100 OFFCURVE",
"597 100 CURVE SMOOTH",
"876 100 OFFCURVE"
);
}
);
width = 850;
}
);
unicode = 221E;
},
{
glyphname = integral;
lastChange = "2017-11-27 15:32:02 +0000";
layers = (
{
layerId = "CF9497EE-3EC0-42B6-AB9D-60F0E4A560B4";
name = "Bold Italic";
paths = (
{
closed = 1;
nodes = (
"370 750 OFFCURVE",
"239 719 OFFCURVE",
"206 595 CURVE SMOOTH",
"161 427 OFFCURVE",
"146 136 OFFCURVE",
"95 -53 CURVE SMOOTH",
"79 -112 OFFCURVE",
"49 -128 OFFCURVE",
"2 -121 CURVE",
"-3 -142 OFFCURVE",
"-3 -175 OFFCURVE",
"0 -191 CURVE",
"121 -204 OFFCURVE",
"245 -154 OFFCURVE",
"273 -27 CURVE SMOOTH",
"318 175 OFFCURVE",
"339 466 OFFCURVE",
"385 616 CURVE SMOOTH",
"398 657 OFFCURVE",
"430 672 OFFCURVE",
"459 659 CURVE",
"471 674 OFFCURVE",
"479 703 OFFCURVE",
"475 723 CURVE"
);
}
);
width = 468;
}
);
unicode = 222B;
},
{
glyphname = less;
lastChange = "2017-11-27 15:32:02 +0000";
layers = (
{
layerId = "CF9497EE-3EC0-42B6-AB9D-60F0E4A560B4";
name = "Bold Italic";
paths = (
{
closed = 1;
nodes = (
"224 247 OFFCURVE",
"414 402 OFFCURVE",
"493 486 CURVE",
"461 532 OFFCURVE",
"408 581 OFFCURVE",
"370 604 CURVE",
"271 497 OFFCURVE",
"166 389 OFFCURVE",
"45 296 CURVE",
"64 252 OFFCURVE",
"98 210 OFFCURVE",
"124 184 CURVE"
);
},
{
closed = 1;
nodes = (
"347 -78 OFFCURVE",
"415 -30 OFFCURVE",
"447 9 CURVE",
"398 74 OFFCURVE",
"223 231 OFFCURVE",
"124 308 CURVE",
"102 267 OFFCURVE",
"87 229 OFFCURVE",
"75 178 CURVE",
"159 98 OFFCURVE",
"237 1 OFFCURVE",
"302 -98 CURVE"
);
}
);
width = 512;
}
);
unicode = 003C;
},
{
glyphname = lessequal;
lastChange = "2017-11-27 15:32:02 +0000";
layers = (
{
layerId = "CF9497EE-3EC0-42B6-AB9D-60F0E4A560B4";
name = "Bold Italic";
paths = (
{
closed = 1;
nodes = (
"250 331 OFFCURVE",
"471 434 OFFCURVE",
"569 496 CURVE",
"549 548 OFFCURVE",
"510 608 OFFCURVE",
"480 640 CURVE",
"357 561 OFFCURVE",
"228 483 OFFCURVE",
"88 423 CURVE",
"95 376 OFFCURVE",
"118 326 OFFCURVE",
"136 295 CURVE"
);
},
{
closed = 1;
nodes = (
"457 -125 OFFCURVE",
"499 -63 OFFCURVE",
"509 -28 CURVE",
"426 21 OFFCURVE",
"258 88 OFFCURVE",
"73 150 CURVE",
"49 115 OFFCURVE",
"30 76 OFFCURVE",
"18 39 CURVE",
"140 -7 OFFCURVE",
"302 -82 OFFCURVE",
"427 -153 CURVE"
);
},
{
closed = 1;
nodes = (
"470 126 OFFCURVE",
"515 195 OFFCURVE",
"530 244 CURVE",
"461 286 OFFCURVE",
"239 366 OFFCURVE",
"119 401 CURVE",
"114 356 OFFCURVE",
"114 315 OFFCURVE",
"122 263 CURVE",
"229 220 OFFCURVE",
"338 158 OFFCURVE",
"435 91 CURVE"
);
}
);
width = 583;
}
);
unicode = 2264;
},
{
glyphname = logicalnot;
lastChange = "2017-11-27 15:32:02 +0000";
layers = (
{
layerId = "CF9497EE-3EC0-42B6-AB9D-60F0E4A560B4";
name = "Bold Italic";
paths = (
{
closed = 1;
nodes = (
"211 253 OFFCURVE",
"417 258 OFFCURVE",
"540 252 CURVE",
"543 288 OFFCURVE",
"544 329 OFFCURVE",
"537 368 CURVE",
"355 385 OFFCURVE",
"144 387 OFFCURVE",
"54 378 CURVE",
"49 343 OFFCURVE",
"61 273 OFFCURVE",
"77 239 CURVE"
);
},
{
closed = 1;
nodes = (
"452 121 OFFCURVE",
"506 121 OFFCURVE",
"542 122 CURVE",
"536 188 OFFCURVE",
"540 283 OFFCURVE",
"552 353 CURVE",
"514 364 OFFCURVE",
"480 371 OFFCURVE",
"444 372 CURVE",
"418 298 OFFCURVE",
"415 192 OFFCURVE",
"416 129 CURVE"
);
}
);
width = 595;
}
);
unicode = 00AC;
},
{
glyphname = micro;
lastChange = "2017-11-27 15:32:02 +0000";
layers = (
{
layerId = "CF9497EE-3EC0-42B6-AB9D-60F0E4A560B4";
name = "Bold Italic";
paths = (
{
closed = 1;
nodes = (
"237 -79 OFFCURVE",
"264 329 OFFCURVE",
"292 468 CURVE",
"252 499 OFFCURVE",
"127 523 OFFCURVE",
"74 522 CURVE",
"39 338 OFFCURVE",
"23 -8 OFFCURVE",
"52 -232 CURVE",
"113 -249 OFFCURVE",
"186 -250 OFFCURVE",
"240 -250 CURVE"
);
},
{
closed = 1;
nodes = (
"246 -13 OFFCURVE",
"390 -5 OFFCURVE",
"418 306 CURVE SMOOTH",
"424 368 OFFCURVE",
"450 419 OFFCURVE",
"417 460 CURVE",
"347 113 OFFCURVE",
"259 96 OFFCURVE",
"259 176 CURVE SMOOTH",
"259 236 OFFCURVE",
"218 103 OFFCURVE",
"247 55 CURVE"
);
},
{
closed = 1;
nodes = (
"597 149 OFFCURVE",
"615 329 OFFCURVE",
"643 468 CURVE",
"603 499 OFFCURVE",
"478 523 OFFCURVE",
"425 522 CURVE",
"390 385 OFFCURVE",
"372 199 OFFCURVE",
"378 37 CURVE",
"429 -8 OFFCURVE",
"542 -22 OFFCURVE",
"596 -22 CURVE"
);
}
);
width = 665;
}
);
unicode = 00B5;
},
{
glyphname = minus;
lastChange = "2017-11-27 15:32:02 +0000";
layers = (
{
layerId = "CF9497EE-3EC0-42B6-AB9D-60F0E4A560B4";
name = "Bold Italic";
paths = (
{
closed = 1;
nodes = (
"247 194 OFFCURVE",
"507 201 OFFCURVE",
"660 193 CURVE",
"664 238 OFFCURVE",
"662 289 OFFCURVE",
"654 338 CURVE",
"427 359 OFFCURVE",
"163 362 OFFCURVE",
"51 350 CURVE",
"45 307 OFFCURVE",
"60 220 OFFCURVE",
"80 177 CURVE"
);
}
);
width = 706;
}
);
unicode = 2212;
},
{
glyphname = multiply;
lastChange = "2017-11-27 15:32:02 +0000";
layers = (
{
layerId = "CF9497EE-3EC0-42B6-AB9D-60F0E4A560B4";
name = "Bold Italic";
paths = (
{
closed = 1;
nodes = (
"294 107 OFFCURVE",
"437 271 OFFCURVE",
"586 416 CURVE",
"569 457 OFFCURVE",
"526 508 OFFCURVE",
"481 542 CURVE",
"329 398 OFFCURVE",
"199 271 OFFCURVE",
"57 115 CURVE",
"70 65 OFFCURVE",
"133 -13 OFFCURVE",
"171 -41 CURVE"
);
},
{
closed = 1;
nodes = (
"505 5 OFFCURVE",
"541 43 OFFCURVE",
"570 83 CURVE",
"426 260 OFFCURVE",
"245 451 OFFCURVE",
"158 524 CURVE",
"123 498 OFFCURVE",
"72 427 OFFCURVE",
"54 382 CURVE",
"183 274 OFFCURVE",
"370 93 OFFCURVE",
"470 -22 CURVE"
);
}
);
width = 628;
}
);
unicode = 00D7;
},
{
glyphname = notequal;
lastChange = "2017-11-27 15:32:02 +0000";
layers = (
{
layerId = "CF9497EE-3EC0-42B6-AB9D-60F0E4A560B4";
name = "Bold Italic";
paths = (
{
closed = 1;
nodes = (
"332 -12 OFFCURVE",
"479 326 OFFCURVE",
"563 537 CURVE",
"523 567 OFFCURVE",
"478 592 OFFCURVE",
"437 608 CURVE",
"375 469 OFFCURVE",
"220 138 OFFCURVE",
"130 -3 CURVE",
"160 -40 OFFCURVE",
"230 -93 OFFCURVE",
"271 -107 CURVE"
);
},
{
closed = 1;
nodes = (
"234 57 OFFCURVE",
"494 65 OFFCURVE",
"647 57 CURVE",
"651 101 OFFCURVE",
"649 153 OFFCURVE",
"641 202 CURVE",
"414 222 OFFCURVE",
"150 225 OFFCURVE",
"38 213 CURVE",
"32 171 OFFCURVE",
"47 84 OFFCURVE",
"66 41 CURVE"
);
},
{
closed = 1;
nodes = (
"261 327 OFFCURVE",
"521 335 OFFCURVE",
"674 326 CURVE",
"678 371 OFFCURVE",
"676 422 OFFCURVE",
"668 471 CURVE",
"441 492 OFFCURVE",
"177 495 OFFCURVE",
"65 483 CURVE",
"59 440 OFFCURVE",
"74 354 OFFCURVE",
"93 310 CURVE"
);
}
);
width = 707;
}
);
unicode = 2260;
},
{
glyphname = partialdiff;
lastChange = "2017-11-27 15:32:02 +0000";
layers = (
{
layerId = "CF9497EE-3EC0-42B6-AB9D-60F0E4A560B4";
name = "Bold Italic";
paths = (
{
closed = 1;
nodes = (
"608 -18 OFFCURVE",
"784 639 OFFCURVE",
"241 773 CURVE",
"207 760 OFFCURVE",
"159 717 OFFCURVE",
"149 690 CURVE",
"542 542 OFFCURVE",
"404 152 OFFCURVE",
"286 152 CURVE SMOOTH",
"193 152 OFFCURVE",
"230 358 OFFCURVE",
"316 358 CURVE SMOOTH",
"360 358 OFFCURVE",
"393 331 OFFCURVE",
"406 286 CURVE",
"426 315 OFFCURVE",
"409 371 OFFCURVE",
"417 406 CURVE",
"399 458 OFFCURVE",
"346 500 OFFCURVE",
"285 500 CURVE SMOOTH",
"-9 500 OFFCURVE",
"-67 -18 OFFCURVE",
"257 -18 CURVE SMOOTH"
);
}
);
width = 616;
}
);
unicode = 2202;
},
{
glyphname = percent;
lastChange = "2017-11-27 15:32:02 +0000";
layers = (
{
layerId = "CF9497EE-3EC0-42B6-AB9D-60F0E4A560B4";
name = "Bold Italic";
paths = (
{
closed = 1;
nodes = (
"500 148 OFFCURVE",
"680 469 OFFCURVE",
"796 632 CURVE",
"766 671 OFFCURVE",
"668 727 OFFCURVE",
"621 742 CURVE",
"491 574 OFFCURVE",
"323 262 OFFCURVE",
"261 81 CURVE",
"279 47 OFFCURVE",
"387 -22 OFFCURVE",
"434 -33 CURVE"
);
},
{
closed = 1;
nodes = (
"485 369 OFFCURVE",
"504 801 OFFCURVE",
"264 801 CURVE SMOOTH",
"43 801 OFFCURVE",
"-10 369 OFFCURVE",
"237 369 CURVE SMOOTH"
);
},
{
closed = 1;
nodes = (
"194 484 OFFCURVE",
"228 686 OFFCURVE",
"267 686 CURVE SMOOTH",
"310 686 OFFCURVE",
"281 484 OFFCURVE",
"244 484 CURVE SMOOTH"
);
},
{
closed = 1;
nodes = (
"1020 -35 OFFCURVE",
"1040 397 OFFCURVE",
"799 397 CURVE SMOOTH",
"579 397 OFFCURVE",
"526 -35 OFFCURVE",
"772 -35 CURVE SMOOTH"
);
},
{
closed = 1;
nodes = (
"742 67 OFFCURVE",
"770 269 OFFCURVE",
"817 269 CURVE SMOOTH",
"859 269 OFFCURVE",
"830 67 OFFCURVE",
"794 67 CURVE"
);
}
);
width = 1016;
}
);
unicode = 0025;
},
{
glyphname = perthousand;
lastChange = "2017-11-27 15:32:02 +0000";
layers = (
{
layerId = "CF9497EE-3EC0-42B6-AB9D-60F0E4A560B4";
name = "Bold Italic";
paths = (
{
closed = 1;
nodes = (
"500 148 OFFCURVE",
"680 469 OFFCURVE",
"796 632 CURVE",
"766 671 OFFCURVE",
"668 727 OFFCURVE",
"621 742 CURVE",
"491 574 OFFCURVE",
"323 262 OFFCURVE",
"261 81 CURVE",
"279 47 OFFCURVE",
"387 -22 OFFCURVE",
"434 -33 CURVE"
);
},
{
closed = 1;
nodes = (
"485 369 OFFCURVE",
"504 801 OFFCURVE",
"264 801 CURVE SMOOTH",
"43 801 OFFCURVE",
"-10 369 OFFCURVE",
"237 369 CURVE SMOOTH"
);
},
{
closed = 1;
nodes = (
"194 484 OFFCURVE",
"228 686 OFFCURVE",
"267 686 CURVE SMOOTH",
"310 686 OFFCURVE",
"281 484 OFFCURVE",
"244 484 CURVE SMOOTH"
);
},
{
closed = 1;
nodes = (
"1020 -35 OFFCURVE",
"1040 397 OFFCURVE",
"799 397 CURVE SMOOTH",
"579 397 OFFCURVE",
"526 -35 OFFCURVE",
"772 -35 CURVE SMOOTH"
);
},
{
closed = 1;
nodes = (
"742 67 OFFCURVE",
"770 269 OFFCURVE",
"817 269 CURVE SMOOTH",
"859 269 OFFCURVE",
"830 67 OFFCURVE",
"794 67 CURVE"
);
},
{
closed = 1;
nodes = (
"1423 -49 OFFCURVE",
"1443 383 OFFCURVE",
"1202 383 CURVE SMOOTH",
"982 383 OFFCURVE",
"929 -49 OFFCURVE",
"1175 -49 CURVE SMOOTH"
);
},
{
closed = 1;
nodes = (
"1145 53 OFFCURVE",
"1173 255 OFFCURVE",
"1220 255 CURVE SMOOTH",
"1262 255 OFFCURVE",
"1233 53 OFFCURVE",
"1197 53 CURVE"
);
}
);
width = 1421;
}
);
unicode = 2030;
},
{
glyphname = plus;
lastChange = "2017-11-27 15:32:02 +0000";
layers = (
{
layerId = "CF9497EE-3EC0-42B6-AB9D-60F0E4A560B4";
name = "Bold Italic";
paths = (
{
closed = 1;
nodes = (
"438 199 OFFCURVE",
"452 377 OFFCURVE",
"490 581 CURVE",
"449 612 OFFCURVE",
"351 632 OFFCURVE",
"304 630 CURVE",
"272 446 OFFCURVE",
"259 257 OFFCURVE",
"269 35 CURVE",
"300 5 OFFCURVE",
"376 -20 OFFCURVE",
"433 -18 CURVE"
);
},
{
closed = 1;
nodes = (
"250 220 OFFCURVE",
"510 228 OFFCURVE",
"663 220 CURVE",
"667 264 OFFCURVE",
"665 315 OFFCURVE",
"656 364 CURVE",
"429 385 OFFCURVE",
"166 388 OFFCURVE",
"53 376 CURVE",
"47 333 OFFCURVE",
"63 247 OFFCURVE",
"82 203 CURVE"
);
}
);
width = 706;
}
);
unicode = 002B;
},
{
glyphname = plusminus;
lastChange = "2017-11-27 15:32:02 +0000";
layers = (
{
layerId = "CF9497EE-3EC0-42B6-AB9D-60F0E4A560B4";
name = "Bold Italic";
paths = (
{
closed = 1;
nodes = (
"451 333 OFFCURVE",
"465 510 OFFCURVE",
"504 715 CURVE",
"462 746 OFFCURVE",
"365 766 OFFCURVE",
"317 764 CURVE",
"286 579 OFFCURVE",
"272 390 OFFCURVE",
"283 168 CURVE",
"313 138 OFFCURVE",
"390 114 OFFCURVE",
"447 116 CURVE"
);
},
{
closed = 1;
nodes = (
"263 -53 OFFCURVE",
"523 -46 OFFCURVE",
"676 -54 CURVE",
"680 -9 OFFCURVE",
"678 42 OFFCURVE",
"670 91 CURVE",
"443 112 OFFCURVE",
"179 115 OFFCURVE",
"67 103 CURVE",
"61 60 OFFCURVE",
"76 -27 OFFCURVE",
"96 -70 CURVE"
);
},
{
closed = 1;
nodes = (
"263 353 OFFCURVE",
"523 361 OFFCURVE",
"676 353 CURVE",
"680 397 OFFCURVE",
"678 449 OFFCURVE",
"670 498 CURVE",
"443 518 OFFCURVE",
"179 521 OFFCURVE",
"67 509 CURVE",
"61 467 OFFCURVE",
"76 380 OFFCURVE",
"96 337 CURVE"
);
}
);
width = 748;
}
);
unicode = 00B1;
},
{
glyphname = product;
lastChange = "2017-11-27 15:32:02 +0000";
layers = (
{
layerId = "CF9497EE-3EC0-42B6-AB9D-60F0E4A560B4";
name = "Bold Italic";
paths = (
{
closed = 1;
nodes = (
"279 199 OFFCURVE",
"302 471 OFFCURVE",
"340 675 CURVE",
"299 706 OFFCURVE",
"201 726 OFFCURVE",
"154 724 CURVE",
"122 540 OFFCURVE",
"100 257 OFFCURVE",
"110 35 CURVE",
"141 5 OFFCURVE",
"217 -20 OFFCURVE",
"274 -18 CURVE"
);
},
{
closed = 1;
nodes = (
"288 580 OFFCURVE",
"548 588 OFFCURVE",
"701 580 CURVE",
"705 624 OFFCURVE",
"703 675 OFFCURVE",
"694 724 CURVE",
"465 745 OFFCURVE",
"203 748 OFFCURVE",
"91 736 CURVE",
"85 693 OFFCURVE",
"101 607 OFFCURVE",
"120 563 CURVE"
);
},
{
closed = 1;
nodes = (
"607 199 OFFCURVE",
"630 471 OFFCURVE",
"668 675 CURVE",
"627 706 OFFCURVE",
"529 726 OFFCURVE",
"482 724 CURVE",
"450 540 OFFCURVE",
"428 257 OFFCURVE",
"438 35 CURVE",
"469 5 OFFCURVE",
"545 -20 OFFCURVE",
"602 -18 CURVE"
);
}
);
width = 706;
}
);
unicode = 220F;
},
{
glyphname = radical;
lastChange = "2017-11-27 15:32:02 +0000";
layers = (
{
layerId = "CF9497EE-3EC0-42B6-AB9D-60F0E4A560B4";
name = "Bold Italic";
paths = (
{
closed = 1;
nodes = (
"272 164 OFFCURVE",
"256 244 OFFCURVE",
"217 400 CURVE",
"179 405 OFFCURVE",
"81 381 OFFCURVE",
"52 362 CURVE",
"100 231 OFFCURVE",
"145 120 OFFCURVE",
"235 -20 CURVE",
"272 -18 OFFCURVE",
"315 -5 OFFCURVE",
"352 22 CURVE"
);
},
{
closed = 1;
nodes = (
"923 611 OFFCURVE",
"935 697 OFFCURVE",
"933 740 CURVE",
"832 752 OFFCURVE",
"705 749 OFFCURVE",
"498 728 CURVE",
"490 679 OFFCURVE",
"488 628 OFFCURVE",
"492 584 CURVE",
"630 592 OFFCURVE",
"755 584 OFFCURVE",
"907 567 CURVE"
);
},
{
closed = 1;
nodes = (
"447 522 OFFCURVE",
"309 233 OFFCURVE",
"223 70 CURVE",
"243 38 OFFCURVE",
"305 -6 OFFCURVE",
"337 -17 CURVE",
"446 185 OFFCURVE",
"556 445 OFFCURVE",
"620 642 CURVE",
"607 672 OFFCURVE",
"562 710 OFFCURVE",
"521 726 CURVE"
);
}
);
width = 925;
}
);
unicode = 221A;
},
{
glyphname = summation;
lastChange = "2017-11-27 15:32:02 +0000";
layers = (
{
layerId = "CF9497EE-3EC0-42B6-AB9D-60F0E4A560B4";
name = "Bold Italic";
paths = (
{
closed = 1;
nodes = (
"350 494 OFFCURVE",
"291 589 OFFCURVE",
"212 722 CURVE",
"174 719 OFFCURVE",
"108 682 OFFCURVE",
"83 658 CURVE",
"156 538 OFFCURVE",
"221 438 OFFCURVE",
"336 318 CURVE",
"369 317 OFFCURVE",
"423 341 OFFCURVE",
"455 370 CURVE"
);
},
{
closed = 1;
nodes = (
"295 581 OFFCURVE",
"519 589 OFFCURVE",
"672 581 CURVE",
"676 625 OFFCURVE",
"674 676 OFFCURVE",
"665 725 CURVE",
"436 746 OFFCURVE",
"210 749 OFFCURVE",
"98 737 CURVE",
"92 694 OFFCURVE",
"108 608 OFFCURVE",
"127 564 CURVE"
);
},
{
closed = 1;
nodes = (
"238 -18 OFFCURVE",
"462 -10 OFFCURVE",
"615 -18 CURVE",
"619 26 OFFCURVE",
"617 77 OFFCURVE",
"608 126 CURVE",
"379 147 OFFCURVE",
"153 150 OFFCURVE",
"41 138 CURVE",
"35 95 OFFCURVE",
"51 9 OFFCURVE",
"70 -35 CURVE"
);
},
{
closed = 1;
nodes = (
"271 332 OFFCURVE",
"191 255 OFFCURVE",
"77 149 CURVE",
"88 113 OFFCURVE",
"138 56 OFFCURVE",
"167 37 CURVE",
"269 133 OFFCURVE",
"353 218 OFFCURVE",
"446 356 CURVE",
"440 388 OFFCURVE",
"406 436 OFFCURVE",
"370 461 CURVE"
);
}
);
width = 683;
}
);
unicode = 2211;
},
{
glyphname = upArrow;
lastChange = "2017-11-27 15:32:02 +0000";
layers = (
{
layerId = "CF9497EE-3EC0-42B6-AB9D-60F0E4A560B4";
name = "Bold Italic";
paths = (
{
closed = 1;
nodes = (
"455 176 OFFCURVE",
"464 416 OFFCURVE",
"506 639 CURVE",
"457 666 OFFCURVE",
"433 668 OFFCURVE",
"388 665 CURVE",
"308 455 OFFCURVE",
"258 146 OFFCURVE",
"265 -43 CURVE",
"313 -68 OFFCURVE",
"396 -86 OFFCURVE",
"470 -84 CURVE"
);
},
{
closed = 1;
nodes = (
"272 397 OFFCURVE",
"393 560 OFFCURVE",
"490 696 CURVE",
"441 722 OFFCURVE",
"419 722 OFFCURVE",
"365 731 CURVE",
"289 646 OFFCURVE",
"158 518 OFFCURVE",
"61 451 CURVE",
"84 408 OFFCURVE",
"138 344 OFFCURVE",
"181 315 CURVE"
);
},
{
closed = 1;
nodes = (
"629 307 OFFCURVE",
"695 339 OFFCURVE",
"731 365 CURVE",
"650 486 OFFCURVE",
"589 586 OFFCURVE",
"528 731 CURVE",
"477 734 OFFCURVE",
"439 731 OFFCURVE",
"402 717 CURVE",
"428 604 OFFCURVE",
"520 393 OFFCURVE",
"573 292 CURVE"
);
}
);
width = 759;
}
);
unicode = 2191;
},
{
glyphname = northEastArrow;
lastChange = "2017-11-27 15:32:02 +0000";
layers = (
{
layerId = "CF9497EE-3EC0-42B6-AB9D-60F0E4A560B4";
name = "Bold Italic";
paths = (
{
closed = 1;
nodes = (
"314 194 OFFCURVE",
"472 376 OFFCURVE",
"643 524 CURVE",
"622 576 OFFCURVE",
"605 592 OFFCURVE",
"567 618 CURVE",
"374 504 OFFCURVE",
"142 293 OFFCURVE",
"29 141 CURVE",
"52 92 OFFCURVE",
"105 26 OFFCURVE",
"164 -18 CURVE"
);
},
{
closed = 1;
nodes = (
"310 481 OFFCURVE",
"506 533 OFFCURVE",
"667 578 CURVE",
"645 630 OFFCURVE",
"627 643 OFFCURVE",
"591 683 CURVE",
"478 665 OFFCURVE",
"297 647 OFFCURVE",
"178 654 CURVE",
"170 606 OFFCURVE",
"172 523 OFFCURVE",
"187 474 CURVE"
);
},
{
closed = 1;
nodes = (
"661 315 OFFCURVE",
"675 431 OFFCURVE",
"718 582 CURVE",
"681 616 OFFCURVE",
"649 637 OFFCURVE",
"611 650 CURVE",
"561 545 OFFCURVE",
"501 323 OFFCURVE",
"480 211 CURVE",
"532 187 OFFCURVE",
"604 171 OFFCURVE",
"648 170 CURVE"
);
}
);
width = 723;
}
);
unicode = 2197;
},
{
glyphname = rightArrow;
lastChange = "2017-11-27 15:32:02 +0000";
layers = (
{
layerId = "CF9497EE-3EC0-42B6-AB9D-60F0E4A560B4";
name = "Bold Italic";
paths = (
{
closed = 1;
nodes = (
"305 248 OFFCURVE",
"546 264 OFFCURVE",
"771 246 CURVE",
"793 297 OFFCURVE",
"792 321 OFFCURVE",
"785 366 CURVE",
"568 424 OFFCURVE",
"255 441 OFFCURVE",
"68 414 CURVE",
"48 363 OFFCURVE",
"39 279 OFFCURVE",
"49 206 CURVE"
);
},
{
closed = 1;
nodes = (
"587 93 OFFCURVE",
"693 166 OFFCURVE",
"831 242 CURVE",
"829 292 OFFCURVE",
"826 321 OFFCURVE",
"808 357 CURVE",
"699 319 OFFCURVE",
"481 213 OFFCURVE",
"386 149 CURVE",
"407 95 OFFCURVE",
"445 33 OFFCURVE",
"475 0 CURVE"
);
},
{
closed = 1;
nodes = (
"823 321 OFFCURVE",
"835 345 OFFCURVE",
"839 399 CURVE",
"746 466 OFFCURVE",
"628 576 OFFCURVE",
"550 665 CURVE",
"510 637 OFFCURVE",
"452 577 OFFCURVE",
"428 532 CURVE",
"519 450 OFFCURVE",
"658 356 OFFCURVE",
"802 274 CURVE"
);
}
);
width = 872;
}
);
unicode = 2192;
},
{
glyphname = southEastArrow;
lastChange = "2017-11-27 15:32:02 +0000";
layers = (
{
layerId = "CF9497EE-3EC0-42B6-AB9D-60F0E4A560B4";
name = "Bold Italic";
paths = (
{
closed = 1;
nodes = (
"666 48 OFFCURVE",
"683 66 OFFCURVE",
"708 103 CURVE",
"592 295 OFFCURVE",
"378 524 OFFCURVE",
"225 635 CURVE",
"176 613 OFFCURVE",
"110 557 OFFCURVE",
"66 498 CURVE",
"281 350 OFFCURVE",
"465 195 OFFCURVE",
"615 26 CURVE"
);
},
{
closed = 1;
nodes = (
"689 20 OFFCURVE",
"707 43 OFFCURVE",
"719 81 CURVE",
"613 129 OFFCURVE",
"382 204 OFFCURVE",
"270 223 CURVE",
"247 169 OFFCURVE",
"231 99 OFFCURVE",
"232 55 CURVE",
"376 43 OFFCURVE",
"503 22 OFFCURVE",
"654 -18 CURVE"
);
},
{
closed = 1;
nodes = (
"705 44 OFFCURVE",
"730 53 OFFCURVE",
"770 90 CURVE",
"750 202 OFFCURVE",
"740 363 OFFCURVE",
"746 482 CURVE",
"698 489 OFFCURVE",
"615 486 OFFCURVE",
"565 470 CURVE",
"574 348 OFFCURVE",
"610 185 OFFCURVE",
"656 25 CURVE"
);
}
);
width = 827;
}
);
unicode = 2198;
},
{
glyphname = downArrow;
lastChange = "2017-11-27 15:32:02 +0000";
layers = (
{
layerId = "CF9497EE-3EC0-42B6-AB9D-60F0E4A560B4";
name = "Bold Italic";
paths = (
{
closed = 1;
nodes = (
"438 202 OFFCURVE",
"483 439 OFFCURVE",
"556 689 CURVE",
"484 707 OFFCURVE",
"399 708 OFFCURVE",
"347 695 CURVE",
"304 492 OFFCURVE",
"277 200 OFFCURVE",
"307 -22 CURVE",
"351 -35 OFFCURVE",
"375 -39 OFFCURVE",
"428 -24 CURVE"
);
},
{
closed = 1;
nodes = (
"307 -77 OFFCURVE",
"352 -72 OFFCURVE",
"391 -57 CURVE",
"326 97 OFFCURVE",
"258 254 OFFCURVE",
"188 355 CURVE",
"139 336 OFFCURVE",
"73 286 OFFCURVE",
"40 250 CURVE",
"120 162 OFFCURVE",
"212 24 OFFCURVE",
"268 -76 CURVE"
);
},
{
closed = 1;
nodes = (
"537 49 OFFCURVE",
"612 134 OFFCURVE",
"718 234 CURVE",
"689 268 OFFCURVE",
"632 314 OFFCURVE",
"581 341 CURVE",
"506 255 OFFCURVE",
"388 66 OFFCURVE",
"337 -38 CURVE",
"371 -60 OFFCURVE",
"395 -70 OFFCURVE",
"445 -79 CURVE"
);
}
);
width = 760;
}
);
unicode = 2193;
},
{
glyphname = southWestArrow;
lastChange = "2017-11-27 15:32:02 +0000";
layers = (
{
layerId = "CF9497EE-3EC0-42B6-AB9D-60F0E4A560B4";
name = "Bold Italic";
paths = (
{
closed = 1;
nodes = (
"342 187 OFFCURVE",
"540 324 OFFCURVE",
"767 450 CURVE",
"729 514 OFFCURVE",
"669 574 OFFCURVE",
"623 602 CURVE",
"460 506 OFFCURVE",
"225 298 OFFCURVE",
"91 118 CURVE",
"113 78 OFFCURVE",
"127 59 OFFCURVE",
"176 32 CURVE"
);
},
{
closed = 1;
nodes = (
"275 -12 OFFCURVE",
"371 -9 OFFCURVE",
"516 -12 CURVE",
"519 33 OFFCURVE",
"511 105 OFFCURVE",
"493 160 CURVE",
"380 151 OFFCURVE",
"172 108 OFFCURVE",
"63 70 CURVE",
"71 31 OFFCURVE",
"90 2 OFFCURVE",
"119 -39 CURVE"
);
},
{
closed = 1;
nodes = (
"184 180 OFFCURVE",
"251 352 OFFCURVE",
"272 473 CURVE",
"224 493 OFFCURVE",
"142 504 OFFCURVE",
"93 501 CURVE",
"88 383 OFFCURVE",
"55 212 OFFCURVE",
"24 101 CURVE",
"61 61 OFFCURVE",
"77 49 OFFCURVE",
"123 25 CURVE"
);
}
);
width = 786;
}
);
unicode = 2199;
},
{
glyphname = leftArrow;
lastChange = "2017-11-27 15:32:02 +0000";
layers = (
{
layerId = "CF9497EE-3EC0-42B6-AB9D-60F0E4A560B4";
name = "Bold Italic";
paths = (
{
closed = 1;
nodes = (
"229 356 OFFCURVE",
"388 450 OFFCURVE",
"480 532 CURVE",
"455 577 OFFCURVE",
"397 637 OFFCURVE",
"357 665 CURVE",
"279 576 OFFCURVE",
"147 462 OFFCURVE",
"55 395 CURVE",
"58 341 OFFCURVE",
"63 321 OFFCURVE",
"84 274 CURVE"
);
},
{
closed = 1;
nodes = (
"399 33 OFFCURVE",
"438 95 OFFCURVE",
"458 149 CURVE",
"364 213 OFFCURVE",
"175 308 OFFCURVE",
"65 346 CURVE",
"48 311 OFFCURVE",
"44 276 OFFCURVE",
"42 226 CURVE",
"180 150 OFFCURVE",
"257 93 OFFCURVE",
"369 0 CURVE"
);
},
{
closed = 1;
nodes = (
"863 279 OFFCURVE",
"854 363 OFFCURVE",
"834 414 CURVE",
"647 441 OFFCURVE",
"334 424 OFFCURVE",
"117 366 CURVE",
"110 321 OFFCURVE",
"109 297 OFFCURVE",
"131 246 CURVE",
"356 264 OFFCURVE",
"597 248 OFFCURVE",
"853 206 CURVE"
);
}
);
width = 898;
}
);
unicode = 2190;
},
{
glyphname = northWestArrow;
lastChange = "2017-11-27 15:32:02 +0000";
layers = (
{
layerId = "CF9497EE-3EC0-42B6-AB9D-60F0E4A560B4";
name = "Bold Italic";
paths = (
{
closed = 1;
nodes = (
"635 12 OFFCURVE",
"695 73 OFFCURVE",
"722 119 CURVE",
"626 282 OFFCURVE",
"416 515 OFFCURVE",
"235 648 CURVE",
"195 625 OFFCURVE",
"176 611 OFFCURVE",
"150 562 CURVE",
"305 397 OFFCURVE",
"444 200 OFFCURVE",
"572 -26 CURVE"
);
},
{
closed = 1;
nodes = (
"152 219 OFFCURVE",
"225 228 OFFCURVE",
"280 246 CURVE",
"270 359 OFFCURVE",
"226 567 OFFCURVE",
"187 676 CURVE",
"148 667 OFFCURVE",
"119 648 OFFCURVE",
"79 618 CURVE",
"106 463 OFFCURVE",
"110 367 OFFCURVE",
"108 222 CURVE"
);
},
{
closed = 1;
nodes = (
"611 517 OFFCURVE",
"622 600 OFFCURVE",
"618 648 CURVE",
"500 653 OFFCURVE",
"328 685 OFFCURVE",
"218 714 CURVE",
"178 678 OFFCURVE",
"166 661 OFFCURVE",
"142 615 CURVE",
"298 555 OFFCURVE",
"470 489 OFFCURVE",
"591 469 CURVE"
);
}
);
width = 776;
}
);
unicode = 2196;
},
{
glyphname = leftRightArrow;
lastChange = "2017-11-27 15:32:02 +0000";
layers = (
{
layerId = "CF9497EE-3EC0-42B6-AB9D-60F0E4A560B4";
name = "Bold Italic";
paths = (
{
closed = 1;
nodes = (
"1082 281 OFFCURVE",
"1077 327 OFFCURVE",
"1068 357 CURVE",
"709 448 OFFCURVE",
"419 444 OFFCURVE",
"81 366 CURVE",
"74 321 OFFCURVE",
"73 297 OFFCURVE",
"94 246 CURVE",
"401 266 OFFCURVE",
"722 274 OFFCURVE",
"1074 244 CURVE"
);
},
{
closed = 1;
nodes = (
"399 33 OFFCURVE",
"438 95 OFFCURVE",
"458 149 CURVE",
"364 213 OFFCURVE",
"175 308 OFFCURVE",
"65 346 CURVE",
"48 311 OFFCURVE",
"44 276 OFFCURVE",
"42 226 CURVE",
"180 150 OFFCURVE",
"257 93 OFFCURVE",
"369 0 CURVE"
);
},
{
closed = 1;
nodes = (
"229 356 OFFCURVE",
"388 450 OFFCURVE",
"480 532 CURVE",
"455 577 OFFCURVE",
"397 637 OFFCURVE",
"357 665 CURVE",
"279 576 OFFCURVE",
"147 462 OFFCURVE",
"55 395 CURVE",
"58 341 OFFCURVE",
"63 321 OFFCURVE",
"84 274 CURVE"
);
},
{
closed = 1;
nodes = (
"896 93 OFFCURVE",
"1002 166 OFFCURVE",
"1140 242 CURVE",
"1138 292 OFFCURVE",
"1135 321 OFFCURVE",
"1117 357 CURVE",
"1008 319 OFFCURVE",
"790 213 OFFCURVE",
"696 149 CURVE",
"716 95 OFFCURVE",
"755 33 OFFCURVE",
"785 0 CURVE"
);
},
{
closed = 1;
nodes = (
"1132 321 OFFCURVE",
"1144 345 OFFCURVE",
"1148 399 CURVE",
"1056 466 OFFCURVE",
"937 576 OFFCURVE",
"859 665 CURVE",
"819 637 OFFCURVE",
"761 577 OFFCURVE",
"737 532 CURVE",
"828 450 OFFCURVE",
"967 356 OFFCURVE",
"1112 274 CURVE"
);
}
);
width = 1181;
}
);
unicode = 2194;
},
